<svg id="Layer_1" data-name="Layer 1" xmlns="http://www.w3.org/2000/svg" viewBox="0 0 1200 1200"><defs><style>.cls-1{fill:#f2f2f2;}.cls-2{fill:#33343b;}</style></defs><title>fm-logo</title><rect class="cls-1" y="-0.5" width="1200" height="1200"/><path class="cls-2" d="M452.68,681.86l-4.41,1,3.65,16.65,4.9-1.08c7.27-1.59,9.86-5.4,8.65-11S460,680.25,452.68,681.86Z"/><polygon class="cls-2" points="559.79 687.87 573.12 687.19 565.39 668.37 559.79 687.87"/><path class="cls-2" d="M398.2,696.25c-11.17,3.45-11.4,14-8.88,22.2,2.27,7.29,8.15,16.91,20,13.22,11.38-3.53,11.38-14.2,8.9-22.15C415.87,702.3,410.11,692.49,398.2,696.25Z"/><path class="cls-2" d="M886.58,794.25v.18l38.3-73.56q-12.28-6.42-24.77-12.31a701.35,701.35,0,0,0-171.36-54.87V566.07l41,23.65.23.15L935.05,685.2A9.14,9.14,0,0,0,947.57,682l.1-.17a9,9,0,0,0,.81-6.91,9.16,9.16,0,0,0-4.27-5.58l-92.58-53.44-.25-.15L728.25,544.65v-130a9.17,9.17,0,0,0-4.55-8L606.45,339a9.2,9.2,0,0,0-9.19,0L480,406.65a9.18,9.18,0,0,0-4.56,8v130l-50.65,29.24a.92.92,0,0,0-.27.16l-165.13,95.3a9.21,9.21,0,0,0-3.37,12.58l0,0a9.27,9.27,0,0,0,12.54,3.23l92.45-53.37.43-.25,114-65.8v87.85a701.22,701.22,0,0,0-171.71,54.93q-12.61,6-24.83,12.31l38.23,73.43q12.25-6.37,24.88-12.24a618.93,618.93,0,0,1,519.79,0Q874.45,787.9,886.58,794.25ZM662,511.52a66.69,66.69,0,0,0,0-58.84l47.94-27.76V539.28Zm43.37,35.88-98.88,56.93V549.07a66.92,66.92,0,0,0,50.94-29.43ZM606.45,360.15l98.86,57.1L657.37,445a66.89,66.89,0,0,0-51-29.42Zm-4.59,73.43a31.93,31.93,0,0,1,4.59.22,48.63,48.63,0,0,1,0,96.8,32,32,0,0,1-4.59.3v-.08a32.07,32.07,0,0,1-4.6-.22,48.63,48.63,0,0,1,0-96.8C598.78,433.65,600.32,433.58,601.86,433.58ZM597.29,549l0,55.37-98.86-57,47.94-27.76A66.9,66.9,0,0,0,597.29,549Zm0-188.81v55.33a66.92,66.92,0,0,0-50.94,29.43l-47.94-27.76Zm-103.45,65,47.94,27.76a66.76,66.76,0,0,0,0,58.84l-47.94,27.76Zm0,140.63,103.45,59.72a9.15,9.15,0,0,0,9.19,0l104-60v85.06a702,702,0,0,0-216.6-.05ZM379.3,747.67l-16.24,6.89c-1,.43-1.44.3-1.87-.71l-1.57-3.76c-.35-.8-.27-1.21.86-1.69l1.09-.45c2.14-.91,2.72-1.82,1.64-4.42L354.58,723l1.76,33.74c0,.93,0,1.13-1.23,1.63l-7.88,3.31c-.88.38-1.31.4-1.89-.25l-23.62-26L331,757.49c1.14,2.67,1.87,2.52,4.16,1.54l1.09-.46c1.06-.45,1.44-.3,1.76.53l1.62,3.81c.43,1,.15,1.42-.81,1.82L323.69,771c-.88.38-1.34.35-1.79-.73l-1.61-3.81c-.33-.84-.18-1.19.83-1.62l1.08-.45c2.35-1,2.91-1.59,1.87-4.07l-11.71-27.75c-1.31-2.8-1.86-2.73-3.58-2.17l-.76.33c-1.11.37-1.54,0-1.84-.66l-1.34-3.56c-.43-1-.2-1.41.81-1.84l12.87-5.4a1.76,1.76,0,0,1,2.3.83L349.33,752,347,708.94c0-1.08,0-1.54,1.38-2.07L359.88,702c1-.43,1.38-.28,1.81.73l1.31,3.18a1.3,1.3,0,0,1-.32,1.82,1.29,1.29,0,0,1-.33.17l-1.24.58a2.52,2.52,0,0,0-1.67,3.15,2.34,2.34,0,0,0,.26.58L371.38,740c1.16,2.73,1.59,3,3.76,2.15l1.57-.66c1.16-.48,1.66-.33,2,.5l1.57,3.74C380.72,746.76,380.31,747.24,379.3,747.67Zm32.08-9.23c-18.22,5.65-28.32-4.39-32.1-16.68-3.48-11.18-2.14-26.29,16.7-32.17,18.15-5.63,28.24,4.34,32.12,16.83C431.56,717.39,430.3,732.56,411.38,738.44Zm75.14-19.89a15.76,15.76,0,0,1-5,1.9c-4.64,1-7.24,0-10.52-3.89s-8.2-13.35-15.54-11.73l-2.35.53,2.12,9.58c.68,3.11,1.64,3.31,4.19,2.76l1.21-.28c1.36-.28,1.56,0,1.74.83l.86,4c.25,1.14,0,1.46-1.16,1.74l-18.95,4.17c-1.14.25-1.54,0-1.79-1.09l-.86-4c-.18-.81,0-1.21,1.21-1.46l1.21-.28c2.52-.53,3.31-1.36,2.68-4.24l-6.31-28.61c-.51-2.3-1.32-3-3.08-2.78a8.85,8.85,0,0,0-2.05.38c-1.13.25-1.76.3-2-1l-.83-3.76c-.25-1.16,0-1.49,1.23-1.77l18.15-4c13.9-3.08,22.53-1.39,24.9,9.36a13.31,13.31,0,0,1-7.22,15.89c3.54,1.07,6.16,4.29,11.06,10.53a3,3,0,0,0,3.68,1.38,10.18,10.18,0,0,0,2.27-.85c.58-.28,1.09-.31,1.24.43l.91,4.08C487.73,717.12,487.78,717.75,486.52,718.55Zm49.63-6.89-3.36.46a2,2,0,0,1-2.52-1.06l-.45-.71a25.91,25.91,0,0,1-11.74,4.49c-14.45,2-26.31-4.61-28.66-22-2-14.58,5.65-26.37,22.15-28.61,14.71-2,19.66,4.21,20.44,9.94a5.87,5.87,0,0,1-4.85,6.75,3.55,3.55,0,0,1-.47.06,5.59,5.59,0,0,1-6.41-4.65c0-.13,0-.26,0-.4a6.16,6.16,0,0,1,1.06-4.44,22.17,22.17,0,0,0-8.08-.22c-11.1,1.51-14.76,10.54-13.39,20.49,1.41,10.44,7.41,16.83,17.78,15.44a20.64,20.64,0,0,0,9.42-3.63l-.81-6a1.74,1.74,0,0,0-1.78-1.71,1.62,1.62,0,0,0-.44.07l-5,.68c-.93.13-1.41-.3-1.56-1.39l-.53-3.81c-.13-1,0-1.69,1.08-1.81l15.14-2.07a1,1,0,0,1,1.27.66.84.84,0,0,1,0,.27l2.86,21.22C537.56,710.76,537.24,711.44,536.15,711.66Zm57.33-3.53v.08l-17.66.91c-1.24,0-1.54-.13-1.59-1.37l-.18-3.5c0-.84.13-1.24,1.44-1.52h.6c1.72-.35,2.53-.73,2.53-1.91a6.38,6.38,0,0,0-.58-2.1l-2.12-5.05-17.67.91-1.69,5.93c-.7,2.4.36,2.83,2.27,3h.84c1.23,0,1.54.53,1.59,1.42l.17,3.5c0,1.19-.25,1.47-1.43,1.54l-15.37.79c-1.11,0-1.46,0-1.54-1.37l-.18-3.58c0-.88.13-1.51,1.37-1.72l1.79-.15c1.28-.15,1.81-.45,2.77-3.38l11.23-39.36c.28-.91.4-1.11,1.79-1.19l8.53-.43c1,0,1.31,0,1.69.94l15.77,37.14c1.54,3.58,1.92,3.84,4.19,3.86h1.09c1.31,0,1.54.41,1.59,1.31l.3,3.79C595,707.78,594.72,708.06,593.48,708.13Zm59.78-42.34c0,.88-.26,1.21-1.49,1.19H651c-2.52,0-3.46.43-3.56,3.18l-1.39,39.11c0,.83-.32,1.08-1.64,1H641.9a2.2,2.2,0,0,1-2-1L614,675l-.85,23.72c0,2.87.7,3.33,3.25,3.43h.83c1.32,0,1.44.33,1.39,1.21l-.12,4.06c0,1.16-.33,1.44-1.52,1.39l-16.15-.58c-1.11,0-1.44-.25-1.39-1.49v-4c0-.91.26-1.23,1.49-1.18h.84c2.52,0,3.45-.43,3.55-3.18l1.09-30.28c0-2.35-1-2.85-3.21-2.93h-.88c-1.24,0-1.44-.38-1.41-1.21l.15-4.14c0-1.08.4-1.36,1.51-1.31l10.25.38a2.69,2.69,0,0,1,2.29,1.11l23.72,32.8.83-23c0-2.9-.75-3.36-3.25-3.43h-.88c-1.24,0-1.44-.33-1.42-1.24l.16-4c0-1.18.32-1.43,1.51-1.41l16.15.58c1.08,0,1.44.28,1.39,1.52Zm51.62,3.38L704.2,679c0,1.09-.13,1.49-1.36,1.37l-4.29-.53c-1-.13-1.42-.46-1.42-1.57v-2.9c0-2.78-1.36-3-6.76-3.66l-1.76-.2-3.86,32.1c-.38,3.15.37,3.65,2.9,4h.91c1.21.15,1.31.5,1.21,1.33l-.48,4c-.13,1.16-.46,1.41-1.54,1.28L669.45,712c-1.11,0-1.41-.43-1.26-1.59l.48-4c0-.84.41-1.14,1.57-1h.88c2.52.28,3.43-.2,3.78-3.15l3.86-32.1-1.91-.22c-5.33-.66-6.64-.74-7.37,1.94l-.68,2.82c-.28,1.09-.66,1.32-1.67,1.19l-4.36-.51c-1.16-.15-1.14-.55-.94-1.64L663.5,664c.45-2.52.88-2.73,3-2.52l36,4.31c2.12.46,2.53.63,2.4,3.31ZM760.7,702.4v.08c-2.33,11.38-10.75,24-30.16,20.06-18.67-3.81-22.71-17.49-20-30.28,2.35-11.45,10.85-24,30.28-20.19C759.31,676,763.34,689.59,760.7,702.4Zm49.63,41.23v.08l-6.89-2.14c-1.39-.43-1.31-1.34-1.26-2.53l2-35-17.38,30.38c-.94,1.59-1.32,1.67-2.3,1.37l-9.13-2.85c-.94-.28-1.29-.76-1.24-2.53l1.41-38.81c.18-4-.28-4.41-2.52-5s-1.89-1-1.39-2.68l.91-3c.33-1.06.68-1.24,1.66-.93l17.67,5.5c1,.33,1.21.65.88,1.71l-.91,3.56c-.25.78-.73,1.21-1.59.93-2.7-.83-3.63-1-4.06.33a10.26,10.26,0,0,0-.33,2.2l-2,30.28,19.94-33.92c.65-1.18.86-1.38,1.92-1l7.41,2.29c1.11.35,1.09.71,1,2.05l-1.61,37.09L827,706.47a12.48,12.48,0,0,0,.93-1.82c.35-1.16-.48-1.51-2.9-2.27-1.06-.33-1.16-.93-.91-1.72l1.14-3.68c.37-1.16.47-1.29,2.11-.78l13.81,4.31c1,.31,1.18.58.8,1.77l-1.06,3.4c-.22.74-.6,1.47-1.71,1.14-3-1-3.38-1-5.43,2.35L813.18,742.3C812,744,812,744.14,810.33,743.63Zm39.46,7.45.76.33c1.21.5,1.21.8.86,1.64l-1.59,3.73c-.46,1.09-.81,1.21-1.9.76l-14.86-6.34c-1-.42-1.26-.75-.75-1.89l1.56-3.68c.35-.81.68-1.06,1.82-.56l.75.33c2.27,1,3.38.83,4.44-1.69L852.74,716c.79-2.22,0-3-1.94-3.88l-.81-.35c-1.13-.51-1.18-.89-.88-1.64l1.64-3.82c.43-1,.83-1.13,1.87-.7l9.41,4a2.67,2.67,0,0,1,1.74,1.86l10.37,39.19,9-21.2c1.14-2.65.48-3.38-1.79-4.36l-.83-.35c-1.14-.48-1.21-.81-.86-1.64l1.59-3.74c.46-1.06.81-1.21,1.89-.76L898,724.94c1,.3,1.26.63.75,1.86l-1.56,3.69c-.35.81-.66,1.06-1.82.58l-.68-.3c-2.35-1-3.38-.86-4.47,1.69l-15.34,36c-.32.76-.7.89-1.89.38l-2.4-1a2.21,2.21,0,0,1-1.56-1.62l-11.78-41.3L848,746.71C846.84,749.39,847.45,750.09,849.79,751.08Z"/><path class="cls-2" d="M739.3,679.11c-11.46-2.34-16.78,6.82-18.5,15.14-1.54,7.57-1,18.75,11.16,21.25,11.65,2.4,16.8-6.94,18.47-15.14C752,693,751.61,681.64,739.3,679.11Z"/><path class="cls-2" d="M421.75,424.77a9,9,0,0,0,4.56-1.24L601.86,322.2,777.37,423.53a9.19,9.19,0,1,0,9.72-15.59,5.54,5.54,0,0,0-.53-.3l-180.11-104h-.23l-.5-.25-.38-.18-.43-.32a1.26,1.26,0,0,0-.45-.15h-.38l-.51-.13h-3.43l-.53.13h-.35l-.48.15-.41.15-.4.17-.48.26h-.23L417.15,407.64a9.18,9.18,0,0,0,4.6,17.13Z"/><path class="cls-2" d="M573.62,482a3.45,3.45,0,0,0,3.15,3.74,5.8,5.8,0,0,0,.59,0h22.23v32.22a2.3,2.3,0,0,0,4.59,0V482.17a2.47,2.47,0,0,0-.1-.53,3.38,3.38,0,0,0-2.78-2.82,3.84,3.84,0,0,0-.83,0H577.36A3.46,3.46,0,0,0,573.62,482Z"/><path class="cls-2" d="M192.4,818.49c-.35-5.15-1-5.38-5.16-5.38h-54.7c-1.83,0-2.29.34-2.29,2.06V820c0,1.5.46,2.07,1.95,2.07h4.13c2.64.34,3.55,1.49,3.55,4.81v54.81c0,4.36-1.37,5.39-4.93,5.39h-2.52c-1.84,0-2.18.46-2.18,1.72v5c0,1.61.57,2.07,2.18,2.07h27.75c1.72,0,2.06-.57,2.06-2.07v-5c0-1.37-.23-1.72-2.06-1.72h-2.53c-3.67,0-5-.69-5-5.39V860.12h12.73c1.83,0,3.32.57,3.55,3.21l.34,3.89c.23,1.61.69,1.95,2.41,1.95h4.47c1.61,0,1.72-.57,1.72-2.06V844.52c0-1.72-.11-2.18-1.83-2.18h-4.36c-1.72,0-2.18.23-2.41,2.07l-.34,3.78c-.23,2.52-1.72,3.21-3.55,3.21H152.61V821.82h18.12c9.4,0,11.81.11,12.49,5.39l.46,4.7c.23,2.18.92,2.52,2.53,2.52h4.93c2.06,0,2.17-.57,2.06-2.75Z"/><path class="cls-2" d="M259.12,886.72c-1.27.11-1.84.57-3.9.57-2.3,0-3.44-1.6-3.44-5V859.08c0-18.68-8.83-25.56-26.26-25.56-16.05,0-22.13,6.88-22.13,15.36a6.84,6.84,0,0,0,7,7.11,7,7,0,0,0,7.33-7.34,7.61,7.61,0,0,0-1.37-4.36,27.12,27.12,0,0,1,9.17-1.49c8.83,0,14.1,4,14.1,14v3.1h-4.93c-20.52,0-33.59,4.35-33.59,20.18q0,16.5,18.92,16.51c9.4,0,16-3.21,19.95-7.8,1.49,6.19,6.53,7.68,11,7.68s6.2-.34,8-1a2.3,2.3,0,0,0,1.61-2.41v-5.16C260.61,886.72,260.15,886.6,259.12,886.72Zm-19.5-15.94c0,10.78-7.11,17-16.85,17-7.11,0-9.63-2.87-9.63-8,0-8.71,7.79-11.58,21.55-11.58h4.93Z"/><path class="cls-2" d="M306.24,833.52c-12.5,0-17.66,10.77-19.26,16.39v-12c0-2.29-.58-3.21-2.64-3.21l-16.63.92c-1.72.11-2.17.57-2.17,2.18v4.7c0,1.38.45,2.06,1.94,2.06,6.43,0,7.34.69,7.34,4.13v33.48c0,4-1.38,4.93-5.16,4.93H267c-1.72,0-2.07.35-2.07,1.72v5c0,1.61.46,2.07,2.07,2.07h30c1.72,0,2.17-.46,2.17-1.95v-5.16c0-1.26-.34-1.72-2.17-1.72H292c-3.78,0-5-.69-5-4.93v-11c0-12.15,6.19-28.32,17.19-28.66a7.24,7.24,0,0,0,6.43,9.75,7.4,7.4,0,0,0,7.45-7.57C318.05,838.1,314.61,833.52,306.24,833.52Z"/><path class="cls-2" d="M424.34,886.72c-1.27.11-1.84.57-3.9.57-2.3,0-3.56-1.6-3.56-5V853.58c0-14.45-7.57-20.06-17.88-20.06-9.18,0-16.63,3.32-20,11.23-2.52-7.91-8.82-11.23-16.62-11.23-8.37,0-15.25,2.86-18.69,9.63v-5.28c0-2.29-.57-3.21-2.75-3.21l-16.63.92c-1.6.11-2.06.57-2.06,2.18v4.7c0,1.38.34,2.06,1.83,2.06,6.54,0,7.46.69,7.46,4.13v33.48c0,4-1.38,4.93-4.93,4.93h-2.3c-1.83,0-2.17.35-2.17,1.72v5c0,1.61.57,2.07,2.17,2.07h25.34c1.61,0,2.07-.46,2.07-2.07v-5c0-1.37-.35-1.72-2.07-1.72h-2.41c-2.63,0-3.55-.69-3.55-4.93V866.31c0-14.33,4.7-22.47,14.68-22.47,7,0,9.74,4.7,9.74,11.57v26.72c0,4-.92,4.93-3.67,4.93h-2.29c-1.83,0-2.06.35-2.06,1.72v5c0,1.61.34,2.07,2.06,2.07h25.45c1.61,0,2.07-.46,2.07-2.07v-5c0-1.37-.35-1.72-2.07-1.72h-2.52c-3.55,0-4.81-.69-4.81-4.93V866.31c0-14.33,4.81-22.47,14.67-22.47,7,0,9.75,4.7,9.75,11.57v29.36c0,9.63,6.07,11.69,11.35,11.69,4.36,0,6.19-.34,8-1a2.29,2.29,0,0,0,1.6-2.41v-5.16C425.71,886.72,425.25,886.6,424.34,886.72Z"/><path class="cls-2" d="M482.35,882.82c-.8,0-2.29.8-4.36,1.72a41.14,41.14,0,0,1-15.36,2.87c-12.27,0-17.77-5-18.58-17.89a55.12,55.12,0,0,0,15.14,2.18c16.74,0,24.19-7.69,24.19-18.92,0-12.16-8.37-19.26-23.62-19.26-18.92,0-28.55,13-28.55,32.21,0,18.46,8.72,31,30.39,31,8,0,15.47-1.72,19.6-3.9,1.95-1,2.3-1.72,2.3-3.32v-5.05C483.5,883.28,483.27,882.82,482.35,882.82Zm-22.59-40.59c8,0,12.38,3.55,12.38,10.43s-5,10.55-14,10.55a59.18,59.18,0,0,1-14.11-2.06C445.2,847.85,451.16,842.23,459.76,842.23Z"/><path class="cls-2" d="M533.25,833.52c-12.49,0-17.65,10.77-19.26,16.39v-12c0-2.29-.57-3.21-2.63-3.21l-16.63.92c-1.72.11-2.18.57-2.18,2.18v4.7c0,1.38.46,2.06,1.95,2.06,6.42,0,7.34.69,7.34,4.13v33.48c0,4-1.38,4.93-5.16,4.93H494c-1.72,0-2.06.35-2.06,1.72v5c0,1.61.46,2.07,2.06,2.07h30c1.72,0,2.18-.46,2.18-1.95v-5.16c0-1.26-.34-1.72-2.18-1.72h-5c-3.79,0-5-.69-5-4.93v-11c0-12.15,6.19-28.32,17.2-28.66a7.22,7.22,0,0,0,6.42,9.75,7.39,7.39,0,0,0,7.45-7.57C545.06,838.1,541.62,833.52,533.25,833.52Z"/><path class="cls-2" d="M563.87,849.57c0-4.59,3.32-7.91,11.23-7.91a22.49,22.49,0,0,1,9.41,1.83,7.93,7.93,0,0,0-1.15,4.36c0,4.36,2.87,7,7,7s6.77-3.44,6.77-7.22c0-8.94-7.68-14.1-22.47-14.1s-22.13,6.3-22.13,17.42c0,24.2,34.39,14.22,34.39,29.13,0,6.53-4.93,9.17-12.95,9.17a24.48,24.48,0,0,1-11.47-2.41A7.38,7.38,0,0,0,564.1,882c0-4.13-2.41-7-6.77-7s-7.11,3.21-7.11,7.57c0,10,10,14.79,24,14.79,15.93,0,24.19-6.19,24.19-18.8C598.38,854.38,563.87,864,563.87,849.57Z"/><path class="cls-2" d="M752.6,887.06h-3.9c-3.32,0-3.9-.8-3.9-4.93V826.41c0-4.25,2.18-4.59,3.79-4.59l3.78-.12c1.72-.11,2.06-1.14,2.06-2.29v-4.24c0-1.72-.45-2.06-2.06-2.06H734c-2.4,0-3,.46-3.67,2.06l-25,70.74-25.22-70.17c-.46-1.49-1.15-2.63-3-2.63H656.74c-1.72,0-2.17.34-2.17,2.06v4.59c0,1.14.34,1.83,2.17,1.94h1.72c3,.12,4.71.35,4.93,4.82v56.07c0,3.9-.91,4.47-4.81,4.47h-3.21c-1.72,0-2.07.23-2.07,1.72v5.16c0,1.6.58,1.95,2.07,1.95h26c1.49,0,2.06-.35,2.06-2.07v-5c0-1.49-.35-1.72-2.06-1.72h-3.33c-3.78,0-4.7-.46-4.7-4.47v-49.3l22.24,61.45c.58,1.38,1,1.61,2.76,1.61h10.77c2.07,0,2.41-.23,3-1.72l21-59.39v46.89c0,4-1.26,4.93-4.59,4.93h-3.33c-1.83,0-2.17.57-2.17,2.07v4.69c0,1.72.57,2.07,2.17,2.07H752.6c1.72,0,2.41-.35,2.41-2.07v-4.69C755,887.63,754.43,887.06,752.6,887.06Z"/><path class="cls-2" d="M826,886.72a22.45,22.45,0,0,1-3.9.57c-2.29,0-3.44-1.6-3.44-5V859.08c0-18.68-8.83-25.56-26.25-25.56-16.06,0-22.13,6.88-22.13,15.36a6.83,6.83,0,0,0,7,7.11,7,7,0,0,0,7.34-7.34,7.54,7.54,0,0,0-1.38-4.36,27.18,27.18,0,0,1,9.18-1.49c8.82,0,14.1,4,14.1,14v3.1h-4.93c-20.53,0-33.6,4.35-33.6,20.18q0,16.5,18.92,16.51c9.4,0,16.05-3.21,20-7.8,1.49,6.19,6.54,7.68,11,7.68s6.19-.34,8-1a2.29,2.29,0,0,0,1.6-2.41v-5.16C827.48,886.72,827,886.6,826,886.72ZM806.5,870.78c0,10.78-7.11,17-16.86,17-7.11,0-9.63-2.87-9.63-8,0-8.71,7.8-11.58,21.56-11.58h4.93Z"/><path class="cls-2" d="M876.78,833.52c-12.5,0-17.66,10.77-19.26,16.39v-12c0-2.29-.58-3.21-2.64-3.21l-16.63.92c-1.72.11-2.18.57-2.18,2.18v4.7c0,1.38.46,2.06,1.95,2.06,6.42,0,7.34.69,7.34,4.13v33.48c0,4-1.38,4.93-5.16,4.93h-2.64c-1.72,0-2.06.35-2.06,1.72v5c0,1.61.46,2.07,2.06,2.07h30c1.72,0,2.18-.46,2.18-1.95v-5.16c0-1.26-.34-1.72-2.18-1.72h-5c-3.79,0-5-.69-5-4.93v-11c0-12.15,6.19-28.32,17.19-28.66a7.22,7.22,0,0,0,6.42,9.75,7.4,7.4,0,0,0,7.46-7.57C888.59,838.1,885.15,833.52,876.78,833.52Z"/><path class="cls-2" d="M959.11,887.86c0-1-.46-1.14-1.26-1a17.5,17.5,0,0,1-3.9.58c-2,0-3.21-.69-9.4-6.77l-17.66-17.08L944,848.77c3.67-3.21,5.5-4.25,8.37-4.25h3.9c1.83,0,2.17-.91,2.17-2.29v-4.59c0-1.72-.45-1.95-2.17-1.95H929.76c-1.61,0-2.07.35-2.07,1.95V842c0,1.84.35,2.52,2.3,2.52h2.06c2.64,0,3.67.58.46,3.33l-16.28,14.21V811.62c0-2-.46-3.33-2.75-3.21l-16.51.91c-1.72.12-2.07.35-2.07,2.3v4.24c0,1.37.23,2.29,2,2.4h3.9c2.41.12,3.32,1.15,3.32,4.25v59.62c0,4.24-1.37,4.93-5,4.93h-2.75c-1.84,0-2.18.46-2.18,1.72v5c0,1.61.46,2.07,2.18,2.07H924c1.61,0,2.07-.46,2.07-2.07v-5c0-1.26-.35-1.72-2.07-1.72h-2.75c-3.78,0-5-.69-5-4.93V869.4l18.57,18.69c7,7.23,9.41,8.49,15.48,8.49a24.47,24.47,0,0,0,7.69-1c1.37-.34,1.14-.68,1.14-1.83Z"/><path class="cls-2" d="M1022.51,882.82c-.8,0-2.29.8-4.35,1.72a41.19,41.19,0,0,1-15.37,2.87c-12.27,0-17.77-5-18.57-17.89a55,55,0,0,0,15.13,2.18c16.74,0,24.2-7.69,24.2-18.92,0-12.16-8.38-19.26-23.63-19.26-18.91,0-28.55,13-28.55,32.21,0,18.46,8.72,31,30.39,31,8,0,15.48-1.72,19.61-3.9,2-1,2.29-1.72,2.29-3.32v-5.05C1023.66,883.28,1023.43,882.82,1022.51,882.82Zm-22.59-40.59c8,0,12.39,3.55,12.39,10.43s-5,10.55-14,10.55a59,59,0,0,1-14.1-2.06C985.36,847.85,991.32,842.23,999.92,842.23Z"/><path class="cls-2" d="M1067.91,886a19.48,19.48,0,0,1-7.33,1.15c-5.85,0-8.95-1.49-8.95-11.58V845h13.88c1.83,0,2.4-.69,2.4-2.06v-5.51c0-1.49-.57-1.72-2.52-1.72h-13.76V820.56c0-1.61-.11-1.84-3.09-1.84-2.41,0-3.67.23-4.13,1.84l-4.93,15.13h-7c-1.61,0-2.07.69-2.07,2.53v4.47c0,2.06.57,2.29,2.64,2.29h6.42v33.6c0,14.79,8.26,18,18,18a32,32,0,0,0,10.43-1.49,2.47,2.47,0,0,0,1.84-2.64v-5C1069.75,885.8,1069.18,885.46,1067.91,886Z"/><path class="cls-2" d="M750.68,520a13.76,13.76,0,0,0-3.31,25.22L981.58,680.39a13.77,13.77,0,0,0,18.81-5,13.79,13.79,0,0,0-5-18.81L761.13,521.33A13.69,13.69,0,0,0,750.68,520Z"/><path class="cls-2" d="M215.84,682.23a13.73,13.73,0,0,0,6.87-1.84L456.92,545.16a13.77,13.77,0,1,0-13.77-23.84L208.94,656.54a13.76,13.76,0,0,0,6.9,25.69Z"/></svg>