<svg id="Layer_1" data-name="Layer 1" xmlns="http://www.w3.org/2000/svg" viewBox="0 0 799 422"><defs><style>.cls-1{fill:#6aafd4;}.cls-2{fill:#0076b6;}.cls-10,.cls-3{fill:#099e49;}.cls-4{fill:#95d6b1;}.cls-5,.cls-8{fill:none;}.cls-15,.cls-16,.cls-17,.cls-5{stroke:#fff;}.cls-10,.cls-15,.cls-16,.cls-17,.cls-5{stroke-miterlimit:10;}.cls-5{stroke-width:5.88px;}.cls-6{fill:gray;}.cls-12,.cls-7{fill:#fff;}.cls-9{fill:#d63927;}.cls-10{stroke:#099e49;stroke-width:2.94px;}.cls-11{fill:#cbcbca;}.cls-12{font-size:49.64px;font-family:AcherusGrotesque-Black, Acherus Grotesque;font-weight:800;}.cls-13{fill:#fee443;}.cls-14{fill:#4d4e4e;}.cls-15{fill:#b3b2b3;}.cls-15,.cls-16,.cls-17{stroke-width:1.96px;}.cls-16{fill:#333;}.cls-17{fill:#979797;}</style></defs><title>tea-icons</title><path class="cls-1" d="M68.13,169.64c-.36-1.79.36-3.52.54-4.47s4.23-4.77,3.33-6.26-2.5-1.6-2.68-.59-1.73,1-2.86.77-5.24-4.41-7.69-4.41-3.93-1.31-6.07-1.37-10.13-3.63-12.28-5.12-2.16-5.36-2.16-5.36-3.44-5.49-4.33-6.56-.78-3.57-1.55-4.05-4.41-3.87-5.19-5.9a20.22,20.22,0,0,1-1-8.58c.42-2.56,2.8-5.36,2.8-7.45s-.06-4.83-.06-6.73,1.31-7-.06-7.87-3.69.6-5.54.6-4.77,0-4.71-.89,3.4-.66,5.3-1.5,2.75-2.5,4.89-4.71,2.44-3,4.35-2.92,2.92,3.22,4,3.16a43.87,43.87,0,0,0,6.91-2.2c1.14-.48,1.67-2.8,3.64-2.8A21.73,21.73,0,0,1,54.4,86V78a49.52,49.52,0,1,0,21.38,94.2,3.54,3.54,0,0,0-2.29-.81C69.92,171.19,68.49,171.43,68.13,169.64Z"/><path class="cls-2" d="M103.72,123.05A49.52,49.52,0,0,0,54.4,78v8a16.54,16.54,0,0,1,2.23,1.06c2.56,1.49,9.65,3.22,10,5.24s4,3.76.66,3.7-.48,3.1,1,3.1a14.43,14.43,0,0,1,3.29.62c.92.26,1.83.54,2.55.75,1.67.47,7.39,5.18,6.73,6.85s-2.2,6.32-4.71,6.79a5.72,5.72,0,0,0-4.29,5c-.06,1.91-1.84,4.23-1.07,5.9a1.37,1.37,0,0,1,0,1Z"/><path class="cls-1" d="M70.77,126c-.67,2-4.12,5.26-4.37,6.85-.3,1.91,1.73,3.94,1.73,5.66s-.42,4.47-2,2.15-.77-3.16-3.45-5.54-3.28.53-5.66.53-3.82-.23-6-.11-2.15,2.2-2.15,3.87.18,7.57,1.25,8.34,5.37,1.49,5.84.78.66-2.75,1.49-2.8,3.82-1.32,3.7.59-2.44,5.19-.36,5.19,4.11-1.2,4.53.77.48,4.65,2.09,4.65a30.66,30.66,0,0,0,7.86-2.33c.66-.47,2.21-3.81,3.7-3.81s2.08,1.19,3.63.48a9,9,0,0,1,4-1.25c1.43,0,4.53,1.49,5,1s1.85-1.91,2.56-1.49,2.27,1.25,2,1.91-5.54,4.88-6.68,4.94-6.31,3.58-7,3.58-2.92.77-3,2.68-2.08,4.35-2,4.89,6.71-.39,6.77-.4a49.47,49.47,0,0,0,19.79-39.6c0-1.5-.08-3-.21-4.45Z"/><path class="cls-3" d="M74.15,100.46c-.72-.21-1.63-.49-2.55-.75a14.43,14.43,0,0,0-3.29-.62c-1.49,0-4.35-3.16-1-3.1s-.3-1.67-.66-3.7-7.45-3.75-10-5.24A16.54,16.54,0,0,0,54.4,86V127.5L70.77,126a1.37,1.37,0,0,0,0-1c-.77-1.67,1-4,1.07-5.9a5.72,5.72,0,0,1,4.29-5c2.51-.47,4.06-5.12,4.71-6.79S75.82,100.93,74.15,100.46Z"/><path class="cls-4" d="M77.37,167.5c-.06-.54,2-3,2-4.89s2.27-2.68,3-2.68,5.9-3.52,7-3.58,6.38-4.29,6.68-4.94-1.25-1.49-2-1.91-2.08.95-2.56,1.49-3.58-1-5-1a9,9,0,0,0-4,1.25c-1.55.71-2.14-.48-3.63-.48s-3,3.34-3.7,3.81A30.66,30.66,0,0,1,67.36,157c-1.61,0-1.67-2.68-2.09-4.65s-2.44-.77-4.53-.77.24-3.28.36-5.19-2.86-.65-3.7-.59-1,2.08-1.49,2.8-4.76,0-5.84-.78-1.25-6.67-1.25-8.34-.06-3.76,2.15-3.87,3.63.11,6,.11,3-2.92,5.66-.53,1.84,3.22,3.45,5.54,2-.42,2-2.15-2-3.75-1.73-5.66c.25-1.59,3.7-4.85,4.37-6.85L54.4,127.5V86a21.73,21.73,0,0,0-6.59-1.56c-2,0-2.5,2.32-3.64,2.8a43.87,43.87,0,0,1-6.91,2.2c-1.13.06-2.14-3.1-4-3.16S31,87,28.86,89.19s-3,3.88-4.89,4.71-5.24.66-5.3,1.5,2.86.89,4.71.89,4.17-1.49,5.54-.6.06,6,.06,7.87.06,4.64.06,6.73-2.38,4.89-2.8,7.45a20.22,20.22,0,0,0,1,8.58c.78,2,4.41,5.42,5.19,5.9s.65,3,1.55,4.05,4.33,6.56,4.33,6.56,0,3.87,2.16,5.36,10.13,5.06,12.28,5.12,3.63,1.37,6.07,1.37,6.56,4.23,7.69,4.41,2.68.24,2.86-.77,1.79-.9,2.68.59-3.16,5.31-3.33,6.26-.9,2.68-.54,4.47,1.79,1.55,5.36,1.73a3.54,3.54,0,0,1,2.29.81,49.32,49.32,0,0,0,8.36-5.08C84.08,167.11,77.43,168,77.37,167.5Z"/><polyline class="cls-5" points="54.4 77.98 54.4 127.5 103.72 123.05"/><path class="cls-3" d="M69.17,94a24.83,24.83,0,0,1-.63-2.46c0-.73,2.43-1.73,3-1.73s7.44,1.33,8.24,2.09a33.36,33.36,0,0,0,4.45,2.63A8.6,8.6,0,0,1,84.85,97c.2,1.6.8,3.59,2.06,4.19s4,2.52,1.93,2.39-5-1-6.18-2-3.06-3.13-4.39-3.86-4.85-2.32-5.64-2.32A14.85,14.85,0,0,1,69.17,94Z"/><rect class="cls-6" x="195.98" y="123.17" width="89.22" height="56.75"/><path class="cls-7" d="M282.3,126.06v51H198.87v-51H282.3m5.79-5.79h-95v62.55h95V120.27Z"/><polygon class="cls-6" points="195.54 122.59 202.14 75.08 216.46 75.08 223.06 122.59 195.54 122.59"/><path class="cls-7" d="M213.94,78l5.79,41.71H198.87L204.67,78h9.27m5-5.8H199.62l-.69,5-5.8,41.71-.91,6.59h34.16l-.91-6.59-5.8-41.71-.69-5Z"/><polygon class="cls-6" points="222.78 122.59 229.37 75.08 243.69 75.08 250.29 122.59 222.78 122.59"/><path class="cls-7" d="M241.17,78,247,119.69H226.1L231.9,78h9.27m5-5.8H226.85l-.69,5-5.8,41.71-.91,6.59h34.16l-.91-6.59-5.79-41.71-.7-5Z"/><rect class="cls-6" x="386.21" y="105.35" width="53.75" height="71.67"/><rect class="cls-6" x="377.25" y="91.91" width="71.67" height="10.45"/><polygon class="cls-6" points="396.69 77.98 396.69 83.45 396.69 88.93 402.16 88.93 402.16 83.45 424.01 83.45 424.01 88.93 429.48 88.93 429.48 83.45 429.48 77.98 396.69 77.98"/><rect class="cls-7" x="396.69" y="111.6" width="5.48" height="59.18"/><rect class="cls-7" x="410.35" y="111.6" width="5.48" height="59.18"/><rect class="cls-7" x="424.01" y="111.6" width="5.48" height="59.18"/><path class="cls-8" d="M553.19,87.6a24.42,24.42,0,0,1,1.58-1.92A24.42,24.42,0,0,0,553.19,87.6Z"/><path class="cls-8" d="M591.38,115.2a23.59,23.59,0,0,1-5.34,5.4h0A23.59,23.59,0,0,0,591.38,115.2Z"/><path class="cls-9" d="M590.8,123.51a28.71,28.71,0,0,1-37.27,0,24.92,24.92,0,0,0-9.66,19.7V177h56.6V143.21A24.93,24.93,0,0,0,590.8,123.51Z"/><path class="cls-7" d="M551.89,89.56c.41-.68.84-1.33,1.3-2C552.73,88.23,552.3,88.88,551.89,89.56Z"/><path class="cls-7" d="M590.37,86.56a23.75,23.75,0,0,1,3.53,5.82A23.75,23.75,0,0,0,590.37,86.56Z"/><path class="cls-7" d="M594.19,110a23.53,23.53,0,0,0-.29-17.57,23.53,23.53,0,0,1,.29,17.57Z"/><path class="cls-7" d="M593.42,111.73a23.56,23.56,0,0,1-2,3.47A23.56,23.56,0,0,0,593.42,111.73Z"/><path class="cls-7" d="M572.17,78a23.56,23.56,0,0,1,18.2,8.58,23.55,23.55,0,0,0-35.6-.88A23.5,23.5,0,0,1,572.17,78Z"/><circle class="cls-6" cx="572.17" cy="101.56" r="23.58"/><polygon class="cls-10" points="720.67 141.87 725.67 145 724.38 126.94 707.58 133.69 712.34 136.67 695.41 163.75 699.58 171.26 734.91 171.26 734.91 161.45 708.43 161.45 720.67 141.87"/><polygon class="cls-10" points="745.51 97.88 758.93 119.37 754.13 122.37 770.93 129.13 772.22 111.06 767.26 114.17 749.67 86.02 741.35 86.02 723.68 114.29 732 119.49 745.51 97.88"/><polygon class="cls-10" points="795.6 163.75 777.93 135.49 769.61 140.69 782.59 161.45 756.11 161.45 756.11 155.69 741.48 166.35 756.11 177.02 756.11 171.26 791.44 171.26 795.6 163.75"/><rect class="cls-11" x="536.42" y="275.86" width="71.49" height="64.12"/><rect class="cls-3" x="536.42" y="261.57" width="71.49" height="14.3"/><text class="cls-12" transform="translate(558.32 325.11)">2</text><rect class="cls-3" x="550.72" y="252.16" width="10.09" height="18.81" rx="4.21"/><path class="cls-7" d="M556.6,273.16h-1.67a6.4,6.4,0,0,1-6.39-6.4V256.37a6.39,6.39,0,0,1,6.39-6.39h1.67a6.39,6.39,0,0,1,6.39,6.39v10.39A6.4,6.4,0,0,1,556.6,273.16Zm-1.67-18.82a2,2,0,0,0-2,2v10.39a2,2,0,0,0,2,2h1.67a2,2,0,0,0,2-2V256.37a2,2,0,0,0-2-2Z"/><rect class="cls-3" x="583.53" y="252.16" width="10.09" height="18.81" rx="4.21"/><path class="cls-7" d="M589.41,273.16h-1.67a6.41,6.41,0,0,1-6.4-6.4V256.37a6.4,6.4,0,0,1,6.4-6.39h1.67a6.4,6.4,0,0,1,6.39,6.39v10.39A6.4,6.4,0,0,1,589.41,273.16Zm-1.67-18.82a2,2,0,0,0-2,2v10.39a2,2,0,0,0,2,2h1.67a2,2,0,0,0,2-2V256.37a2,2,0,0,0-2-2Z"/><path class="cls-13" d="M38.34,299.25h-25a3.17,3.17,0,0,0-2.89,1.88L.28,324a3.16,3.16,0,0,0,2.89,4.45H48.49A3.17,3.17,0,0,0,51.38,324L41.23,301.13A3.16,3.16,0,0,0,38.34,299.25Z"/><path class="cls-13" d="M95.49,299.25h-25a3.17,3.17,0,0,0-2.89,1.88L57.43,324a3.16,3.16,0,0,0,2.89,4.45h45.32a3.17,3.17,0,0,0,2.89-4.45L98.38,301.13A3.16,3.16,0,0,0,95.49,299.25Z"/><path class="cls-13" d="M64.89,266h-25A3.17,3.17,0,0,0,37,267.9L26.83,290.72a3.16,3.16,0,0,0,2.89,4.45H75a3.16,3.16,0,0,0,2.89-4.45L67.78,267.9A3.16,3.16,0,0,0,64.89,266Z"/><path class="cls-14" d="M250.41,334.94a2.48,2.48,0,0,1-2.48-2.48v-.21l7.11-20.1a2.48,2.48,0,0,1,2.47-2.24h17.3a2.48,2.48,0,0,1,2.47,2.24l7.11,20.1v.21a2.48,2.48,0,0,1-2.48,2.48Z"/><path class="cls-7" d="M274.81,311.09a1.3,1.3,0,0,1,1.29,1.3l7.11,20.07a1.3,1.3,0,0,1-1.3,1.29h-31.5a1.3,1.3,0,0,1-1.3-1.29l7.1-20.07a1.3,1.3,0,0,1,1.3-1.3h17.3m0-2.37h-17.3a3.67,3.67,0,0,0-3.63,3.16l-7,19.79-.14.38v.41a3.67,3.67,0,0,0,3.67,3.66h31.5a3.67,3.67,0,0,0,3.67-3.66v-.41l-.14-.38-7-19.79a3.67,3.67,0,0,0-3.63-3.16Z"/><rect class="cls-14" x="179.73" y="264.38" width="36.46" height="70.56" rx="3.44"/><path class="cls-7" d="M212.76,265.56a2.25,2.25,0,0,1,2.25,2.25V331.5a2.24,2.24,0,0,1-2.25,2.25H183.17a2.25,2.25,0,0,1-2.25-2.25V267.81a2.25,2.25,0,0,1,2.25-2.25h29.59m0-2.37H183.17a4.63,4.63,0,0,0-4.62,4.62V331.5a4.62,4.62,0,0,0,4.62,4.62h29.59a4.62,4.62,0,0,0,4.62-4.62V267.81a4.63,4.63,0,0,0-4.62-4.62Z"/><rect class="cls-14" x="230.88" y="264.38" width="70.56" height="53.51" rx="4.59"/><path class="cls-7" d="M296.85,265.56a3.41,3.41,0,0,1,3.41,3.41V313.3a3.41,3.41,0,0,1-3.41,3.41H235.47a3.41,3.41,0,0,1-3.41-3.41V269a3.41,3.41,0,0,1,3.41-3.41h61.38m0-2.37H235.47A5.79,5.79,0,0,0,229.7,269V313.3a5.78,5.78,0,0,0,5.77,5.77h61.38a5.78,5.78,0,0,0,5.77-5.77V269a5.79,5.79,0,0,0-5.77-5.78Z"/><rect class="cls-2" x="239.4" y="272.9" width="53.51" height="36.46" rx="2.04"/><path class="cls-7" d="M290.88,274.09a.85.85,0,0,1,.85.85v32.39a.85.85,0,0,1-.85.85H241.44a.85.85,0,0,1-.85-.85V274.94a.85.85,0,0,1,.85-.85h49.44m0-2.37H241.44a3.22,3.22,0,0,0-3.22,3.22v32.39a3.22,3.22,0,0,0,3.22,3.22h49.44a3.22,3.22,0,0,0,3.22-3.22V274.94a3.22,3.22,0,0,0-3.22-3.22Z"/><rect class="cls-15" x="384.8" y="242.02" width="56.57" height="99" rx="3.11"/><rect class="cls-16" x="389.46" y="246.68" width="47.25" height="78.54" rx="2.53"/><circle class="cls-17" cx="413.08" cy="333.38" r="4.02"/></svg>