<svg xmlns="http://www.w3.org/2000/svg" viewBox="0 0 225.97 76.01"><defs><style>.cls-1{fill:#3db54a;}</style></defs><title>tea-logo</title><g id="Layer_2" data-name="Layer 2"><path class="cls-1" d="M15.66,36.32H1c-.8,0-1-.24-1-1V32.89c0-.74.25-1,1-1H35.26c.8,0,.92.25.92,1v2.45c0,.74-.18,1-.92,1H20.52v37.6c0,.73-.19,1-.93,1H16.65c-.8,0-1-.25-1-1Z"/><path class="cls-1" d="M42.69,30.55c0-.74.24-1,.92-1h2.76c.68,0,.92.24.92,1V49.47C48.4,47.38,51.53,43,57.18,43c6.58,0,12.17,4,12.17,13.82V73.92c0,.73-.25,1-.93,1H65.66c-.68,0-.92-.25-.92-1V58c0-7.31-3.69-10.87-8.66-10.87-5.35,0-8.79,5.16-8.79,11.3V73.92c0,.73-.24,1-.92,1H43.61c-.68,0-.92-.25-.92-1Z"/><path class="cls-1" d="M81.44,60.9A11.94,11.94,0,0,0,93.3,71.52a16.86,16.86,0,0,0,9.64-3.07,2,2,0,0,1,.8-.31c.19,0,.37.13.62.37l1.16,1.42c.43.55.43.92,0,1.35-2.88,2.82-7.86,4.3-12.4,4.3A16.31,16.31,0,0,1,92.81,43C102.39,43,108,50.7,108,59.91c0,.74-.12,1-.92,1Zm.13-3.2h21.68C103,52.17,99,46.83,92.75,46.83A11.36,11.36,0,0,0,81.57,57.7Z"/><path class="cls-1" d="M166.33,60.9a11.93,11.93,0,0,0,11.85,10.62,16.89,16.89,0,0,0,9.65-3.07,2,2,0,0,1,.79-.31c.19,0,.37.13.62.37l1.17,1.42c.43.55.43.92,0,1.35-2.89,2.82-7.87,4.3-12.41,4.3A16.31,16.31,0,0,1,177.69,43c9.58,0,15.17,7.74,15.17,16.95,0,.74-.12,1-.92,1Zm.12-3.2h21.68c-.24-5.53-4.24-10.87-10.5-10.87A11.36,11.36,0,0,0,166.45,57.7Z"/><path class="cls-1" d="M222.1,69.74a15.16,15.16,0,0,1-12.35,5.84c-5.89,0-10.93-3.63-10.93-10.2s5-9.95,12.59-9.95a27,27,0,0,1,10,2.15c0-7.74-2.27-10.57-8.72-10.57a50.11,50.11,0,0,0-9.46,1,.94.94,0,0,1-.37.06c-.49,0-.67-.31-.8-.92l-.49-1.85c-.18-.67,0-1,.74-1.23A58.62,58.62,0,0,1,212.82,43C223.14,43,226,47.57,226,57.7V73.92c0,.73-.25,1-.92,1h-1.78c-.5,0-.74-.25-.92-1Zm-.74-8.66c-3.13-1.29-5.53-2.21-9-2.21-5.83,0-8.9,2.33-8.9,6.51,0,3.81,2.76,6.57,7.74,6.57,4.23,0,8.23-2.88,10.19-5.77Z"/><path class="cls-1" d="M154,41.92c-.4,3.67-.7,7.59-.82,11.73a148,148,0,0,0,.82,20.7,1.35,1.35,0,0,1-.36,1.47,1.06,1.06,0,0,1-.71.19h-4.32c-.83,0-1.07-.37-1.07-1.66a133.69,133.69,0,0,0,.92-20.61c-.14-4.2-.47-8.15-.92-11.82"/><path class="cls-1" d="M150.78,44.22s-11.06-22.11,11.05-33.16L183.94,0S172.89,44.22,150.78,44.22Z"/><path class="cls-1" d="M152.77,43.43s-11.87,9-20.89-2.84l-9-11.87S150.3,30.33,152.77,43.43Z"/></g></svg>