<svg id="Layer_1" data-name="Layer 1" xmlns="http://www.w3.org/2000/svg" viewBox="0 0 533.08 179.06"><defs><style>.cls-1{fill:#099e49;}</style></defs><title>tea-logo</title><path class="cls-1" d="M83.76,77.08H3.87C.86,77.08,0,77.94,0,81V94c0,3,.86,3.87,3.87,3.87H32.13v75.73c0,3,.86,3.87,3.87,3.87H51.63c3,0,3.87-.86,3.87-3.87V97.88H83.76c3,0,3.87-.86,3.87-3.87V81C87.63,77.94,86.77,77.08,83.76,77.08Z"/><path class="cls-1" d="M139,102.9c-7.89,0-12.76,2.87-17.21,6.88V75.51c0-3-.86-3.88-3.87-3.88h-14.2c-3,0-3.87.86-3.87,3.88v98.1c0,3,.86,3.87,3.87,3.87h14.2c3,0,3.87-.86,3.87-3.87V141.05c0-13.05,2.73-18.65,11.62-18.65,8.6,0,11,5.6,11,18.65v32.56c0,3,.86,3.87,3.87,3.87h14.2c3,0,3.88-.86,3.88-3.87V136.75C166.37,110.36,155.32,102.9,139,102.9Z"/><path class="cls-1" d="M218.42,102.9a38.19,38.19,0,0,0-38,38.15c0,20.94,17.06,38,38.72,38,10.61,0,22.52-3.59,29.12-10.19,1.57-1.57,1-2.72-.72-4.87L242,157c-.87-1.15-1.58-1.58-2.3-1.58s-1.72.58-3.3,1.29a38.06,38.06,0,0,1-16.78,3.73c-7.6,0-14-5.16-16.49-12.48H250.7c3,0,3.58-1,3.58-4.16C254.28,122.4,243,102.9,218.42,102.9ZM203.65,134c1.29-6,4.59-13.34,14.34-13.34,9.33,0,12.48,7.32,13.92,13.34Z"/><path class="cls-1" d="M359.09,125.26c.24-7.92.74-15.47,1.43-22.66C407.44,93.83,430.89,0,430.89,0L379.26,25.81C347,42,345,68.19,348,85.58c-19.6-16.16-59.75-18.51-59.75-18.51l21.07,27.71c12.6,16.57,27.57,15.69,37.58,12.31.54,5.87.94,12,1.15,18.39a311.27,311.27,0,0,1-2.14,48.13c0,3,.55,3.87,2.49,3.87H358.5a2.49,2.49,0,0,0,1.66-.45,3.13,3.13,0,0,0,.83-3.42A348.22,348.22,0,0,1,359.09,125.26Z"/><path class="cls-1" d="M417.63,102.9a38.2,38.2,0,0,0-38,38.15c0,20.94,17.07,38,38.73,38,10.61,0,22.51-3.59,29.11-10.19,1.58-1.57,1-2.72-.72-4.87l-5.59-7c-.86-1.15-1.58-1.58-2.29-1.58-.87,0-1.73.58-3.3,1.29a38.12,38.12,0,0,1-16.79,3.73c-7.6,0-14-5.16-16.49-12.48H449.9c3,0,3.58-1,3.58-4.16C453.48,122.4,442.15,102.9,417.63,102.9ZM402.86,134c1.28-6,4.58-13.34,14.34-13.34,9.32,0,12.48,7.32,13.91,13.34Z"/><path class="cls-1" d="M499.09,102.9a156.05,156.05,0,0,0-25.39,2.72c-2.58.72-2.87,1.73-2.15,4.59l2.44,9.61c.86,3.44,1.14,3.59,4.16,3.59a122.45,122.45,0,0,1,19.93-1.87c11.33,0,13.05,4,13.05,13-5.3-1.71-14.48-2.72-19.07-2.72-13.48,0-26.39,7.6-26.39,23.09,0,16.64,12.91,24.1,24.95,24.1,14.35,0,20.37-5.45,24.67-9l1.44,3.59c1.29,3,2.15,3.87,4.3,3.87h8.18c3,0,3.87-.86,3.87-3.87V138C533.08,116.38,529.92,102.9,499.09,102.9Zm12,52.64c-4.3,4.3-8.89,7.17-13.48,7.17-8.17,0-10.18-5.31-10.18-7.75,0-3.3,2-7.89,10.18-7.89,4.59,0,8.32,1,13.48,2.3Z"/></svg>