<svg id="Layer_1" data-name="Layer 1" xmlns="http://www.w3.org/2000/svg" viewBox="0 0 1200 1200"><defs><style>.cls-1{fill:#f2f2f2;}.cls-2{fill:#0079a9;}.cls-3{fill:none;}.cls-4{fill:#c0272d;}.cls-5{fill:#f37121;}.cls-6{fill:#ffcf01;}.cls-7{fill:#d73828;}.cls-8{fill:#6b408e;}.cls-9{fill:#00a04f;}</style></defs><title>pride-logo</title><rect class="cls-1" x="-0.8" y="-0.5" width="1200" height="1200"/><path class="cls-2" d="M264.66,853.64H200V709.79q0-39.59,20.75-64.49a84.89,84.89,0,0,1,30.34-22.82A89.47,89.47,0,0,1,288.87,614q38.55,0,65,25.93t26.45,63.63q0,36.66-26.28,63.28t-62.24,26.63q-5.88,0-17.29-1.21V721q8,6.4,15.91,6.4a23.05,23.05,0,0,0,17.2-7.44,24.52,24.52,0,0,0,7.17-17.63A23.26,23.26,0,0,0,307.37,685a24.75,24.75,0,0,0-17.81-7.17q-24.9,0-24.9,34.4Z"/><path class="cls-2" d="M503.26,615.74V684.9q-6.74-3.81-12.27-3.81-17.64,0-17.64,27v81.78H408.69V695.62q0-37.35,20.4-59.57t54.46-22.22A132.43,132.43,0,0,1,503.26,615.74Z"/><path class="cls-2" d="M999.31,714.12h-98a45.31,45.31,0,0,1,.86-30.61H935q-3.47-19.18-21.61-19.19-12.11,0-19.71,10.29T886.06,701q0,16.78,7.35,27.15t19.28,10.37q9.67,0,18.67-9.68l36.83,44.26Q942.42,793.3,911,793.3q-38.38,0-64.49-25.76t-26.11-63.8q0-37.86,26.37-64t64.75-26.11q37.51,0,63,25.5T1000,702Q1000,705.82,999.31,714.12Z"/><path class="cls-3" d="M616.4,716.34c2.51,19.68,10.94,36.72,25.53,51a83.49,83.49,0,0,0,6.31,5.53A89.84,89.84,0,0,1,616.4,716.34Z"/><path class="cls-3" d="M727.41,616.16a1.55,1.55,0,0,0,0,.21,1.55,1.55,0,0,1,0-.21Z"/><path class="cls-3" d="M728.67,737.77h0a33.46,33.46,0,0,0,6.61-6A33.46,33.46,0,0,1,728.67,737.77Z"/><path class="cls-3" d="M677.49,788.89c-1.63-.51-3.26-1-4.84-1.65,1.56.62,3.12,1.24,4.73,1.77h0Z"/><path class="cls-3" d="M615.47,703.48s0,.09,0,.14c0-2.82.14-5.58.38-8.31C615.62,698,615.47,700.72,615.47,703.48Z"/><path class="cls-3" d="M665.11,766.83c-1.51-1-3-2-4.41-3.08l-1-.77c-1.3-1-2.56-2.05-3.8-3.14l-1.28-1.16c-1.15-1.06-2.27-2.14-3.36-3.27-.44-.47-.87-1-1.3-1.44-1-1.13-2-2.26-3-3.45-.37-.45-.7-.94-1.06-1.41a74.41,74.41,0,0,1-4.41-6.42c-.57-.93-1.17-1.84-1.7-2.79s-1-1.89-1.44-2.85-1.11-2.19-1.61-3.32c-.41-.93-.78-1.89-1.16-2.84-.47-1.21-.93-2.43-1.34-3.66-.31-.94-.6-1.88-.88-2.83-.39-1.33-.73-2.68-1-4-.21-.9-.42-1.8-.6-2.72-.29-1.53-.51-3.08-.71-4.64-.1-.78-.23-1.55-.31-2.34-.22-2.33-.35-4.67-.36-7.06v.14c0,21.18,7.2,38.53,22,53a73.44,73.44,0,0,0,28.49,17.61A75.2,75.2,0,0,1,665.33,767Z"/><path class="cls-4" d="M704,628.82h0Z"/><path class="cls-4" d="M706.47,665.26h-.39a54.35,54.35,0,0,1,15.21,2.45"/><path class="cls-4" d="M717,727.41a22.38,22.38,0,0,1-5,1.57,22.38,22.38,0,0,0,5-1.57Z"/><path class="cls-4" d="M725.8,719.52a29.59,29.59,0,0,0,3.2-7.3A30,30,0,0,1,725.8,719.52Z"/><path class="cls-4" d="M720,725.66a19.57,19.57,0,0,1-3.06,1.75h0A19.57,19.57,0,0,0,720,725.66Z"/><path class="cls-4" d="M768.63,686.46h0a.85.85,0,0,0,0,.17A.85.85,0,0,1,768.63,686.46Z"/><path class="cls-4" d="M766.63,680.4c.75,2,1.44,4,2,6.06h0C768.07,684.39,767.38,682.38,766.63,680.4Z"/><polygon class="cls-4" points="688.19 776.61 688.2 776.61 688.2 776.61 688.19 776.61"/><path class="cls-3" d="M727.41,616.14v0h0Z"/><path class="cls-4" d="M668.11,785.3a90.05,90.05,0,0,1-9.34-4.9A84.78,84.78,0,0,0,668.11,785.3Z"/><path class="cls-4" d="M615.47,703.74c0,.86.1,1.68.12,2.53,0-.88-.11-1.76-.11-2.65C615.48,703.66,615.47,703.7,615.47,703.74Z"/><polygon class="cls-4" points="688.2 776.61 688.2 776.61 688.2 776.61 688.2 776.61"/><path class="cls-4" d="M726.2,739.32c.83-.47,1.66-1,2.47-1.55h0C727.86,738.34,727,738.85,726.2,739.32Z"/><path class="cls-4" d="M704,753.63l-.12.19h0Z"/><path class="cls-4" d="M703.91,753.82c-1.42,2.4-2.86,4.78-4.38,7.11,1.51-2.33,3-4.71,4.39-7.11Z"/><path class="cls-4" d="M694.85,767.75h0c1.59-2.23,3.14-4.49,4.63-6.79C698,763.27,696.44,765.52,694.85,767.75Z"/><path class="cls-4" d="M708.33,562.6c-2.62-4.94-5.42-9.77-8.44-14.45C702.91,552.83,705.71,557.66,708.33,562.6Z"/><path class="cls-4" d="M714,574.22c-1.77-4-3.69-7.82-5.71-11.62C710.35,566.4,712.27,570.27,714,574.22Z"/><path class="cls-4" d="M770.55,665.9c.11.19.23.36.33.55V654.27C770.88,658.17,770.75,662,770.55,665.9Z"/><path class="cls-5" d="M770.88,654.27c0-4.37-.17-8.71-.41-13a238.53,238.53,0,0,0-2.77-25.4,233.56,233.56,0,0,0-13-47.2q-2.94-7.53-6.38-14.81C710.53,474,629.22,418.54,535.15,418.54c-112.67,0-207.07,79.47-230.24,185.29a98.68,98.68,0,0,1,14.45,3.26C341,507.87,429.53,433.35,535.15,433.35c85.66,0,160,49,196.67,120.49a216,216,0,0,1,22.63,74.09q1.17,9.83,1.46,19.9c.06,2.14.16,4.28.16,6.44v49.21a50.63,50.63,0,0,1-50.43,50.43c-.58,0-1.14-.07-1.72-.09-1.42,2.4-2.88,4.78-4.39,7.11,1.52-2.33,3-4.71,4.38-7.11a50.4,50.4,0,0,1,1.73-100.77c.28,0,.55,0,.83.05h0a51,51,0,0,1,6.47.55c.52.08,1,.15,1.56.24.88.15,1.75.34,2.61.54.54.12,1.08.27,1.62.42.85.22,1.7.45,2.53.72V640.16a65.24,65.24,0,0,0-14.82-1.9l-.83,0a65.2,65.2,0,0,0-10.79,129.51c1.59-2.23,3.16-4.48,4.65-6.78-1.49,2.3-3,4.56-4.63,6.79a65.22,65.22,0,0,0,76-64.28v-37c-.1-.19-.22-.36-.33-.55C770.75,662,770.88,658.17,770.88,654.27Z"/><path class="cls-6" d="M758.51,756.77a75.42,75.42,0,0,1-18.22,13.33l-.29.5a72.9,72.9,0,0,0,17.48-11.68C757.82,758.2,758.18,757.49,758.51,756.77Z"/><path class="cls-4" d="M715,778c1.14-.13,2.27-.3,3.41-.48l0,0C717.27,777.71,716.13,777.89,715,778Z"/><path class="cls-4" d="M718.38,777.56c.55-.09,1.1-.2,1.65-.3-.53.11-1.08.16-1.62.25Z"/><path class="cls-6" d="M721,777.07a78.43,78.43,0,0,0,17.52-5.7c.51-.24,1-.53,1.47-.77l.29-.5A74.36,74.36,0,0,1,721,777.07Z"/><path class="cls-4" d="M683,775.13h0c.68.21,1.37.38,2.06.58h0C684.36,775.52,683.65,775.35,683,775.13Z"/><path class="cls-4" d="M685,775.72c1.05.3,2.08.63,3.15.89-1.06-.25-2.09-.59-3.13-.89Z"/><path class="cls-4" d="M680.85,774.42l-.06,0c.72.25,1.45.51,2.19.74h0C682.24,774.91,681.55,774.66,680.85,774.42Z"/><path class="cls-4" d="M677.49,788.89h0q5.6-5.91,10.71-12.28Q683.1,783,677.49,788.89Z"/><path class="cls-6" d="M778.77,686.77a1.05,1.05,0,0,1,.05.19l-.05-.21Z"/><path class="cls-6" d="M685,775.72c-.69-.2-1.38-.37-2.06-.58s-1.47-.49-2.19-.74a73.44,73.44,0,0,1-28.49-17.61c-14.81-14.52-22-31.87-22-53v-.14c0-20.39,7.23-37.59,22-52.56S684,628.82,704,628.82h1.19a103.27,103.27,0,0,1,16.1,1.38V615q-11.58-1-17.29-1-36,0-62.24,26.62a90.29,90.29,0,0,0-20.43,31c-.68,1.79-1.34,3.59-1.91,5.43-.21.68-.39,1.36-.58,2-.59,2.07-1.12,4.17-1.55,6.3-.14.66-.24,1.33-.36,2-.41,2.34-.78,4.7-1,7.11,0,.26,0,.52-.06.78-.24,2.73-.38,5.49-.38,8.31,0,.89.08,1.77.11,2.65,0,1.64.1,3.26.22,4.86.12,1.77.37,3.48.59,5.21a89.84,89.84,0,0,0,31.84,56.56c1.27,1,2.54,2,3.84,3,.29.22.58.44.88.65,1.7,1.22,3.44,2.4,5.22,3.5l.59.35a90.05,90.05,0,0,0,9.34,4.9c.95.43,1.87.92,2.84,1.31.55.23,1.13.41,1.7.63,1.58.61,3.21,1.14,4.84,1.65q5.6-5.91,10.71-12.28h0C687.12,776.35,686.09,776,685,775.72Z"/><path class="cls-6" d="M795.5,642.18A262,262,0,0,0,793,615.85a259,259,0,0,0-17.31-62C736.33,459.76,643.5,393.61,535.15,393.61c-126.51,0-231.94,90.15-255.64,209.7a101.42,101.42,0,0,1,10.66-.57c1.54,0,3.07,0,4.59.12,23.71-111,122.47-194.43,240.39-194.43,99.79,0,185.83,59.79,224.31,145.41q3.27,7.29,6.08,14.81a244.24,244.24,0,0,1,15.15,73.57v61.94c0,1.76-.18,3.49-.31,5.22-.13,1.35-.23,2.73-.41,4-.09.65-.21,1.29-.31,1.94-.24,1.55-.51,3.08-.82,4.57a75.19,75.19,0,0,1-20.33,36.84c-.33.72-.69,1.43-1,2.15A72.9,72.9,0,0,1,740,770.6c-.5.24-1,.53-1.47.77a78.43,78.43,0,0,1-17.52,5.7l-1,.19c-.55.1-1.1.21-1.65.3-1.14.18-2.27.35-3.41.48a75.77,75.77,0,0,1-9.46.66l-.34,0c-2,0-3.92-.14-5.85-.29-.89-.08-1.77-.15-2.65-.26-1.49-.18-3-.41-4.45-.68s-2.69-.53-4-.84h0q-5.1,6.36-10.71,12.28a92,92,0,0,0,16.65,3.56,106.57,106.57,0,0,0,12.53.84h.27a86.92,86.92,0,0,0,13.88-1.12c2.12-.37,4.2-.83,6.26-1.34A90.15,90.15,0,0,0,792.93,725c.62-2.55,1.17-5.12,1.57-7.74s.66-5.6.82-8.45c.29-3.65.49-7.38.49-11.24V654.27C795.81,650.21,795.68,646.19,795.5,642.18Z"/><path class="cls-4" d="M706.08,665.25h0Z"/><path class="cls-7" d="M745.91,652.2q-.07-6.23-.5-12.36h0c-.41-6.07-1-12.08-1.95-18a209.07,209.07,0,0,0-12.32-45.18c-31-77.95-107.14-133.2-196-133.2-101.24,0-186,71.76-206.21,167.08a99.09,99.09,0,0,1,13.7,7.08c17.17-90.72,96.8-159.34,192.51-159.34,3.2,0,6.37.09,9.53.24,1,.05,2.07.14,3.11.21,2.11.13,4.22.28,6.3.48,1.22.11,2.43.26,3.64.4,1.9.22,3.8.45,5.68.72l3.76.59c1.83.3,3.64.63,5.44,1,1.26.25,2.51.5,3.76.77,1.79.38,3.58.8,5.35,1.23,1.22.3,2.43.59,3.64.9,1.84.49,3.66,1,5.48,1.56,1.1.33,2.21.63,3.31,1,2.15.68,4.28,1.42,6.4,2.17.73.26,1.48.49,2.2.75,2.79,1,5.54,2.11,8.26,3.26,1,.42,2,.89,3,1.34,1.73.76,3.45,1.52,5.15,2.33,1.2.56,2.37,1.16,3.55,1.75,1.48.75,3,1.49,4.43,2.27,1.23.66,2.45,1.34,3.67,2s2.73,1.55,4.08,2.35,2.47,1.48,3.69,2.24,2.56,1.63,3.83,2.46,2.45,1.61,3.66,2.44,2.42,1.71,3.63,2.58,2.42,1.73,3.61,2.63,2.25,1.76,3.37,2.65,2.42,1.89,3.61,2.87c.65.55,1.27,1.12,1.92,1.67,2.78,2.37,5.49,4.83,8.14,7.35.84.8,1.7,1.59,2.53,2.41,1.23,1.22,2.43,2.48,3.63,3.73.82.85,1.65,1.7,2.45,2.57,1.19,1.29,2.35,2.6,3.5,3.91.77.87,1.54,1.75,2.29,2.64q1.71,2,3.38,4.11c.7.87,1.39,1.76,2.08,2.64,1.11,1.44,2.22,2.9,3.29,4.37.61.83,1.2,1.68,1.8,2.53,1.11,1.56,2.21,3.13,3.27,4.73.45.68.87,1.37,1.31,2,3,4.68,5.82,9.51,8.44,14.45,2,3.8,3.94,7.67,5.71,11.62.3.66.61,1.32.9,2,.83,1.9,1.61,3.82,2.37,5.75.33.82.65,1.63,1,2.45q1.08,2.85,2.08,5.74c.3.87.59,1.74.88,2.62.64,1.93,1.26,3.88,1.84,5.84.25.85.49,1.71.73,2.57.56,2,1.12,4.05,1.62,6.1.18.73.34,1.46.51,2.19.52,2.21,1,4.43,1.47,6.67v0a1.55,1.55,0,0,0,0,.21q1.53,7.85,2.43,15.9a.68.68,0,0,1,0,.14h0a206.63,206.63,0,0,1,1.22,21.09V655c0,1.66,0,5,0,5V695.1c0,1.92-.08,3.74-.19,5.5,0,.43-.06.85-.1,1.27-.14,1.73-.33,3.4-.59,5,0,0,0,0,0,0a44.81,44.81,0,0,1-1,4.41l-.27.93a29.59,29.59,0,0,1-3.2,7.3c-.13.21-.26.42-.4.63a20.37,20.37,0,0,1-4.85,5.14c-.16.12-.33.25-.51.37a19.57,19.57,0,0,1-3.06,1.75,22.38,22.38,0,0,1-5,1.57h-.11a24.68,24.68,0,0,1-2.66.38c-1,.09-2,.13-3,.13a24.74,24.74,0,0,1-17.81-7.17A23.06,23.06,0,0,1,681,705.12a24.43,24.43,0,0,1,7.18-17.72,23.19,23.19,0,0,1,17.2-7.35q7.95,0,15.91,6.23V667.7a54.35,54.35,0,0,0-15.21-2.45h-.7a38.08,38.08,0,0,0-27.8,11.81,39.46,39.46,0,0,0-11.39,28.07,38,38,0,0,0,12,27.87,39.74,39.74,0,0,0,28.1,11.33c.91,0,1.93,0,3-.11,1.34-.09,2.79-.25,4.31-.5l.14,0a40.49,40.49,0,0,0,4.7-1.09l.15,0a37.53,37.53,0,0,0,5-1.87l.07,0c.84-.38,1.67-.81,2.5-1.28l.08,0c.83-.47,1.66-1,2.47-1.55a33.46,33.46,0,0,0,6.61-6l0,0c.48-.58,1-1.18,1.42-1.8.09-.13.18-.27.28-.4.37-.52.74-1.06,1.09-1.61l.39-.63c.31-.51.61-1,.91-1.56l.42-.8c.27-.51.53-1,.78-1.57.15-.31.29-.62.43-.94.23-.53.46-1.07.68-1.62.14-.35.27-.71.41-1.07.2-.55.4-1.11.59-1.69.13-.39.26-.79.38-1.19.18-.58.34-1.18.5-1.78.12-.43.23-.85.34-1.29.15-.62.29-1.26.42-1.91.1-.46.2-.91.28-1.38.13-.67.24-1.36.35-2.06.07-.48.15-.95.22-1.44.1-.74.18-1.5.26-2.27,0-.49.11-1,.15-1.46.08-.86.13-1.75.18-2.63,0-.45.06-.88.08-1.33q.09-2,.09-4.2V652.23Z"/><polygon class="cls-3" points="562.11 617.47 562.11 632.28 562.24 632.28 562.24 617.47 561.01 617.47 561.01 617.47 562.11 617.47"/><path class="cls-3" d="M567.42,560.44a17.76,17.76,0,0,0-24.91,0c-3.51,3.38-5.07,6.83-5.07,11.21,0,4.93,1.39,8.45,4.48,11.4,2.06,2,5.64,4.56,13,4.56,6.66,0,10.21-2.1,12.36-4,.94-1.08,1.87-2.17,2.84-3.23a15.46,15.46,0,0,0,2.32-8.78C572.48,567.27,570.92,563.82,567.42,560.44Z"/><path class="cls-3" d="M562.11,636.3l.13-.27v-3.75h-.13Z"/><path class="cls-3" d="M562.24,615.52c-.41.65-.84,1.29-1.23,1.94h1.23Z"/><path class="cls-3" d="M562.11,770v5h2.44C563.71,773.38,562.89,771.72,562.11,770Z"/><path class="cls-2" d="M586.94,703.17c0,2.14.07,4.28.18,6.4"/><path class="cls-4" d="M568,583.05a15.11,15.11,0,0,0,2.16-2.62c-1,1.06-1.9,2.15-2.84,3.23C567.55,583.46,567.79,583.25,568,583.05Z"/><polygon class="cls-4" points="561.01 617.47 547.29 617.47 547.29 617.47 561.01 617.47 561.01 617.47"/><path class="cls-8" d="M850.61,783.49a166.91,166.91,0,0,1-289,6.36h0a165,165,0,0,1-8-14.81c-2.31-4.84-4.41-9.8-6.26-14.87a166.26,166.26,0,0,1-10-57V617.46H522.46v85.71A180.94,180.94,0,0,0,537.27,775V775h0c2.18,5.05,4.5,10,7.11,14.81a181.83,181.83,0,0,0,318.78,1.6A99.18,99.18,0,0,1,850.61,783.49Z"/><path class="cls-2" d="M586.48,564.73a30,30,0,0,0-8.78-15,32.58,32.58,0,0,0-45.48,0q-9.59,9.24-9.59,21.87,0,13.49,9.08,22.13c5.61,5.35,12.72,8.18,21.26,8.57.66,0,1.31.07,2,.07q14.17,0,23.26-8.64c.13-.13.24-.27.37-.39a33.43,33.43,0,0,0,2.64-3,29.68,29.68,0,0,0,6.06-18.75A30.21,30.21,0,0,0,586.48,564.73Z"/><polygon class="cls-4" points="562.11 789.85 561.58 789.85 561.58 789.85 562.11 789.85 562.11 789.85"/><path class="cls-2" d="M831.9,765.36c-23,48-71.62,81.21-127.82,81.21-48.49,0-91.36-24.72-117-62.34a144.3,144.3,0,0,1-24.92-81.06l-.09-66.87V617.47H547.29v28.71l.09,57A158.43,158.43,0,0,0,562.11,770c.78,1.69,1.6,3.35,2.44,5a159.3,159.3,0,0,0,8.53,14.81c28,43,76.27,71.55,131,71.55,60,0,112.27-34.29,138.57-84.48A100.44,100.44,0,0,1,831.9,765.36Z"/><path class="cls-9" d="M816,736.83a117,117,0,0,1-228.88-27.26c-.11-2.12-.18-4.26-.18-6.4s.18-61,.18-61V617.46H572.31v92.6a131.8,131.8,0,0,0,252.62,45.38A99,99,0,0,1,816,736.83Z"/><path class="cls-2" d="M261.42,542.94l.06-.15L231.06,518c-2.45-2-3.8-3.42-4.37-4.8a5.6,5.6,0,0,1,0-4.39c1.64-4,4.94-4.92,8.74-3.89l50,13.55-3,7.38L237.58,513.3l-.06.15,32,26.41c3.93,3.29,5.17,4.78,3.87,7.94s-3.26,3.42-8.26,2.94l-41.43-3.83-.06.15,40.72,22.67-3,7.38-45.48-25.86c-3.51-2-4.38-5.42-3.23-8.21,1.27-3.09,3.28-4.55,8.62-4Z"/><path class="cls-2" d="M317,476.74c-10.11,12.37-28.85,14.94-41.71,4.42s-14.07-29.39-4-41.76S300.22,424.52,313,435,327.09,464.38,317,476.74Zm-9-35.57c-9.71-7.95-23.37-6.69-31.15,2.83s-6.08,23.14,3.51,31,23.42,6.62,31.11-2.78S317.69,449.11,308,441.17Z"/><path class="cls-2" d="M363.13,394.58c6.05-1.63,9.91.81,13.71,6.11l9.4,13.11L380,418.26l-9.26-12.91c-3.14-4.37-8.06-5.35-13.42-1.51L350.19,409,346,403.15l5.1-3.66c5.56-4,7.4-9.52,3.89-14.42-3.09-4.31-9-5-13.49-1.76-5.5,3.95-6.48,10.27-2.87,15.3L362,431.18l-6.22,4.47L333.6,404.73c-6.88-9.6-5.74-20.45,3.73-27.24,8.21-5.89,18.43-4.5,23.75,2.91C364.31,384.9,365.37,389.46,363.13,394.58Z"/><path class="cls-2" d="M439.47,343.57c-10.51-3.9-14.78-3.7-20.28-1.65-11.37,4.25-17,16.8-12.65,28.56,4.31,11.53,16.67,17.61,28.27,13.28,10.23-3.82,16.43-13.53,13.07-24.89l-18.63,7-2.51-6.72,26.11-9.75,1.85,5c5.73,15.34-2.95,30.76-17.38,36.15a29.78,29.78,0,0,1-38.26-17.21c-5.81-15.57,2.66-32.48,17.62-38.06,9.62-3.6,16.64-2.74,25.66,1.38Z"/><path class="cls-2" d="M529.42,371.11l-7.63.71L519.42,346,499,347.89l-.66-7.14,20.45-1.88-.29-3.16c-1-10.8-7.1-14-13.1-13.45-7.22.67-11.27,6.52-10.5,14.88L498.26,374l-7.63.7-3.35-36.43c-1.14-12.42,6-22.08,17.43-23.13s20.2,7,21.36,19.56Z"/><path class="cls-2" d="M592.92,365.56l.17,0,6.72-45.29,7.57,1.12L599.73,373c-.42,2.82-2.48,5.07-6.59,4.46a7.52,7.52,0,0,1-4-1.59c-1-.8-1.74-2.15-2.69-5.17l-13.89-44.08-.16,0-6.87,46.26-7.57-1.12,7.45-50.21c.67-4.52,3.57-6.31,7.6-5.71a6.6,6.6,0,0,1,4,1.91c1,1,2.08,3.19,3.22,7.15Z"/><path class="cls-2" d="M678.05,344.84l-2.63,6.67-13.11-5.16L644,392.75l-7.13-2.8,18.27-46.41-13.12-5.16,2.63-6.67Z"/><path class="cls-2" d="M701.86,426c-13-9.33-16.67-27.88-7-41.36s28.48-15.83,41.44-6.49,16.61,27.94,6.94,41.36S714.81,435.32,701.86,426Zm35-11.16c7.33-10.18,5.25-23.73-4.73-30.92s-23.46-4.66-30.7,5.39-5.19,23.78,4.66,30.88S729.48,425,736.82,414.82Z"/><path class="cls-2" d="M796.08,433.12,763.8,457c-4.77,3.54-6.63,9-2.41,14.67s10,5.5,14.74,2l32.27-23.92L813,455.9l-32.27,23.92c-4.78,3.54-6.64,9-2.41,14.67s10,5.5,14.73,2l32.28-23.92,4.56,6.15-32.34,24c-8,6-18.69,4.62-24.36-3-3.74-5-5.49-10.13-3.12-16.65-7.11.39-11.34-2.86-15-7.83-5.63-7.59-3.94-18.18,4.18-24.19l32.33-24Z"/><path class="cls-2" d="M818.48,566.69l0,.16,43-15.71,2.62,7.19-49,17.89c-2.68,1-5.64.24-7.07-3.66a7.66,7.66,0,0,1-.53-4.32c.25-1.22,1.06-2.56,3.26-4.84L843,530.17l-.06-.16-43.93,16-2.63-7.2L844,521.45c4.29-1.57,7.25.13,8.65,3.95a6.63,6.63,0,0,1,.23,4.43c-.45,1.38-1.82,3.35-4.75,6.25Z"/></svg>