<svg id="Layer_1" data-name="Layer 1" xmlns="http://www.w3.org/2000/svg" viewBox="0 0 1200 1200"><defs><style>.cls-1{fill:#f2f2f2;}.cls-2{fill:#231f20;}.cls-3{fill:#fff;}.cls-4{fill:none;}</style></defs><title>ss-logo</title><rect class="cls-1" x="-0.8" y="-0.5" width="1200" height="1200"/><path class="cls-2" d="M178.86,782.05l-9.25,7.37a11.86,11.86,0,0,0-8.75-3.75c-6.5,0-12.25,4.62-12.25,10.87v.63c0,5.5,3.88,9.25,11.37,9.75,28.75,1.75,42,15.24,42,33.12v1.24c-.63,18.5-17.25,33.25-37.12,33.25A35.76,35.76,0,0,1,138,862.78l9.62-7.37c4.25,4.75,10.37,7.12,17.62,7.12,13.13,0,24.37-9.12,24.75-21.49v-.88c0-16.75-16.5-19.87-30.74-21.25-13.25-1.25-22.75-9.49-22.75-21.37v-.62c.37-12.37,11.62-22.37,24.74-22.37A23.5,23.5,0,0,1,178.86,782.05Z"/><path class="cls-2" d="M210.6,774.55l12.49.12a10.54,10.54,0,0,1,2-.12,37.49,37.49,0,1,1,0,75h-2v25H210.6Zm12.49,12.87v49.74h2a24.94,24.94,0,1,0,0-49.87A9.75,9.75,0,0,0,223.09,787.42Z"/><path class="cls-2" d="M321,774.55a50,50,0,1,1-50,50A50,50,0,0,1,321,774.55Zm.12,87.73a37.62,37.62,0,1,0-37.62-37.62A37.5,37.5,0,0,0,321.07,862.28Z"/><path class="cls-2" d="M429.42,774.55a50,50,0,1,1-50,50A50,50,0,0,1,429.42,774.55Zm.13,87.73a37.62,37.62,0,1,0-37.62-37.62A37.49,37.49,0,0,0,429.55,862.28Z"/><path class="cls-2" d="M492.9,774.55h12.5v62.61l36-62.61h14.5l-28.74,50,28.74,50h-14.5L519.9,837.16l-14.5,25.25v12.12H492.9Z"/><path class="cls-2" d="M609.25,874.53h-12.5V848.91l-33.87-74.36H577l25.87,58,25.74-58h13.75l-33.12,75.11Z"/><path class="cls-2" d="M752.22,782.05,743,789.42a11.86,11.86,0,0,0-8.75-3.75c-6.5,0-12.25,4.62-12.25,10.87v.63c0,5.5,3.88,9.25,11.37,9.75,28.75,1.75,42,15.24,42,33.12v1.24c-.63,18.5-17.25,33.25-37.12,33.25a35.75,35.75,0,0,1-26.87-11.75l9.62-7.37c4.25,4.75,10.37,7.12,17.62,7.12,13.13,0,24.37-9.12,24.75-21.49v-.88c0-16.75-16.5-19.87-30.75-21.25-13.24-1.25-22.74-9.49-22.74-21.37v-.62c.37-12.37,11.62-22.37,24.74-22.37A23.5,23.5,0,0,1,752.22,782.05Z"/><path class="cls-2" d="M784,774.55l12.5.12a10.54,10.54,0,0,1,2-.12,37.49,37.49,0,0,1,0,75h-2v25H784Zm12.5,12.87v49.74h2a24.94,24.94,0,1,0,0-49.87A9.75,9.75,0,0,0,796.45,787.42Z"/><path class="cls-2" d="M894.31,774.55a50,50,0,1,1-50,50A50,50,0,0,1,894.31,774.55Zm.12,87.73a37.62,37.62,0,1,0-37.62-37.62A37.5,37.5,0,0,0,894.43,862.28Z"/><path class="cls-2" d="M944.17,774.55h50v12.5H975.41v87.48h-12.5V787.05H944.17Z"/><path class="cls-2" d="M1040.39,782.05l-9.24,7.37a11.86,11.86,0,0,0-8.75-3.75c-6.5,0-12.25,4.62-12.25,10.87v.63c0,5.5,3.87,9.25,11.37,9.75,28.75,1.75,42,15.24,42,33.12v1.24c-.62,18.5-17.24,33.25-37.11,33.25a35.75,35.75,0,0,1-26.87-11.75l9.62-7.37c4.25,4.75,10.37,7.12,17.62,7.12,13.12,0,24.37-9.12,24.75-21.49v-.88c0-16.75-16.5-19.87-30.75-21.25-13.25-1.25-22.74-9.49-22.74-21.37v-.62c.37-12.37,11.62-22.37,24.74-22.37A23.47,23.47,0,0,1,1040.39,782.05Z"/><path class="cls-2" d="M268,932.85a33.33,33.33,0,1,1-33.33,33.33A33.31,33.31,0,0,1,268,932.85Zm.08,58.49A25.08,25.08,0,1,0,243,966.26,25,25,0,0,0,268.12,991.34Z"/><path class="cls-2" d="M310.45,932.85h37.49v8.33H318.78v33.33H339.6v8.33H318.78V999.5h-8.33Z"/><path class="cls-2" d="M461.24,932.85h8.66L445.08,999.5l-13.92-25-13.41,25-24.83-66.65h8.67l17.49,46.32,11.75-21.74,12.67,21.74Z"/><path class="cls-2" d="M475.74,932.85h37.49v8.33H484.07v33.33H504.9v8.33H484.07v8.33h29.24v8.33H475.74Z"/><path class="cls-2" d="M546.72,937.85l-6.16,4.91a7.91,7.91,0,0,0-5.84-2.5c-4.33,0-8.16,3.09-8.16,7.25v.42c0,3.67,2.58,6.17,7.58,6.5,19.16,1.16,28,10.16,28,22.08v.83c-.41,12.33-11.49,22.16-24.74,22.16a23.8,23.8,0,0,1-17.91-7.83l6.41-4.92c2.84,3.17,6.92,4.75,11.75,4.75,8.75,0,16.25-6.08,16.49-14.33v-.58c0-11.16-11-13.25-20.49-14.16-8.83-.84-15.16-6.34-15.16-14.25v-.42c.25-8.24,7.75-14.91,16.49-14.91A15.69,15.69,0,0,1,546.72,937.85Z"/><path class="cls-2" d="M558.8,932.85h33.33v8.33h-12.5V999.5H571.3V941.18H558.8Z"/><path class="cls-2" d="M645.78,932.85l15.83,44.41,16.16-44.41h8.66L661.61,999.5l-24.5-66.65Z"/><path class="cls-2" d="M692.27,932.85h8.33V999.5h-8.33Z"/><path class="cls-2" d="M712.26,932.85l8.33.08a7.1,7.1,0,0,1,1.34-.08,25,25,0,0,1,13.16,46.24l11.75,20.41h-9.67l-9.91-17.25a22.57,22.57,0,0,1-5.33.59h-1.34V999.5h-8.33Zm8.33,8.58v33.16h1.34a16.62,16.62,0,1,0,0-33.24A7.1,7.1,0,0,0,720.59,941.43Z"/><path class="cls-2" d="M812.74,999.5h-8.33v-5.83A32.3,32.3,0,0,1,786,999.5,33.33,33.33,0,1,1,810.9,944l-6.16,5.5a25.08,25.08,0,1,0-18.66,41.83,24,24,0,0,0,18.33-8.42H781.83v-8.33l30.91-.08Z"/><path class="cls-2" d="M824.4,932.85h8.33V999.5H824.4Z"/><path class="cls-2" d="M852.73,949.26V999.5H844.4V932.85h8.49l28.91,49.9v-49.9h8.33V999.5H881.8Z"/><path class="cls-2" d="M901.8,932.85h8.33V999.5H901.8Z"/><path class="cls-2" d="M924.63,999.5H916l24.49-66.65,24.83,66.65h-8.66L950,982.84H931.21Zm9.33-25h13.33l-6.84-19.41Z"/><rect x="127.48" y="959.71" width="89.21" height="5.21"/><rect x="983.31" y="959.71" width="89.21" height="5.21"/><path class="cls-2" d="M178.86,782.05l-9.25,7.37a11.86,11.86,0,0,0-8.75-3.75c-6.5,0-12.25,4.62-12.25,10.87v.63c0,5.5,3.88,9.25,11.37,9.75,28.75,1.75,42,15.24,42,33.12v1.24c-.63,18.5-17.25,33.25-37.12,33.25A35.76,35.76,0,0,1,138,862.78l9.62-7.37c4.25,4.75,10.37,7.12,17.62,7.12,13.13,0,24.37-9.12,24.75-21.49v-.88c0-16.75-16.5-19.87-30.74-21.25-13.25-1.25-22.75-9.49-22.75-21.37v-.62c.37-12.37,11.62-22.37,24.74-22.37A23.5,23.5,0,0,1,178.86,782.05Z"/><path class="cls-2" d="M210.6,774.55l12.49.12a10.54,10.54,0,0,1,2-.12,37.49,37.49,0,1,1,0,75h-2v25H210.6Zm12.49,12.87v49.74h2a24.94,24.94,0,1,0,0-49.87A9.75,9.75,0,0,0,223.09,787.42Z"/><path class="cls-2" d="M321,774.55a50,50,0,1,1-50,50A50,50,0,0,1,321,774.55Zm.12,87.73a37.62,37.62,0,1,0-37.62-37.62A37.5,37.5,0,0,0,321.07,862.28Z"/><path class="cls-2" d="M429.42,774.55a50,50,0,1,1-50,50A50,50,0,0,1,429.42,774.55Zm.13,87.73a37.62,37.62,0,1,0-37.62-37.62A37.49,37.49,0,0,0,429.55,862.28Z"/><path class="cls-2" d="M492.9,774.55h12.5v62.61l36-62.61h14.5l-28.74,50,28.74,50h-14.5L519.9,837.16l-14.5,25.25v12.12H492.9Z"/><path class="cls-2" d="M609.25,874.53h-12.5V848.91l-33.87-74.36H577l25.87,58,25.74-58h13.75l-33.12,75.11Z"/><path class="cls-2" d="M752.22,782.05,743,789.42a11.86,11.86,0,0,0-8.75-3.75c-6.5,0-12.25,4.62-12.25,10.87v.63c0,5.5,3.88,9.25,11.37,9.75,28.75,1.75,42,15.24,42,33.12v1.24c-.63,18.5-17.25,33.25-37.12,33.25a35.75,35.75,0,0,1-26.87-11.75l9.62-7.37c4.25,4.75,10.37,7.12,17.62,7.12,13.13,0,24.37-9.12,24.75-21.49v-.88c0-16.75-16.5-19.87-30.75-21.25-13.24-1.25-22.74-9.49-22.74-21.37v-.62c.37-12.37,11.62-22.37,24.74-22.37A23.5,23.5,0,0,1,752.22,782.05Z"/><path class="cls-2" d="M784,774.55l12.5.12a10.54,10.54,0,0,1,2-.12,37.49,37.49,0,0,1,0,75h-2v25H784Zm12.5,12.87v49.74h2a24.94,24.94,0,1,0,0-49.87A9.75,9.75,0,0,0,796.45,787.42Z"/><path class="cls-2" d="M894.31,774.55a50,50,0,1,1-50,50A50,50,0,0,1,894.31,774.55Zm.12,87.73a37.62,37.62,0,1,0-37.62-37.62A37.5,37.5,0,0,0,894.43,862.28Z"/><path class="cls-2" d="M944.17,774.55h50v12.5H975.41v87.48h-12.5V787.05H944.17Z"/><path class="cls-2" d="M1040.39,782.05l-9.24,7.37a11.86,11.86,0,0,0-8.75-3.75c-6.5,0-12.25,4.62-12.25,10.87v.63c0,5.5,3.87,9.25,11.37,9.75,28.75,1.75,42,15.24,42,33.12v1.24c-.62,18.5-17.24,33.25-37.11,33.25a35.75,35.75,0,0,1-26.87-11.75l9.62-7.37c4.25,4.75,10.37,7.12,17.62,7.12,13.12,0,24.37-9.12,24.75-21.49v-.88c0-16.75-16.5-19.87-30.75-21.25-13.25-1.25-22.74-9.49-22.74-21.37v-.62c.37-12.37,11.62-22.37,24.74-22.37A23.47,23.47,0,0,1,1040.39,782.05Z"/><path class="cls-2" d="M268,932.85a33.33,33.33,0,1,1-33.33,33.33A33.31,33.31,0,0,1,268,932.85Zm.08,58.49A25.08,25.08,0,1,0,243,966.26,25,25,0,0,0,268.12,991.34Z"/><path class="cls-2" d="M310.45,932.85h37.49v8.33H318.78v33.33H339.6v8.33H318.78V999.5h-8.33Z"/><path class="cls-2" d="M461.24,932.85h8.66L445.08,999.5l-13.92-25-13.41,25-24.83-66.65h8.67l17.49,46.32,11.75-21.74,12.67,21.74Z"/><path class="cls-2" d="M475.74,932.85h37.49v8.33H484.07v33.33H504.9v8.33H484.07v8.33h29.24v8.33H475.74Z"/><path class="cls-2" d="M546.72,937.85l-6.16,4.91a7.91,7.91,0,0,0-5.84-2.5c-4.33,0-8.16,3.09-8.16,7.25v.42c0,3.67,2.58,6.17,7.58,6.5,19.16,1.16,28,10.16,28,22.08v.83c-.41,12.33-11.49,22.16-24.74,22.16a23.8,23.8,0,0,1-17.91-7.83l6.41-4.92c2.84,3.17,6.92,4.75,11.75,4.75,8.75,0,16.25-6.08,16.49-14.33v-.58c0-11.16-11-13.25-20.49-14.16-8.83-.84-15.16-6.34-15.16-14.25v-.42c.25-8.24,7.75-14.91,16.49-14.91A15.69,15.69,0,0,1,546.72,937.85Z"/><path class="cls-2" d="M558.8,932.85h33.33v8.33h-12.5V999.5H571.3V941.18H558.8Z"/><path class="cls-2" d="M645.78,932.85l15.83,44.41,16.16-44.41h8.66L661.61,999.5l-24.5-66.65Z"/><path class="cls-2" d="M692.27,932.85h8.33V999.5h-8.33Z"/><path class="cls-2" d="M712.26,932.85l8.33.08a7.1,7.1,0,0,1,1.34-.08,25,25,0,0,1,13.16,46.24l11.75,20.41h-9.67l-9.91-17.25a22.57,22.57,0,0,1-5.33.59h-1.34V999.5h-8.33Zm8.33,8.58v33.16h1.34a16.62,16.62,0,1,0,0-33.24A7.1,7.1,0,0,0,720.59,941.43Z"/><path class="cls-2" d="M812.74,999.5h-8.33v-5.83A32.3,32.3,0,0,1,786,999.5,33.33,33.33,0,1,1,810.9,944l-6.16,5.5a25.08,25.08,0,1,0-18.66,41.83,24,24,0,0,0,18.33-8.42H781.83v-8.33l30.91-.08Z"/><path class="cls-2" d="M824.4,932.85h8.33V999.5H824.4Z"/><path class="cls-2" d="M852.73,949.26V999.5H844.4V932.85h8.49l28.91,49.9v-49.9h8.33V999.5H881.8Z"/><path class="cls-2" d="M901.8,932.85h8.33V999.5H901.8Z"/><path class="cls-2" d="M924.63,999.5H916l24.49-66.65,24.83,66.65h-8.66L950,982.84H931.21Zm9.33-25h13.33l-6.84-19.41Z"/><path d="M598.45,204.71C737.71,204.71,851,318,851,457.25S737.71,709.8,598.45,709.8,345.91,596.51,345.91,457.25,459.2,204.71,598.45,204.71m0-5.21C456.1,199.5,340.7,314.9,340.7,457.25S456.1,715,598.45,715,856.21,599.6,856.21,457.25,740.81,199.5,598.45,199.5Z"/><path class="cls-3" d="M598.42,286.92,580.17,410.7h36.5Zm0,35.7,12.22,82.87H586.21Z"/><path d="M598.42,286.92,580.17,410.7h36.5L598.42,286.92ZM586.21,405.49l12.21-82.87,12.22,82.87Z"/><path class="cls-3" d="M619.59,416.27h-43.7a13.57,13.57,0,1,0,0,27.14h43.7a13.57,13.57,0,1,0,0-27.14Zm0,21.94h-43.7a8.37,8.37,0,0,1,0-16.73h43.7a8.37,8.37,0,1,1,0,16.73Z"/><path d="M619.59,416.27h-43.7a13.57,13.57,0,1,0,0,27.14h43.7a13.57,13.57,0,1,0,0-27.14Zm-43.7,21.94a8.37,8.37,0,0,1,0-16.73h43.7a8.37,8.37,0,1,1,0,16.73Z"/><path class="cls-3" d="M616.14,450.82l-.56-1.83H581.27l-.57,1.83c-5,16.14-9.75,29.86-15,43.15a597.17,597.17,0,0,1-35.51,74.57H514.08v20.4l39.66,0,2.46-.42-.5-3.87a28.25,28.25,0,0,1-.35-3.8,42.4,42.4,0,0,1,.79-7.76l.29-1.54a43.46,43.46,0,0,1,2.18-7l.53-1.14a45.84,45.84,0,0,1,3.68-6.72,42.19,42.19,0,0,1,4.83-5.85l.84-.83a45.47,45.47,0,0,1,5-4.15c.68-.49,1.4-.92,2.12-1.35l.71-.43c1.23-.74,2.48-1.43,3.76-2,.93-.44,1.86-.88,2.82-1.26a44.6,44.6,0,0,1,6-1.86c.24-.05.48-.12,1-.28a43.08,43.08,0,0,1,51.64,42.24,28,28,0,0,1-.35,3.79l-.52,4.34h42V568.54H666.67a592,592,0,0,1-35.46-74.29C625.93,480.87,621.15,467.07,616.14,450.82Zm47.5,122.93h13.9v10l-31,0a24.09,24.09,0,0,0,.2-3,48.26,48.26,0,0,0-57.89-47.34c-.28.06-.55.14-1.11.31a46.18,46.18,0,0,0-6.73,2.08c-1.08.42-2.13.91-3.17,1.4-1.44.69-2.84,1.46-4.23,2.3L573,540c-.85.51-1.7,1-2.5,1.6a51,51,0,0,0-5.73,4.78l-.81.79a48.15,48.15,0,0,0-5.36,6.5l-.35.55a50.9,50.9,0,0,0-4,7.4l-.41.91a48.83,48.83,0,0,0-2.46,7.89L551,572.1a48.37,48.37,0,0,0-.87,8.71,25.57,25.57,0,0,0,.19,2.92H519.29v-10h14l.75-1.32a604.3,604.3,0,0,0,36.56-76.54c5.09-12.93,9.73-26.22,14.55-41.7h26.62c4.84,15.59,9.51,29,14.64,42a597.31,597.31,0,0,0,36.52,76.26Z"/><path d="M615.58,449H581.27l-.57,1.83c-5,16.14-9.75,29.86-15,43.15a597.17,597.17,0,0,1-35.51,74.57H514.08v20.4l39.66,0,2.46-.42-.5-3.87a28.25,28.25,0,0,1-.35-3.8,42.4,42.4,0,0,1,.79-7.76l.29-1.54a43.46,43.46,0,0,1,2.18-7l.53-1.14a45.84,45.84,0,0,1,3.68-6.72,42.19,42.19,0,0,1,4.83-5.85l.84-.83a45.47,45.47,0,0,1,5-4.15c.68-.49,1.4-.92,2.12-1.35l.71-.43c1.23-.74,2.48-1.43,3.76-2,.93-.44,1.86-.88,2.82-1.26a44.6,44.6,0,0,1,6-1.86c.24-.05.48-.12,1-.28a43.08,43.08,0,0,1,51.64,42.24,28,28,0,0,1-.35,3.79l-.52,4.34h42V568.54H666.67a592,592,0,0,1-35.46-74.29c-5.28-13.38-10.06-27.18-15.07-43.43l-.56-1.83ZM519.29,583.73v-10h14l.75-1.32a604.3,604.3,0,0,0,36.56-76.54c5.09-12.93,9.73-26.22,14.55-41.7h26.62c4.84,15.59,9.51,29,14.64,42a597.31,597.31,0,0,0,36.52,76.26l.75,1.32h13.9v10l-31,0a24.09,24.09,0,0,0,.2-3,48.26,48.26,0,0,0-57.89-47.34c-.28.06-.55.14-1.11.31a46.18,46.18,0,0,0-6.73,2.08c-1.08.42-2.13.91-3.17,1.4-1.44.69-2.84,1.46-4.23,2.3L573,540c-.85.51-1.7,1-2.5,1.6a51,51,0,0,0-5.73,4.78l-.81.79a48.15,48.15,0,0,0-5.36,6.5l-.35.55a50.9,50.9,0,0,0-4,7.4l-.41.91a48.83,48.83,0,0,0-2.46,7.89L551,572.1a48.37,48.37,0,0,0-.87,8.71,25.57,25.57,0,0,0,.19,2.92Z"/><path class="cls-3" d="M598.45,543.28a37.35,37.35,0,0,0-6.79.68l-.76.08c-.41.09-.81.22-1.66.5a38.46,38.46,0,0,0-3.78,1.18c-1,.37-2,.75-2.89,1.19s-1.58.82-2.68,1.45l-.78.41a15.86,15.86,0,0,0-1.68,1,2.58,2.58,0,0,0-.47.41,37.16,37.16,0,0,0-5.62,4.86c-.49.51-.92,1.06-1.36,1.62l-.49.61a36.64,36.64,0,0,0-3.13,4.41c-.53.88-1,1.78-1.47,2.72a36,36,0,0,0-2.08,5.26l-.24.73a18.7,18.7,0,0,0-.56,1.9,36.82,36.82,0,0,0-1.08,8.57,38,38,0,0,0,.58,5.93,3,3,0,0,0,.15.57L562,590l1.52,4.19c.33.84.73,1.64,1.13,2.44l.44.92a6.23,6.23,0,0,0,.47,1,40.66,40.66,0,0,0,4.69,6.82c.29.34.61.67,1,1.11a32.17,32.17,0,0,0,5.72,5.08l.49.42a10.53,10.53,0,0,0,1.14.62A38.53,38.53,0,0,0,583.1,615c.59.26,1.19.49,2,.78a44.64,44.64,0,0,0,4.86,1.52,7.61,7.61,0,0,0,1,.29,5.75,5.75,0,0,0,.75.08,35.76,35.76,0,0,0,12.29.26c.6-.09,1.18-.22,1.77-.36l1.15-.26c.75-.16,1.5-.31,2.25-.54,1.07-.32,2.1-.73,3.58-1.31.4-.16.81-.31,1.21-.5a40.48,40.48,0,0,0,3.72-2l.69-.41a36.71,36.71,0,0,0,3.43-2.47l.61-.49a38.91,38.91,0,0,0,3-2.84L626,606a39.72,39.72,0,0,0,2.59-3.17l.71-1.06c.71-1,1.38-2.1,2.15-3.48a9.27,9.27,0,0,0,.45-1l.34-.67c.4-.8.8-1.6,1.13-2.44l1.37-3.58.64-3.85a38.21,38.21,0,0,0,.58-5.94A37.57,37.57,0,0,0,598.45,543.28Zm31.8,42.64-.46,3.11-1.26,3.27a20.88,20.88,0,0,1-.92,2l-.88,1.84c-.52.95-1.11,1.86-1.89,3l-.45.67a32.79,32.79,0,0,1-2.21,2.7l-.57.63a34.52,34.52,0,0,1-2.64,2.48l-.6.47a30.14,30.14,0,0,1-2.83,2l-.93.55a32,32,0,0,1-2.89,1.54c-.29.13-.59.24-.89.36l-.55.21c-.89.36-1.77.71-2.66,1-.61.18-1.22.3-1.84.44l-1.29.29c-.44.1-.86.21-1.31.27a30.11,30.11,0,0,1-10.55-.23c-.24,0-.48-.07-1-.16-.27-.09-.55-.18-.8-.24a33.27,33.27,0,0,1-4.15-1.31c-.5-.19-1-.38-1.5-.59a32.7,32.7,0,0,1-3.83-2.08,1.39,1.39,0,0,0-.64-.28h0l-.48-.41a30.41,30.41,0,0,1-5.28-4.72c-.26-.27-.52-.55-.75-.81a35.94,35.94,0,0,1-4.28-6.33l-.63-1.35a20.88,20.88,0,0,1-.92-2L567.12,589l-.3-2.45a4.54,4.54,0,0,0-.16-.66,31.64,31.64,0,0,1-.53-5.11,32.23,32.23,0,0,1,.94-7.39c.12-.49.28-.95.44-1.42l.27-.83a31.33,31.33,0,0,1,1.78-4.52c.39-.8.81-1.58,1.27-2.35a32.44,32.44,0,0,1,2.69-3.79l.55-.68c.34-.43.66-.85,1-1.25a32.9,32.9,0,0,1,4.88-4.22,1.85,1.85,0,0,0,.4-.36,9.63,9.63,0,0,1,1.05-.57c.35-.17.7-.36,1.36-.73s1.29-.75,2-1.07,1.66-.72,2.49-1a29.85,29.85,0,0,1,3.25-1,9.43,9.43,0,0,0,.9-.29,4,4,0,0,1,.52-.15l.67-.07a32,32,0,0,1,5.83-.59,32.35,32.35,0,0,1,32.33,32.32A31.64,31.64,0,0,1,630.25,585.92Z"/><path d="M598.45,543.28a37.35,37.35,0,0,0-6.79.68l-.76.08c-.41.09-.81.22-1.66.5a38.46,38.46,0,0,0-3.78,1.18c-1,.37-2,.75-2.89,1.19s-1.58.82-2.68,1.45l-.78.41a15.86,15.86,0,0,0-1.68,1,2.58,2.58,0,0,0-.47.41,37.16,37.16,0,0,0-5.62,4.86c-.49.51-.92,1.06-1.36,1.62l-.49.61a36.64,36.64,0,0,0-3.13,4.41c-.53.88-1,1.78-1.47,2.72a36,36,0,0,0-2.08,5.26l-.24.73a18.7,18.7,0,0,0-.56,1.9,36.82,36.82,0,0,0-1.08,8.57,38,38,0,0,0,.58,5.93,3,3,0,0,0,.15.57L562,590l1.52,4.19c.33.84.73,1.64,1.13,2.44l.44.92a6.23,6.23,0,0,0,.47,1,40.66,40.66,0,0,0,4.69,6.82c.29.34.61.67,1,1.11a32.17,32.17,0,0,0,5.72,5.08l.49.42a10.53,10.53,0,0,0,1.14.62A38.53,38.53,0,0,0,583.1,615c.59.26,1.19.49,2,.78a44.64,44.64,0,0,0,4.86,1.52,7.61,7.61,0,0,0,1,.29,5.75,5.75,0,0,0,.75.08,35.76,35.76,0,0,0,12.29.26c.6-.09,1.18-.22,1.77-.36l1.15-.26c.75-.16,1.5-.31,2.25-.54,1.07-.32,2.1-.73,3.58-1.31.4-.16.81-.31,1.21-.5a40.48,40.48,0,0,0,3.72-2l.69-.41a36.71,36.71,0,0,0,3.43-2.47l.61-.49a38.91,38.91,0,0,0,3-2.84L626,606a39.72,39.72,0,0,0,2.59-3.17l.71-1.06c.71-1,1.38-2.1,2.15-3.48a9.27,9.27,0,0,0,.45-1l.34-.67c.4-.8.8-1.6,1.13-2.44l1.37-3.58.64-3.85a38.21,38.21,0,0,0,.58-5.94,37.57,37.57,0,0,0-37.53-37.53Zm-17.73,64.61-.48-.41a30.41,30.41,0,0,1-5.28-4.72c-.26-.27-.52-.55-.75-.81a35.94,35.94,0,0,1-4.28-6.33l-.63-1.35a20.88,20.88,0,0,1-.92-2L567.12,589l-.3-2.45a4.54,4.54,0,0,0-.16-.66,27.29,27.29,0,0,1,.42-12.5,13.69,13.69,0,0,1,.43-1.42l.27-.83a31.33,31.33,0,0,1,1.78-4.52c.39-.8.81-1.58,1.27-2.35a32.44,32.44,0,0,1,2.69-3.79l.55-.68c.34-.43.66-.85,1-1.25a32.9,32.9,0,0,1,4.88-4.22,1.85,1.85,0,0,0,.4-.36,9.63,9.63,0,0,1,1.05-.57c.35-.17.7-.36,1.36-.73s1.29-.75,2-1.07,1.66-.72,2.49-1a29.85,29.85,0,0,1,3.25-1,9.43,9.43,0,0,0,.9-.29,4,4,0,0,1,.52-.15l.67-.07a32,32,0,0,1,5.83-.59,32.35,32.35,0,0,1,32.33,32.32,31.64,31.64,0,0,1-.53,5.11l-.46,3.11-1.26,3.27a20.88,20.88,0,0,1-.92,2l-.88,1.84c-.52.95-1.11,1.86-1.89,3l-.45.67a32.79,32.79,0,0,1-2.21,2.7l-.57.63a34.52,34.52,0,0,1-2.64,2.48l-.6.47a30.14,30.14,0,0,1-2.83,2l-.93.55a32,32,0,0,1-2.89,1.54c-.29.13-.59.24-.89.36l-.55.21c-.89.36-1.77.71-2.66,1-.61.18-1.22.3-1.84.44l-1.29.29c-.44.1-.86.21-1.31.27a30,30,0,0,1-10.55-.23c-.24,0-.48-.07-1-.16-.27-.09-.55-.18-.8-.24a33.27,33.27,0,0,1-4.15-1.31c-.5-.19-1-.38-1.5-.59a32.7,32.7,0,0,1-3.83-2.08,1.39,1.39,0,0,0-.64-.28Z"/><path d="M598.08,693.31A235.69,235.69,0,0,1,573.31,692l-2.33-.24V643.94h51.86v48l-2.35.22C612.8,692.94,605.27,693.31,598.08,693.31Zm-21.9-6.26a225.69,225.69,0,0,0,41.45.19V649.15H576.18Z"/><path class="cls-4" d="M524.56,484.71a6.81,6.81,0,0,0-3.67-.95c-2.45-.26-4.57.19-7,.12,2.45.07,5,.1,7.4.35Z"/><path class="cls-4" d="M469.64,480.81a9,9,0,0,0,1,1.4A9.45,9.45,0,0,1,469.64,480.81Z"/><path class="cls-4" d="M464.28,475.29a9.24,9.24,0,0,1,3.5.42A7,7,0,0,0,464.28,475.29Z"/><path d="M366.74,458.28a230.19,230.19,0,0,1,30.71-115.1c-.55-2.65-1-5.35-1.26-8.08a235.42,235.42,0,0,0-34.66,123.18v.13c1.74.06,3.47.09,5.21.11Z"/><path d="M531.1,485.32c-2.24-5.52-10-5.07-14.76-5.26a151.16,151.16,0,0,0-29.59,1.07c-2.93.4-5.34.79-7,1.07a6.2,6.2,0,0,1-6-2.24,5.79,5.79,0,0,1-1.07-3.6,3.62,3.62,0,0,0,.08-1.74,4.87,4.87,0,0,0-3.29-2.49c-7.73-2.27-18.68,1.4-26.42,2a139.81,139.81,0,0,1-14.76.36c-2.13-.06-12.32.79-11.12-2.87.56-1.68,6.5-4.24,7.89-4.76,1.84-.68,4-.75,5.78-1.53,1.92-.85,3.32-2,3.5-4.26,1.16-13.71-24.6-5.59-30.7-4.84a289.69,289.69,0,0,1-36.93,2.28c0,1.31.06,2.61.08,3.92,9.39,0,18.82-.57,28.14-1.4,5.66-.5,11.33-1.11,16.93-2.06,2.24-.38,4.44-.93,6.67-1.36a23.54,23.54,0,0,1,6.14-.65l2.57.44c4.38.24,1.69,5.07-1.26,5.07-4.14,2.89-10.85,3.11-13.22,8.55-1.75,4,1.81,6.06,5.19,6.68,7.66,1.39,16.16,1,23.87.42,3.82-.27,7.61-.73,11.4-1.25,1.88-.25,7.08-1.49,11-1.59a7,7,0,0,1,3.5.42,2.53,2.53,0,0,1,1,.65c-.39-.49.24,2.94.29,3.09a7.1,7.1,0,0,0,.55,1.36,9.45,9.45,0,0,0,1,1.4,9.61,9.61,0,0,0,4.21,2.89c3.82,1.36,8.06.37,11.93-.06,4.91-.55,9.84-.93,14.77-1.11q6.18-.23,12.35-.05c2.45.07,4.58-.09,7-.12a6.81,6.81,0,0,1,3.67.95,1.15,1.15,0,0,1,.19.14,1.07,1.07,0,0,1,.22.15c1.36,1.6,1.23,3.56-.81,5.46-1.47,2.13-11.22,2.74-13.73,3.16-5.26.88-10.57,1.45-15.86,2.12-5,.63-32.72,2-30.42,11.3.43,1.71,1.93,2.49,3.26,3.33,2.19,1.37,11.68,3.4,5.88,6.73-3.13,1.8-10,1.18-13.69,1.58l-16.51,1.8-16.52,1.79c-1.69.19-3.38.38-5.08.55q-2.21.27-4.41.45-7.11-3.12-1.77-5.48c3-2.5,5.35-6.65,1.34-9.44-5.29-3.68-14.55-1-20.25.25a118,118,0,0,1-23.5,2.79c.31,1.33.66,2.64,1,4a98.93,98.93,0,0,0,16.45-1.48c5.35-1,10.64-2.68,16.08-3,3.7-.25,9.33-1.74,5.61,4.53-.57,1-2,1.49-2.63,2.51-2.25,3.5-.29,7.46,3.48,8.85,3.41,1.26,7.7.12,11.15-.26l15.25-1.65c10.16-1.11,20.32-2.19,30.48-3.32,3.57-.4,9.91-1,10.42-5.74.6-5.53-12.61-7.91-11.17-10.57,1.09-2,9.79-3,12.12-3.44,6-1.22,12.07-1.91,18.13-2.67S536,497.43,531.1,485.32Z"/><path d="M453.25,476.88c3.62-.57,7.92-1.43,11-1.59C460.33,475.39,455.13,476.63,453.25,476.88Z"/><path d="M469.09,479.45c0-.15-.68-3.58-.29-3.09a2.53,2.53,0,0,0-1-.65,1.31,1.31,0,0,1,.56.5C468.56,476.67,468.5,477.47,469.09,479.45Z"/><path d="M469.64,480.81a7.1,7.1,0,0,1-.55-1.36,6.09,6.09,0,0,0,.51,1.3Z"/><path d="M441.85,478.13a109.38,109.38,0,0,0,11.4-1.25C449.46,477.4,445.67,477.86,441.85,478.13Z"/><path d="M361.53,458.41c0,.63,0,1.25,0,1.88l2.48,2.09c.92,0,1.84.06,2.77.06,0-1.31-.08-2.61-.08-3.92C365,458.5,363.27,458.47,361.53,458.41Z"/><path d="M372.9,511.39c-1.77,0-3.56-.05-5.35-.12.31,1.34.61,2.68.94,4,1.8.07,3.6.08,5.4.06C373.56,514,373.21,512.72,372.9,511.39Z"/><path d="M361.61,462.33l2.44.05-2.48-2.09C361.58,461,361.6,461.65,361.61,462.33Z"/><path d="M553.77,326.46a76.39,76.39,0,0,1-152.16,9.7c-1.44,2.3-2.8,4.66-4.16,7a81.63,81.63,0,1,0,103.23-94.91c-2.42,1.13-4.83,2.3-7.21,3.51A76.54,76.54,0,0,1,553.77,326.46Z"/><path d="M401.61,336.16a77.82,77.82,0,0,1-.63-8.56c-1.64,2.47-3.24,5-4.79,7.5.29,2.73.71,5.43,1.26,8.08C398.81,340.82,400.17,338.46,401.61,336.16Z"/><path d="M493.47,251.78c2.38-1.21,4.79-2.38,7.21-3.51a80,80,0,0,0-7.94-1.94c-2.62,1.31-5.2,2.69-7.77,4.09A76.41,76.41,0,0,1,493.47,251.78Z"/><path d="M447.85,323.84a6.59,6.59,0,1,1-6.58,6.58,6.59,6.59,0,0,1,6.58-6.58m0-5.21a11.8,11.8,0,1,0,11.79,11.79,11.79,11.79,0,0,0-11.79-11.79Z"/><path d="M508.88,297a16.17,16.17,0,1,1-16.17,16.16A16.18,16.18,0,0,1,508.88,297m0-5.2a21.37,21.37,0,1,0,21.37,21.36,21.36,21.36,0,0,0-21.37-21.36Z"/><path d="M481.29,364.06a2.34,2.34,0,1,1-2.34,2.33,2.33,2.33,0,0,1,2.34-2.33m0-5.21a7.55,7.55,0,1,0,7.54,7.54,7.55,7.55,0,0,0-7.54-7.54Z"/><path d="M827.94,490.13a34.9,34.9,0,0,0-12.74.56,65,65,0,0,0-7.89,2.57,61.26,61.26,0,0,1-7.52,2.43c-5.36,1.22-10.12.32-12.73-2.41a3.53,3.53,0,0,1-1.23-2.82c.27-1.37,2.41-2.44,4.25-3.21l8.35-3.51c2.25-.95,6.44-2.71,7.65-6.74,1.6-5.31-3-9.95-7.94-12a34.51,34.51,0,0,0-22.92-1.21v0c-17,5.87-35.78,3.73-54,1.65l-3.08-.35c-23.57-2.65-47.54-4.36-71.25-5.06-4.32-.13-7.83-.37-10.3-2.32a5.36,5.36,0,0,1-1.85-4.26,2.33,2.33,0,0,1,1-2,7.5,7.5,0,0,1,3.74-.52c7.93.12,15.59.56,23,1,20.94,1.19,40.69,2.31,62.36-3.9l1.47-.29c4.93-.95,8.53-1.81,10-4.2a4,4,0,0,0,.4-3.28c-1.42-4.62-6.87-5.91-8.66-6.33a16.36,16.36,0,0,1-6.28-3.43c-.51-.4-.69-.7-.68-.8,0-.54,1.2-1.9,3.62-3.24s5.59-1.28,8.43-1.21l50.18.82c7.55.16,15.17-.55,19.58-6.21,3.79-4.84,3.67-12.45-.28-18.08-1.93-2.74-5.26-3.88-8.2-4.87-2.11-.72-4.49-1.53-4.73-2.77.79-1.06,6.26-1,8.34-1,.8,0,1.55,0,2.22,0l25.79-.45-.76-2.7C798,299.35,717.71,231.48,620.61,222.42c-7.3-.68-14.68-1.06-22.16-1.06A238.72,238.72,0,0,0,574,222.62a235.23,235.23,0,0,0-81.22,23.71,80,80,0,0,1,7.94,1.94A229.91,229.91,0,0,1,574,227.87a233.15,233.15,0,0,1,24.49-1.3c7.48,0,14.87.39,22.16,1.09,93.32,8.9,170.64,73.36,198.45,159.85l-18.9.41c-.62,0-1.32,0-2.08,0-4.69,0-9.92-.05-12.38,2.91a5.33,5.33,0,0,0-1.06,4.6c.8,3.93,4.69,5.25,8.12,6.41,2.29.79,4.67,1.59,5.62,2.94,2.62,3.74,2.81,8.86.44,11.89-3.18,4.05-9.58,4.3-15.4,4.21l-50.18-.83c-3.33-.05-7.44-.11-11,1.87-2.72,1.5-6,4-6.29,7.36a6,6,0,0,0,2.63,5.32,21.54,21.54,0,0,0,8.32,4.4c2.3.55,3.81,1.26,4.5,2.1a33.81,33.81,0,0,1-6,1.54l-1.73.35c-21,6-40.35,4.92-60.82,3.75-7.46-.42-15.17-.87-23.22-1a11.73,11.73,0,0,0-6.48,1.25,7.48,7.48,0,0,0-3.54,6.12,10.46,10.46,0,0,0,3.83,8.69c4,3.15,9.42,3.31,13.36,3.43,23.56.7,47.39,2.39,70.82,5l3.07.35c18.81,2.14,38.24,4.36,56.36-1.93v0a29.58,29.58,0,0,1,19.12,1.12c2.47,1,5.64,3.47,5,5.7-.44,1.48-2.51,2.53-4.68,3.44l-8.35,3.51c-2.11.89-6.5,2.74-7.34,7a8.49,8.49,0,0,0,2.58,7.44c2.84,3,7.12,4.55,12,4.55a25.54,25.54,0,0,0,5.64-.66,63.94,63.94,0,0,0,8.17-2.64,64.91,64.91,0,0,1,7.28-2.38,29.64,29.64,0,0,1,10.8-.47A231.65,231.65,0,0,1,676.48,676.46v-82h-37.4l-.64,1.66c-.45,1.17-.93,2.32-1.5,3.47l-.35.75c-.13.3-.27.61-.43.91-.5.91-1.07,1.78-1.86,3l-.37.57c-.36.56-.71,1.12-1.12,1.66-.62.84-1.31,1.62-2.18,2.62-.6.7-1.2,1.39-1.85,2s-1.48,1.41-2.25,2.08-1.54,1.33-2.35,1.94-1.62,1.17-2.45,1.72S620,618,619,618.51s-1.71.93-2.61,1.35-2,.85-3.44,1.39c-.74.29-1.48.57-2.24.8-1.19.36-2.42.61-3.64.87l-.93.2c-.46.11-.93.22-1.43.29a39.58,39.58,0,0,1-14.11-.29c-.6-.11-1.18-.27-1.75-.41l-.78-.2a42.93,42.93,0,0,1-4.72-1.46c-1-.36-1.94-.75-2.88-1.18a42.6,42.6,0,0,1-3.88-2.1,43.29,43.29,0,0,1-7.52-5.56l-.48-.48a42,42,0,0,1-3.28-3.62c-.43-.52-.84-1-1.23-1.57-.71-.95-1.35-1.94-2-2.95l-.28-.45c-.38-.6-.76-1.19-1.09-1.79-.16-.29-.29-.59-.42-.88l-.39-.84c-.56-1.14-1-2.3-1.5-3.47l-.8-1.65H520.43v82A231.65,231.65,0,0,1,373.89,515.34c-1.8,0-3.6,0-5.4-.06a236.84,236.84,0,0,0,153.7,167.31l3.45,1.17v-84h28.65c.31.74.64,1.48,1,2.21l.31.67c.19.41.37.82.59,1.23.39.72.83,1.41,1.53,2.5s1.42,2.24,2.21,3.31c.44.6.91,1.18,1.37,1.75a50.25,50.25,0,0,0,3.82,4.2l.42.42a47.77,47.77,0,0,0,8.42,6.22,43.78,43.78,0,0,0,4.37,2.37c1.07.49,2.14.92,3.23,1.33a46.51,46.51,0,0,0,5.3,1.63l.73.19c.69.18,1.37.35,2.09.48a44.54,44.54,0,0,0,15.82.34c.63-.1,1.24-.23,1.86-.38l.81-.18c1.37-.28,2.74-.57,4.09-1,.88-.26,1.72-.59,3-1.06s2.27-.88,3.38-1.39,2-1,2.93-1.51,2-1.16,3-1.81,1.84-1.24,2.73-1.91,1.79-1.42,2.65-2.18,1.72-1.52,2.52-2.33,1.41-1.51,2.26-2.5,1.55-1.78,2.25-2.72c.47-.63.9-1.29,1.33-2l.55-.85c.65-1,1.3-2,1.86-3,.23-.42.42-.84.61-1.27l.28-.6c.36-.73.69-1.47,1-2.22h28.64v84l3.45-1.17A236.83,236.83,0,0,0,832.29,496.43l1-5.49Z"/><rect x="594.31" y="562.78" width="5.21" height="23.58"/><rect x="594.31" y="581.15" width="29.8" height="5.21"/></svg>