<svg id="Layer_1" data-name="Layer 1" xmlns="http://www.w3.org/2000/svg" viewBox="0 0 1200 1200"><defs><style>.cls-1{fill:#f2f2f2;}.cls-2{fill:#231f20;}.cls-3{fill:#fff;}.cls-4{fill:none;}</style></defs><title>ss-logo</title><rect class="cls-1" x="-0.8" y="-0.5" width="1200" height="1200"/><path class="cls-2" d="M243.49,754.53l-7.83,6.24a10,10,0,0,0-7.41-3.17c-5.5,0-10.36,3.91-10.36,9.2v.53c0,4.66,3.28,7.83,9.62,8.25,24.34,1.49,35.55,12.91,35.55,28v1.06c-.53,15.66-14.6,28.14-31.42,28.14a30.27,30.27,0,0,1-22.75-9.94l8.15-6.25c3.6,4,8.78,6,14.92,6,11.11,0,20.63-7.72,20.94-18.19v-.74c0-14.18-14-16.83-26-18-11.22-1.06-19.26-8-19.26-18.09v-.53c.32-10.47,9.84-18.94,20.95-18.94A19.92,19.92,0,0,1,243.49,754.53Z"/><path class="cls-2" d="M270.36,748.18l10.58.11a8.18,8.18,0,0,1,1.69-.11,31.74,31.74,0,0,1,0,63.48h-1.69v21.16H270.36Zm10.58,10.9v42.11h1.69a21.11,21.11,0,1,0,0-42.22A8.18,8.18,0,0,0,280.94,759.08Z"/><path class="cls-2" d="M363.77,748.18a42.32,42.32,0,1,1-42.31,42.32A42.31,42.31,0,0,1,363.77,748.18Zm.11,74.27A31.85,31.85,0,1,0,332,790.61,31.73,31.73,0,0,0,363.88,822.45Z"/><path class="cls-2" d="M455.6,748.18a42.32,42.32,0,1,1-42.32,42.32A42.31,42.31,0,0,1,455.6,748.18Zm.11,74.27a31.85,31.85,0,1,0-31.85-31.84A31.74,31.74,0,0,0,455.71,822.45Z"/><path class="cls-2" d="M509.34,748.18h10.58v53l30.47-53h12.27L538.33,790.5l24.33,42.32H550.39l-18.2-31.63-12.27,21.37v10.26H509.34Z"/><path class="cls-2" d="M607.83,832.82H597.25V811.13l-28.67-63h12l21.9,49.09,21.79-49.09h11.64l-28,63.59Z"/><path class="cls-2" d="M728.86,754.53,721,760.77a10,10,0,0,0-7.41-3.17c-5.5,0-10.37,3.91-10.37,9.2v.53c0,4.66,3.28,7.83,9.63,8.25,24.33,1.49,35.55,12.91,35.55,28v1.06c-.53,15.66-14.6,28.14-31.42,28.14a30.25,30.25,0,0,1-22.75-9.94l8.15-6.25c3.59,4,8.78,6,14.91,6,11.11,0,20.63-7.72,20.95-18.19v-.74c0-14.18-14-16.83-26-18C701,784.68,693,777.7,693,767.65v-.53c.32-10.47,9.84-18.94,21-18.94A19.94,19.94,0,0,1,728.86,754.53Z"/><path class="cls-2" d="M755.72,748.18l10.58.11a8.23,8.23,0,0,1,1.69-.11,31.74,31.74,0,0,1,0,63.48H766.3v21.16H755.72Zm10.58,10.9v42.11H768A21.11,21.11,0,1,0,768,759,8.23,8.23,0,0,0,766.3,759.08Z"/><path class="cls-2" d="M849.14,748.18a42.32,42.32,0,1,1-42.32,42.32A42.31,42.31,0,0,1,849.14,748.18Zm.1,74.27a31.85,31.85,0,1,0-31.84-31.84A31.74,31.74,0,0,0,849.24,822.45Z"/><path class="cls-2" d="M891.35,748.18h42.32v10.58H917.8v74.06H907.22V758.76H891.35Z"/><path class="cls-2" d="M972.81,754.53,965,760.77a10,10,0,0,0-7.41-3.17c-5.5,0-10.37,3.91-10.37,9.2v.53c0,4.66,3.28,7.83,9.63,8.25,24.34,1.49,35.55,12.91,35.55,28v1.06c-.53,15.66-14.6,28.14-31.42,28.14a30.25,30.25,0,0,1-22.75-9.94l8.15-6.25c3.6,4,8.78,6,14.92,6,11.1,0,20.63-7.72,20.94-18.19v-.74c0-14.18-14-16.83-26-18-11.22-1.06-19.26-8-19.26-18.09v-.53c.32-10.47,9.84-18.94,20.95-18.94A19.92,19.92,0,0,1,972.81,754.53Z"/><path class="cls-2" d="M319,882.19a28.21,28.21,0,1,1-28.21,28.21A28.2,28.2,0,0,1,319,882.19Zm.07,49.51a21.23,21.23,0,1,0-21.22-21.23A21.16,21.16,0,0,0,319.05,931.7Z"/><path class="cls-2" d="M354.88,882.19h31.74v7H361.94v28.21h17.63v7.06H361.94v14.1h-7.06Z"/><path class="cls-2" d="M482.54,882.19h7.33l-21,56.42-11.77-21.16-11.36,21.16-21-56.42H432l14.81,39.21,9.94-18.4,10.72,18.4Z"/><path class="cls-2" d="M494.81,882.19h31.74v7H501.86v28.21h17.63v7.06H501.86v7h24.76v7.05H494.81Z"/><path class="cls-2" d="M554.9,886.42l-5.22,4.16a6.68,6.68,0,0,0-4.94-2.11c-3.67,0-6.91,2.61-6.91,6.13V895c0,3.1,2.19,5.22,6.42,5.5,16.22,1,23.69,8.6,23.69,18.69v.7c-.35,10.44-9.73,18.76-20.94,18.76A20.15,20.15,0,0,1,531.84,932l5.43-4.16c2.39,2.68,5.85,4,9.94,4,7.4,0,13.75-5.15,14-12.13v-.49c0-9.45-9.31-11.22-17.34-12-7.48-.71-12.84-5.36-12.84-12.06v-.35c.21-7,6.56-12.63,14-12.63A13.28,13.28,0,0,1,554.9,886.42Z"/><path class="cls-2" d="M565.12,882.19h28.21v7H582.76v49.37H575.7V889.24H565.12Z"/><path class="cls-2" d="M638.75,882.19l13.4,37.59,13.68-37.59h7.34l-21,56.42-20.73-56.42Z"/><path class="cls-2" d="M678.11,882.19h7v56.42h-7Z"/><path class="cls-2" d="M695,882.19l7.06.07a5.66,5.66,0,0,1,1.12-.07,21.16,21.16,0,0,1,11.15,39.14l9.94,17.28h-8.18L707.73,924a18.87,18.87,0,0,1-4.52.5h-1.12v14.1H695Zm7.06,7.27v28.06h1.12a14.07,14.07,0,1,0,0-28.13A5.66,5.66,0,0,0,702.09,889.46Z"/><path class="cls-2" d="M780.09,938.61H773v-4.93a27.34,27.34,0,0,1-15.59,4.93,28.21,28.21,0,1,1,21.09-47l-5.22,4.66a21.23,21.23,0,1,0-15.8,35.4A20.36,20.36,0,0,0,773,924.58H753.92v-7.06l26.17-.07Z"/><path class="cls-2" d="M790,882.19H797v56.42H790Z"/><path class="cls-2" d="M813.94,896.09v42.52h-7.05V882.19h7.19l24.48,42.25V882.19h7.05v56.42h-7.05Z"/><path class="cls-2" d="M855.48,882.19h7v56.42h-7Z"/><path class="cls-2" d="M874.81,938.61h-7.34l20.73-56.42,21,56.42h-7.33l-5.64-14.1H880.38Zm7.89-21.16H894L888.2,901Z"/><rect x="200" y="904.93" width="75.52" height="4.41"/><rect x="924.48" y="904.93" width="75.52" height="4.41"/><path class="cls-2" d="M243.49,754.53l-7.83,6.24a10,10,0,0,0-7.41-3.17c-5.5,0-10.36,3.91-10.36,9.2v.53c0,4.66,3.28,7.83,9.62,8.25,24.34,1.49,35.55,12.91,35.55,28v1.06c-.53,15.66-14.6,28.14-31.42,28.14a30.27,30.27,0,0,1-22.75-9.94l8.15-6.25c3.6,4,8.78,6,14.92,6,11.11,0,20.63-7.72,20.94-18.19v-.74c0-14.18-14-16.83-26-18-11.22-1.06-19.26-8-19.26-18.09v-.53c.32-10.47,9.84-18.94,20.95-18.94A19.92,19.92,0,0,1,243.49,754.53Z"/><path class="cls-2" d="M270.36,748.18l10.58.11a8.18,8.18,0,0,1,1.69-.11,31.74,31.74,0,0,1,0,63.48h-1.69v21.16H270.36Zm10.58,10.9v42.11h1.69a21.11,21.11,0,1,0,0-42.22A8.18,8.18,0,0,0,280.94,759.08Z"/><path class="cls-2" d="M363.77,748.18a42.32,42.32,0,1,1-42.31,42.32A42.31,42.31,0,0,1,363.77,748.18Zm.11,74.27A31.85,31.85,0,1,0,332,790.61,31.73,31.73,0,0,0,363.88,822.45Z"/><path class="cls-2" d="M455.6,748.18a42.32,42.32,0,1,1-42.32,42.32A42.31,42.31,0,0,1,455.6,748.18Zm.11,74.27a31.85,31.85,0,1,0-31.85-31.84A31.74,31.74,0,0,0,455.71,822.45Z"/><path class="cls-2" d="M509.34,748.18h10.58v53l30.47-53h12.27L538.33,790.5l24.33,42.32H550.39l-18.2-31.63-12.27,21.37v10.26H509.34Z"/><path class="cls-2" d="M607.83,832.82H597.25V811.13l-28.67-63h12l21.9,49.09,21.79-49.09h11.64l-28,63.59Z"/><path class="cls-2" d="M728.86,754.53,721,760.77a10,10,0,0,0-7.41-3.17c-5.5,0-10.37,3.91-10.37,9.2v.53c0,4.66,3.28,7.83,9.63,8.25,24.33,1.49,35.55,12.91,35.55,28v1.06c-.53,15.66-14.6,28.14-31.42,28.14a30.25,30.25,0,0,1-22.75-9.94l8.15-6.25c3.59,4,8.78,6,14.91,6,11.11,0,20.63-7.72,20.95-18.19v-.74c0-14.18-14-16.83-26-18C701,784.68,693,777.7,693,767.65v-.53c.32-10.47,9.84-18.94,21-18.94A19.94,19.94,0,0,1,728.86,754.53Z"/><path class="cls-2" d="M755.72,748.18l10.58.11a8.23,8.23,0,0,1,1.69-.11,31.74,31.74,0,0,1,0,63.48H766.3v21.16H755.72Zm10.58,10.9v42.11H768A21.11,21.11,0,1,0,768,759,8.23,8.23,0,0,0,766.3,759.08Z"/><path class="cls-2" d="M849.14,748.18a42.32,42.32,0,1,1-42.32,42.32A42.31,42.31,0,0,1,849.14,748.18Zm.1,74.27a31.85,31.85,0,1,0-31.84-31.84A31.74,31.74,0,0,0,849.24,822.45Z"/><path class="cls-2" d="M891.35,748.18h42.32v10.58H917.8v74.06H907.22V758.76H891.35Z"/><path class="cls-2" d="M972.81,754.53,965,760.77a10,10,0,0,0-7.41-3.17c-5.5,0-10.37,3.91-10.37,9.2v.53c0,4.66,3.28,7.83,9.63,8.25,24.34,1.49,35.55,12.91,35.55,28v1.06c-.53,15.66-14.6,28.14-31.42,28.14a30.25,30.25,0,0,1-22.75-9.94l8.15-6.25c3.6,4,8.78,6,14.92,6,11.1,0,20.63-7.72,20.94-18.19v-.74c0-14.18-14-16.83-26-18-11.22-1.06-19.26-8-19.26-18.09v-.53c.32-10.47,9.84-18.94,20.95-18.94A19.92,19.92,0,0,1,972.81,754.53Z"/><path class="cls-2" d="M319,882.19a28.21,28.21,0,1,1-28.21,28.21A28.2,28.2,0,0,1,319,882.19Zm.07,49.51a21.23,21.23,0,1,0-21.22-21.23A21.16,21.16,0,0,0,319.05,931.7Z"/><path class="cls-2" d="M354.88,882.19h31.74v7H361.94v28.21h17.63v7.06H361.94v14.1h-7.06Z"/><path class="cls-2" d="M482.54,882.19h7.33l-21,56.42-11.77-21.16-11.36,21.16-21-56.42H432l14.81,39.21,9.94-18.4,10.72,18.4Z"/><path class="cls-2" d="M494.81,882.19h31.74v7H501.86v28.21h17.63v7.06H501.86v7h24.76v7.05H494.81Z"/><path class="cls-2" d="M554.9,886.42l-5.22,4.16a6.68,6.68,0,0,0-4.94-2.11c-3.67,0-6.91,2.61-6.91,6.13V895c0,3.1,2.19,5.22,6.42,5.5,16.22,1,23.69,8.6,23.69,18.69v.7c-.35,10.44-9.73,18.76-20.94,18.76A20.15,20.15,0,0,1,531.84,932l5.43-4.16c2.39,2.68,5.85,4,9.94,4,7.4,0,13.75-5.15,14-12.13v-.49c0-9.45-9.31-11.22-17.34-12-7.48-.71-12.84-5.36-12.84-12.06v-.35c.21-7,6.56-12.63,14-12.63A13.28,13.28,0,0,1,554.9,886.42Z"/><path class="cls-2" d="M565.12,882.19h28.21v7H582.76v49.37H575.7V889.24H565.12Z"/><path class="cls-2" d="M638.75,882.19l13.4,37.59,13.68-37.59h7.34l-21,56.42-20.73-56.42Z"/><path class="cls-2" d="M678.11,882.19h7v56.42h-7Z"/><path class="cls-2" d="M695,882.19l7.06.07a5.66,5.66,0,0,1,1.12-.07,21.16,21.16,0,0,1,11.15,39.14l9.94,17.28h-8.18L707.73,924a18.87,18.87,0,0,1-4.52.5h-1.12v14.1H695Zm7.06,7.27v28.06h1.12a14.07,14.07,0,1,0,0-28.13A5.66,5.66,0,0,0,702.09,889.46Z"/><path class="cls-2" d="M780.09,938.61H773v-4.93a27.34,27.34,0,0,1-15.59,4.93,28.21,28.21,0,1,1,21.09-47l-5.22,4.66a21.23,21.23,0,1,0-15.8,35.4A20.36,20.36,0,0,0,773,924.58H753.92v-7.06l26.17-.07Z"/><path class="cls-2" d="M790,882.19H797v56.42H790Z"/><path class="cls-2" d="M813.94,896.09v42.52h-7.05V882.19h7.19l24.48,42.25V882.19h7.05v56.42h-7.05Z"/><path class="cls-2" d="M855.48,882.19h7v56.42h-7Z"/><path class="cls-2" d="M874.81,938.61h-7.34l20.73-56.42,21,56.42h-7.33l-5.64-14.1H880.38Zm7.89-21.16H894L888.2,901Z"/><path d="M598.69,265.8c117.88,0,213.79,95.9,213.79,213.78S716.57,693.37,598.69,693.37,384.91,597.46,384.91,479.58,480.81,265.8,598.69,265.8m0-4.41c-120.5,0-218.19,97.69-218.19,218.19s97.69,218.2,218.19,218.2,218.2-97.69,218.2-218.2S719.2,261.39,598.69,261.39Z"/><path class="cls-3" d="M598.66,335.39,583.22,440.17h30.89Zm0,30.22L609,435.76H588.32Z"/><path d="M598.66,335.39,583.22,440.17h30.89L598.66,335.39ZM588.32,435.76l10.34-70.15L609,435.76Z"/><path class="cls-3" d="M616.59,444.89h-37a11.49,11.49,0,0,0,0,23h37a11.49,11.49,0,0,0,0-23Zm0,18.57h-37a7.08,7.08,0,0,1,0-14.16h37a7.08,7.08,0,0,1,0,14.16Z"/><path d="M616.59,444.89h-37a11.49,11.49,0,0,0,0,23h37a11.49,11.49,0,0,0,0-23Zm-37,18.57a7.08,7.08,0,0,1,0-14.16h37a7.08,7.08,0,0,1,0,14.16Z"/><path class="cls-3" d="M613.66,474.14l-.47-1.55H584.14l-.48,1.55c-4.21,13.66-8.25,25.27-12.68,36.53a505.13,505.13,0,0,1-30.06,63.12H527.26v17.27l33.58,0,2.08-.34-.42-3.29a24.39,24.39,0,0,1-.29-3.21,36.39,36.39,0,0,1,.66-6.57l.24-1.3a37.17,37.17,0,0,1,1.86-6l.44-1a39.17,39.17,0,0,1,3.11-5.69,37,37,0,0,1,4.09-5l.72-.7a37.52,37.52,0,0,1,4.23-3.52c.58-.41,1.19-.78,1.8-1.14L580,553a33.65,33.65,0,0,1,3.17-1.73c.79-.37,1.58-.75,2.39-1.07a39.14,39.14,0,0,1,5.08-1.57,7.37,7.37,0,0,0,.85-.24,36.46,36.46,0,0,1,43.72,35.76,22.8,22.8,0,0,1-.3,3.21l-.43,3.67h35.6V573.79H656.44a501.22,501.22,0,0,1-30-62.88C622,499.58,617.9,487.89,613.66,474.14ZM653.87,578.2h11.77v8.45l-26.22,0a20.55,20.55,0,0,0,.17-2.49,40.91,40.91,0,0,0-49-40.08,9.43,9.43,0,0,0-.94.27,38.66,38.66,0,0,0-5.7,1.76c-.92.35-1.8.77-2.68,1.18-1.22.59-2.41,1.24-3.58,2l-.58.35c-.71.43-1.43.86-2.12,1.35a43.66,43.66,0,0,0-4.85,4l-.68.67a40.47,40.47,0,0,0-4.54,5.5l-.29.46a41.68,41.68,0,0,0-3.38,6.27l-.35.77a39.55,39.55,0,0,0-2.08,6.68l-.27,1.44a40.12,40.12,0,0,0-.74,7.38,22.43,22.43,0,0,0,.16,2.47H531.67V578.2H543.5l.63-1.12a509.52,509.52,0,0,0,31-64.79c4.31-10.94,8.24-22.19,12.31-35.3h22.54c4.1,13.2,8.05,24.53,12.39,35.53a505.37,505.37,0,0,0,30.92,64.57Z"/><path d="M613.19,472.59H584.14l-.48,1.55c-4.21,13.66-8.25,25.27-12.68,36.53a505.13,505.13,0,0,1-30.06,63.12H527.26v17.27l33.58,0,2.08-.34-.42-3.29a24.39,24.39,0,0,1-.29-3.21,36.39,36.39,0,0,1,.66-6.57l.24-1.3a37.17,37.17,0,0,1,1.86-6l.44-1a39.17,39.17,0,0,1,3.11-5.69,37,37,0,0,1,4.09-5l.72-.7a37.52,37.52,0,0,1,4.23-3.52c.58-.41,1.19-.78,1.8-1.14L580,553a33.65,33.65,0,0,1,3.17-1.73c.79-.37,1.58-.75,2.39-1.07a39.14,39.14,0,0,1,5.08-1.57,7.37,7.37,0,0,0,.85-.24,36.46,36.46,0,0,1,43.72,35.76,22.8,22.8,0,0,1-.3,3.21l-.43,3.67h35.6V573.79H656.44a501.22,501.22,0,0,1-30-62.88c-4.47-11.33-8.52-23-12.76-36.77l-.47-1.55ZM531.67,586.65V578.2H543.5l.63-1.12a509.52,509.52,0,0,0,31-64.79c4.31-10.94,8.24-22.19,12.31-35.3h22.54c4.1,13.2,8.05,24.53,12.39,35.53a505.37,505.37,0,0,0,30.92,64.57l.63,1.11h11.77v8.45l-26.22,0a20.55,20.55,0,0,0,.17-2.49,40.91,40.91,0,0,0-49-40.08,9.43,9.43,0,0,0-.94.27,38.66,38.66,0,0,0-5.7,1.76c-.92.35-1.8.77-2.68,1.18-1.22.59-2.41,1.24-3.58,2l-.58.35c-.71.43-1.43.86-2.12,1.35a43.66,43.66,0,0,0-4.85,4l-.68.67a40.47,40.47,0,0,0-4.54,5.5l-.29.46a41.68,41.68,0,0,0-3.38,6.27l-.35.77a39.55,39.55,0,0,0-2.08,6.68l-.27,1.44a40.12,40.12,0,0,0-.74,7.38,22.43,22.43,0,0,0,.16,2.47Z"/><path class="cls-3" d="M598.69,552.41a32.32,32.32,0,0,0-5.75.57l-.64.07a12.7,12.7,0,0,0-1.41.43,32.84,32.84,0,0,0-3.2,1c-.83.32-1.66.64-2.45,1s-1.33.7-2.26,1.23l-.67.35a13.67,13.67,0,0,0-1.42.8,1.75,1.75,0,0,0-.39.35,30.64,30.64,0,0,0-4.76,4.11c-.41.44-.78.9-1.15,1.37l-.42.52a30.4,30.4,0,0,0-2.64,3.73c-.45.74-.87,1.51-1.25,2.3a31.65,31.65,0,0,0-1.76,4.46l-.21.61c-.17.54-.35,1.07-.47,1.61a31.18,31.18,0,0,0-.92,7.26,31.61,31.61,0,0,0,.5,5,1.9,1.9,0,0,0,.13.48l.28,2.27,1.29,3.55c.28.71.61,1.39,1,2.06l.38.78a4.9,4.9,0,0,0,.4.82,34.26,34.26,0,0,0,4,5.77c.25.3.52.57.87,1a27.65,27.65,0,0,0,4.84,4.3l.42.35a8.59,8.59,0,0,0,1,.52,32.16,32.16,0,0,0,3.79,2.06c.5.23,1,.42,1.67.66a35.16,35.16,0,0,0,4.11,1.29,5.91,5.91,0,0,0,.82.24,4.19,4.19,0,0,0,.63.07,31.84,31.84,0,0,0,5.77.57,32.73,32.73,0,0,0,4.64-.34c.51-.08,1-.19,1.49-.31l1-.22c.64-.13,1.27-.27,1.92-.46.9-.27,1.77-.62,3-1.11.34-.13.69-.26,1-.42a34.87,34.87,0,0,0,3.14-1.68l.59-.35a30.65,30.65,0,0,0,2.91-2.1l.51-.41a30.86,30.86,0,0,0,2.56-2.41l.56-.6a33.76,33.76,0,0,0,2.19-2.69l.6-.89c.6-.88,1.17-1.78,1.82-3a7.83,7.83,0,0,0,.38-.87l.29-.57c.34-.67.68-1.35,1-2.07l1.16-3,.54-3.27a31.26,31.26,0,0,0-31.28-36.79Zm26.92,36.1-.39,2.63-1.07,2.76a15,15,0,0,1-.78,1.67l-.74,1.56a29.15,29.15,0,0,1-1.61,2.56l-.37.57c-.59.81-1.23,1.57-1.87,2.29l-.49.53a27.78,27.78,0,0,1-2.23,2.1l-.51.4a25.8,25.8,0,0,1-2.39,1.73l-.79.46a24.93,24.93,0,0,1-2.45,1.3c-.24.12-.5.21-.75.31l-.47.18c-.75.3-1.49.6-2.25.83-.51.15-1,.25-1.56.37l-1.09.24a10.4,10.4,0,0,1-1.11.23,25.21,25.21,0,0,1-8.93-.19l-.81-.13a6.41,6.41,0,0,0-.67-.21,28.14,28.14,0,0,1-3.51-1.11c-.43-.16-.87-.32-1.27-.5a27.88,27.88,0,0,1-3.24-1.76,1.32,1.32,0,0,0-.54-.23h0l-.41-.34a26.61,26.61,0,0,1-4.47-4c-.22-.23-.44-.46-.63-.69a29.82,29.82,0,0,1-3.62-5.35l-.54-1.15a18,18,0,0,1-.78-1.66l-1.06-2.77-.26-2.08a3.16,3.16,0,0,0-.14-.55,27.76,27.76,0,0,1-.44-4.33,27,27,0,0,1,.8-6.26c.09-.41.23-.8.36-1.2l.23-.7a26.83,26.83,0,0,1,1.51-3.83c.33-.67.69-1.34,1.08-2a25.68,25.68,0,0,1,2.28-3.2l.46-.59c.29-.35.56-.71.88-1a27.75,27.75,0,0,1,4.13-3.57,1.85,1.85,0,0,0,.34-.3,7.58,7.58,0,0,1,.88-.49c.31-.15.6-.3,1.16-.62s1.1-.63,1.68-.9,1.41-.61,2.11-.88c.9-.33,1.82-.61,2.75-.85.26-.07.51-.15.76-.24a2.23,2.23,0,0,1,.44-.13l.57-.06a27,27,0,0,1,4.94-.51,27.39,27.39,0,0,1,27.36,27.37A27.76,27.76,0,0,1,625.61,588.51Z"/><path d="M598.69,552.41a32.32,32.32,0,0,0-5.75.57l-.64.07a12.7,12.7,0,0,0-1.41.43,32.84,32.84,0,0,0-3.2,1c-.83.32-1.66.64-2.45,1s-1.33.7-2.26,1.23l-.67.35a13.67,13.67,0,0,0-1.42.8,1.75,1.75,0,0,0-.39.35,30.64,30.64,0,0,0-4.76,4.11c-.41.44-.78.9-1.15,1.37l-.42.52a30.4,30.4,0,0,0-2.64,3.73c-.45.74-.87,1.51-1.25,2.3a31.65,31.65,0,0,0-1.76,4.46l-.21.61c-.17.54-.35,1.07-.47,1.61a31.18,31.18,0,0,0-.92,7.26,31.61,31.61,0,0,0,.5,5,1.9,1.9,0,0,0,.13.48l.28,2.27,1.29,3.55c.28.71.61,1.39,1,2.06l.38.78a4.9,4.9,0,0,0,.4.82,34.26,34.26,0,0,0,4,5.77c.25.3.52.57.87,1a27.65,27.65,0,0,0,4.84,4.3l.42.35a8.59,8.59,0,0,0,1,.52,32.16,32.16,0,0,0,3.79,2.06c.5.23,1,.42,1.67.66a35.16,35.16,0,0,0,4.11,1.29,5.91,5.91,0,0,0,.82.24,4.19,4.19,0,0,0,.63.07,31.84,31.84,0,0,0,5.77.57,32.73,32.73,0,0,0,4.64-.34c.51-.08,1-.19,1.49-.31l1-.22c.64-.13,1.27-.27,1.92-.46.9-.27,1.77-.62,3-1.11.34-.13.69-.26,1-.42a34.87,34.87,0,0,0,3.14-1.68l.59-.35a30.65,30.65,0,0,0,2.91-2.1l.51-.41a30.86,30.86,0,0,0,2.56-2.41l.56-.6a33.76,33.76,0,0,0,2.19-2.69l.6-.89c.6-.88,1.17-1.78,1.82-3a7.83,7.83,0,0,0,.38-.87l.29-.57c.34-.67.68-1.35,1-2.07l1.16-3,.54-3.27a31.26,31.26,0,0,0-31.28-36.79Zm-15,54.69-.41-.34a26.61,26.61,0,0,1-4.47-4c-.22-.23-.44-.46-.63-.69a29.82,29.82,0,0,1-3.62-5.35l-.54-1.15a18,18,0,0,1-.78-1.66l-1.06-2.77-.26-2.08a4.43,4.43,0,0,0-.13-.55,26.62,26.62,0,0,1-.45-4.33,27,27,0,0,1,.8-6.26c.09-.41.23-.8.36-1.2l.23-.7a26.83,26.83,0,0,1,1.51-3.83c.33-.67.69-1.34,1.08-2a25.68,25.68,0,0,1,2.28-3.2l.46-.59c.29-.35.56-.71.88-1a27.75,27.75,0,0,1,4.13-3.57,1.85,1.85,0,0,0,.34-.3,7.58,7.58,0,0,1,.88-.49c.31-.15.6-.3,1.16-.62s1.1-.63,1.68-.9,1.41-.61,2.11-.88c.9-.33,1.82-.61,2.75-.85.26-.07.51-.15.76-.24a2.23,2.23,0,0,1,.44-.13l.57-.06a27,27,0,0,1,4.94-.51,27.39,27.39,0,0,1,27.36,27.37,27.76,27.76,0,0,1-.44,4.33l-.39,2.63-1.07,2.76a15,15,0,0,1-.78,1.67l-.74,1.56a29.15,29.15,0,0,1-1.61,2.56l-.37.57c-.59.81-1.23,1.57-1.87,2.29l-.49.53a27.78,27.78,0,0,1-2.23,2.1l-.51.4a25.8,25.8,0,0,1-2.39,1.73l-.79.46a24.93,24.93,0,0,1-2.45,1.3c-.24.12-.5.21-.75.31l-.47.18c-.75.3-1.49.6-2.25.83-.51.15-1,.25-1.56.37l-1.09.24a10.4,10.4,0,0,1-1.11.23,26.94,26.94,0,0,1-3.92.31,27.38,27.38,0,0,1-5-.5l-.81-.13a6.41,6.41,0,0,0-.67-.21,28.14,28.14,0,0,1-3.51-1.11c-.43-.16-.87-.32-1.27-.5a27.88,27.88,0,0,1-3.24-1.76,1.32,1.32,0,0,0-.54-.23Z"/><path d="M598.37,679.41a201.2,201.2,0,0,1-21-1.11l-2-.21V637.62h43.9v40.67l-2,.19C610.84,679.1,604.46,679.41,598.37,679.41Zm-18.53-5.3a191.08,191.08,0,0,0,35.09.16V642H579.84Z"/><path class="cls-4" d="M536.13,502.82a5.82,5.82,0,0,0-3.1-.8c-2.07-.21-3.87.16-5.94.1,2.07.06,4.19.08,6.26.3Z"/><path class="cls-4" d="M489.65,499.53a7.09,7.09,0,0,0,.82,1.18A7.09,7.09,0,0,1,489.65,499.53Z"/><path class="cls-4" d="M485.11,494.85a7.78,7.78,0,0,1,3,.36A5.91,5.91,0,0,0,485.11,494.85Z"/><path d="M402.54,480.45a194.87,194.87,0,0,1,26-97.44,67,67,0,0,1-1.07-6.83,199.25,199.25,0,0,0-29.34,104.27v.12c1.47,0,2.94.07,4.41.08Z"/><path d="M541.67,503.34c-1.89-4.67-8.43-4.29-12.49-4.45a127.38,127.38,0,0,0-25,.91c-2.48.33-4.52.66-5.91.9a5.23,5.23,0,0,1-5.07-1.9,4.94,4.94,0,0,1-.91-3,2.66,2.66,0,0,0,.13-.89,3,3,0,0,0-.06-.59,4.16,4.16,0,0,0-2.78-2.11c-6.55-1.92-15.81,1.2-22.37,1.71a118.37,118.37,0,0,1-12.49.3c-1.8-.05-10.43.67-9.41-2.42.47-1.43,5.49-3.6,6.67-4,1.56-.57,3.4-.63,4.89-1.29s2.82-1.72,3-3.61c1-11.61-20.83-4.73-26-4.1a243.16,243.16,0,0,1-31.26,1.93c0,1.12,0,2.22.07,3.33,7.95,0,15.92-.49,23.82-1.19,4.79-.42,9.59-.94,14.33-1.75,1.9-.32,3.76-.78,5.64-1.14a19.9,19.9,0,0,1,5.21-.55l2.17.37c3.7.2,1.43,4.29-1.07,4.28-3.5,2.45-9.18,2.64-11.19,7.24-1.48,3.39,1.53,5.14,4.39,5.66,6.49,1.18,13.68.8,20.21.35,3.23-.22,6.44-.61,9.65-1.05a75,75,0,0,1,9.34-1.35,5.91,5.91,0,0,1,3,.36,2.1,2.1,0,0,1,.87.55c-.34-.42.2,2.48.24,2.62a5.39,5.39,0,0,0,.47,1.15,7.09,7.09,0,0,0,.82,1.18,8.14,8.14,0,0,0,3.56,2.44c3.23,1.16,6.82.32,10.1,0q6.24-.71,12.51-.94c3.48-.13,7-.14,10.45-.05,2.07.06,3.88-.07,5.94-.1a5.82,5.82,0,0,1,3.1.8l.17.12c.06.05.13.08.18.13,1.15,1.36,1,3-.68,4.63-1.24,1.8-9.5,2.32-11.63,2.67-4.45.74-8.94,1.22-13.42,1.79-4.23.53-27.69,1.7-25.75,9.57.36,1.45,1.63,2.11,2.76,2.82,1.85,1.16,9.88,2.87,5,5.69-2.65,1.53-8.46,1-11.59,1.34l-14,1.52-14,1.52-4.3.47c-1.25.15-2.49.28-3.74.38q-6-2.64-1.49-4.64c2.51-2.11,4.52-5.63,1.13-8-4.48-3.11-12.32-.83-17.15.21a100.1,100.1,0,0,1-19.89,2.37c.26,1.12.56,2.22.84,3.34a85.65,85.65,0,0,0,13.92-1.25c4.53-.81,9-2.27,13.62-2.58,3.13-.21,7.9-1.47,4.74,3.84-.48.81-1.66,1.25-2.22,2.12-1.9,3-.24,6.32,3,7.49,2.89,1.07,6.52.1,9.44-.22l12.9-1.4q12.92-1.39,25.81-2.8c3-.34,8.39-.84,8.82-4.86.51-4.69-10.67-6.7-9.46-9,.92-1.71,8.29-2.51,10.27-2.91,5.07-1,10.21-1.62,15.34-2.26S545.85,513.6,541.67,503.34Z"/><path d="M475.77,496.2c3.07-.49,6.71-1.21,9.34-1.35A75,75,0,0,0,475.77,496.2Z"/><path d="M489.18,498.38c0-.14-.58-3-.24-2.62a2.1,2.1,0,0,0-.87-.55,1.05,1.05,0,0,1,.48.42C488.73,496,488.68,496.7,489.18,498.38Z"/><path d="M489.65,499.53a5.39,5.39,0,0,1-.47-1.15,6.06,6.06,0,0,0,.43,1.1Z"/><path d="M466.12,497.25a92.72,92.72,0,0,0,9.65-1.05C472.56,496.64,469.35,497,466.12,497.25Z"/><path d="M398.13,480.57c0,.53,0,1.05,0,1.59l2.1,1.77c.78,0,1.56.05,2.35.05,0-1.11-.07-2.21-.07-3.33C401.07,480.64,399.6,480.61,398.13,480.57Z"/><path d="M407.75,525.42c-1.49,0-3,0-4.53-.11.26,1.14.52,2.27.8,3.4,1.53.06,3.05.06,4.57,0C408.31,527.64,408,526.54,407.75,525.42Z"/><path d="M398.2,483.88l2.06.05-2.1-1.77C398.17,482.73,398.19,483.3,398.2,483.88Z"/><path d="M560.87,368.86a64.66,64.66,0,0,1-128.81,8.21c-1.22,1.95-2.37,3.95-3.52,5.94a69.09,69.09,0,1,0,87.38-80.34q-3.07,1.44-6.1,3A64.78,64.78,0,0,1,560.87,368.86Z"/><path d="M432.06,377.07a61.83,61.83,0,0,1-.53-7.24c-1.39,2.09-2.75,4.2-4.06,6.35a67,67,0,0,0,1.07,6.83C429.69,381,430.84,379,432.06,377.07Z"/><path d="M509.82,305.65q3-1.54,6.1-3A67.89,67.89,0,0,0,509.2,301c-2.22,1.11-4.4,2.28-6.58,3.47A62.8,62.8,0,0,1,509.82,305.65Z"/><path d="M471.2,366.65a5.57,5.57,0,1,1-5.57,5.57,5.58,5.58,0,0,1,5.57-5.57m0-4.41a10,10,0,1,0,10,10,10,10,0,0,0-10-10Z"/><path d="M522.86,343.93a13.68,13.68,0,1,1-13.68,13.68,13.69,13.69,0,0,1,13.68-13.68m0-4.41A18.09,18.09,0,1,0,541,357.61a18.09,18.09,0,0,0-18.09-18.09Z"/><path d="M499.51,400.69a2,2,0,1,1-2,2,2,2,0,0,1,2-2m0-4.41a6.39,6.39,0,1,0,6.38,6.39,6.39,6.39,0,0,0-6.38-6.39Z"/><path d="M793,507.41a29.75,29.75,0,0,0-10.78.48,56.1,56.1,0,0,0-6.68,2.17,50.46,50.46,0,0,1-6.36,2.06c-4.54,1-8.57.28-10.78-2a3,3,0,0,1-1-2.39c.23-1.16,2-2.06,3.6-2.71l7.06-3c1.91-.8,5.46-2.29,6.48-5.7,1.36-4.5-2.53-8.42-6.72-10.16a29.19,29.19,0,0,0-19.4-1v0c-14.37,5-30.29,3.15-45.69,1.39l-2.62-.29c-19.95-2.25-40.24-3.69-60.31-4.29-3.66-.11-6.63-.32-8.72-2a4.52,4.52,0,0,1-1.56-3.61,2,2,0,0,1,.86-1.68,6.33,6.33,0,0,1,3.17-.43c6.71.1,13.19.47,19.46.82,17.72,1,34.44,2,52.79-3.3l1.24-.24c4.17-.81,7.22-1.53,8.44-3.56a3.39,3.39,0,0,0,.34-2.78c-1.19-3.91-5.81-5-7.33-5.35a14.09,14.09,0,0,1-5.31-2.9c-.43-.34-.58-.6-.58-.68,0-.46,1-1.61,3.07-2.74s4.73-1.09,7.13-1l42.49.7c6.38.13,12.83-.47,16.57-5.26,3.21-4.1,3.11-10.54-.24-15.31-1.63-2.32-4.45-3.28-6.94-4.13-1.78-.6-3.8-1.29-4-2.33.67-.9,5.31-.86,7.07-.87.67,0,1.31,0,1.88,0l21.83-.38-.65-2.29c-23.14-76.71-91.08-134.17-173.27-141.84-6.18-.57-12.43-.9-18.76-.9A203.09,203.09,0,0,0,578,281,199.08,199.08,0,0,0,509.2,301a67.89,67.89,0,0,1,6.72,1.64,194.84,194.84,0,0,1,62-17.27,200.24,200.24,0,0,1,20.74-1.1c6.33,0,12.58.34,18.76.93,79,7.53,144.45,62.1,168,135.31l-16,.36c-.52,0-1.12,0-1.76,0-4,0-8.4,0-10.48,2.46a4.52,4.52,0,0,0-.9,3.89c.68,3.33,4,4.45,6.88,5.44,1.94.66,4,1.34,4.75,2.48,2.23,3.17,2.38,7.5.38,10.07-2.69,3.43-8.11,3.64-13,3.56l-42.48-.7c-2.82,0-6.3-.09-9.34,1.58-2.29,1.27-5.08,3.38-5.32,6.23a5.1,5.1,0,0,0,2.23,4.5,18,18,0,0,0,7,3.73c1.94.46,3.22,1.06,3.81,1.78a29.3,29.3,0,0,1-5.08,1.3l-1.46.29c-17.8,5.1-34.16,4.17-51.49,3.18-6.31-.36-12.84-.73-19.65-.83a10,10,0,0,0-5.49,1.06,6.35,6.35,0,0,0-3,5.18,8.86,8.86,0,0,0,3.24,7.36c3.4,2.66,8,2.8,11.31,2.9,19.95.59,40.12,2,59.95,4.26l2.61.29c15.91,1.82,32.37,3.69,47.7-1.63v0a25,25,0,0,1,16.18.95c2.09.86,4.77,2.93,4.2,4.82-.38,1.25-2.13,2.14-4,2.91l-7.06,3c-1.79.76-5.5,2.32-6.21,5.92a7.18,7.18,0,0,0,2.18,6.3A13.79,13.79,0,0,0,765.33,517a21.75,21.75,0,0,0,4.78-.56,54.31,54.31,0,0,0,6.92-2.23,53.82,53.82,0,0,1,6.16-2,25,25,0,0,1,9.14-.41A196.1,196.1,0,0,1,664.74,665.15V595.77H633.09l-.55,1.4c-.38,1-.79,2-1.27,2.94l-.29.64c-.12.25-.23.51-.37.76-.42.78-.9,1.51-1.57,2.53l-.31.48c-.31.48-.61,1-1,1.41-.53.71-1.11,1.37-1.85,2.21-.51.59-1,1.18-1.56,1.73s-1.26,1.19-1.91,1.76-1.31,1.12-2,1.64-1.37,1-2.08,1.45-1.5.93-2.27,1.36-1.45.79-2.21,1.15-1.7.72-2.91,1.17c-.63.25-1.26.48-1.9.68-1,.3-2.05.52-3.08.73l-.78.17a12,12,0,0,1-1.22.25,33.46,33.46,0,0,1-11.94-.25c-.51-.09-1-.22-1.49-.34l-.65-.17a34.91,34.91,0,0,1-4-1.24c-.82-.3-1.64-.63-2.44-1a34.38,34.38,0,0,1-3.28-1.77,36.44,36.44,0,0,1-6.37-4.71l-.4-.4a35.56,35.56,0,0,1-2.79-3.07c-.35-.44-.7-.88-1-1.33-.59-.8-1.13-1.64-1.67-2.5l-.24-.38c-.32-.51-.64-1-.92-1.52-.13-.24-.24-.49-.36-.74l-.32-.71c-.48-1-.89-2-1.27-2.93l-.68-1.41H532.64v69.37a196.1,196.1,0,0,1-124-136.39c-1.52,0-3,0-4.57,0A200.48,200.48,0,0,0,534.14,670.34l2.91,1V600.18H561.3c.26.63.54,1.26.85,1.88l.27.57c.15.34.31.69.5,1,.33.61.7,1.19,1.29,2.11s1.2,1.9,1.87,2.8c.37.51.77,1,1.16,1.49a43.43,43.43,0,0,0,3.23,3.55l.36.35a41,41,0,0,0,7.12,5.28c1.21.72,2.42,1.4,3.7,2,.91.41,1.82.78,2.74,1.12a41.58,41.58,0,0,0,4.48,1.39l.63.16c.58.15,1.16.29,1.76.4a37.42,37.42,0,0,0,13.39.28c.54-.07,1.06-.19,1.58-.31l.68-.15c1.17-.25,2.32-.49,3.46-.83.75-.23,1.47-.5,2.54-.9s1.92-.75,2.86-1.18,1.66-.83,2.48-1.28,1.72-1,2.56-1.53,1.55-1,2.31-1.62,1.51-1.2,2.24-1.84,1.46-1.29,2.13-2,1.2-1.28,1.92-2.12,1.31-1.5,1.9-2.3c.4-.53.76-1.1,1.13-1.66l.47-.72c.55-.84,1.09-1.68,1.57-2.55.19-.35.35-.71.52-1.08l.23-.5c.31-.62.59-1.25.86-1.88h24.24v71.15l2.92-1A200.51,200.51,0,0,0,796.64,512.75l.82-4.65Z"/><rect x="595.18" y="568.92" width="4.41" height="19.96"/><rect x="595.18" y="584.47" width="25.23" height="4.41"/></svg>