<svg id="Layer_1" data-name="Layer 1" xmlns="http://www.w3.org/2000/svg" viewBox="0 0 1000 1200"><defs><style>.cls-1{font-size:221.34px;font-family:K-haus105-Regular, "K-haus 105";}.cls-2{letter-spacing:-0.02em;}</style></defs><title>coffee-logo</title><path d="M246.68,744.94C128.47,749.07,36,848.26,40.1,966.47a213.27,213.27,0,0,0,47.42,127.08L27,1158.43l44,41.07,60.5-64.88a213.19,213.19,0,0,0,130.07,38.43c118.22-4.12,210.71-103.31,206.58-221.53S364.9,740.82,246.68,744.94Zm13,373.19A159.23,159.23,0,1,1,413.29,953.44,159.23,159.23,0,0,1,259.72,1118.13Z"/><path d="M973,308.73,929.67,266.9,867.81,331a213.18,213.18,0,0,0-129.39-40.69C620.15,292.32,525.94,389.87,528,508.15S627.62,720.63,745.9,718.56s212.48-99.62,210.41-217.89a213.22,213.22,0,0,0-45.19-127.89Zm-228,354.88a159.23,159.23,0,1,1,156.42-162A159.23,159.23,0,0,1,744.94,663.61Z"/><circle cx="254.54" cy="959.31" r="139.5"/><circle cx="742.11" cy="504.1" r="139.5"/><path d="M263,666q55.63,0,94.12-32.57t59.35-96.56L386.1,523.7q-20.43,56.07-49,82.88t-68.28,26.77q-50.07,0-79.17-39.41T160.53,486.6q0-65.64,29.56-106t77.31-40.34q40.78,0,71.06,29t45.56,83h28.51l-4.17-140H378.92q-1.83,12.25-7,18.78a15.76,15.76,0,0,1-13,6.49q-1.65,0-34.31-14.95a164.76,164.76,0,0,0-69.32-14.95q-68.59,0-115.69,51.35T92.6,486.6q0,78.6,47.76,129T263,666Z"/><path d="M872.06,845.31q-33.82-25.47-98.07-25.5H578.32v33.38h15.07c18.37,0,30.31,3,35.7,8.81s8.12,17.45,8.12,34.78v188q0,26.43-9.16,35.35t-32.81,8.93H578.32v32.69H749.65v-32.69H732.49c-14.2,0-24.75-2.78-31.53-8.35s-10.2-14.2-10.2-26v-81.61h56.1q42,0,64.22-2.2t35.94-7.31Q875.27,993,890.6,971.08t15.3-52Q905.9,870.79,872.06,845.31Zm-49.5,119.51q-20.77,16.08-60.63,16.12H690.76v-83.7c0-18.25,3.07-30.19,9.16-35.93s24.63-8.58,55.52-8.58q45.64,0,66.77,15.65t21.1,49.26Q843.31,948.69,822.56,964.82Z"/><text class="cls-1" transform="translate(109.04 185.65)">The Cof<tspan class="cls-2" x="599.84" y="0">f</tspan><tspan x="657.39" y="0">ee</tspan></text></svg>