<svg id="Layer_1" data-name="Layer 1" xmlns="http://www.w3.org/2000/svg" viewBox="0 0 980 981"><defs><style>.cls-1{fill:#8ba568;}.cls-2{fill:#67873a;}.cls-3{fill:#de917e;}.cls-4{fill:#c3352f;}.cls-5{fill:#65863a;}.cls-17,.cls-6{fill:#b69d88;}.cls-7{fill:#56493a;}.cls-8{fill:#736458;}.cls-9{fill:#969bc6;}.cls-10{fill:#2d368e;}.cls-11,.cls-23{fill:#f8aa83;}.cls-12{fill:#f17443;}.cls-13,.cls-24{fill:#d05d4a;}.cls-14{fill:#b2a9a7;}.cls-15{fill:#fdd1a9;}.cls-16{fill:#ac8e78;}.cls-17,.cls-18,.cls-20,.cls-23,.cls-24{fill-rule:evenodd;}.cls-18,.cls-19{fill:#fff;}.cls-20,.cls-22{fill:#ffd67b;}.cls-21{fill:#fbad18;}.cls-25{fill:#d2cfd1;}.cls-26{fill:#807877;}.cls-27{fill:#3e3b3a;}</style></defs><title>coffee-icons</title><path class="cls-1" d="M256,151.94a39.14,39.14,0,0,1-20.31,12.67,37.78,37.78,0,0,1-14.84.56,53.52,53.52,0,0,1,19.75-27.49Z"/><path class="cls-2" d="M226.93,168.79a41.37,41.37,0,0,1-6.54-.52l-3.58-.56,1.08-3.47a56.7,56.7,0,0,1,20.89-29.1l2.09-1.52,19.5,18.07L258.42,154a42.62,42.62,0,0,1-22,13.68A40.85,40.85,0,0,1,226.93,168.79Zm-1.77-6.32a34.44,34.44,0,0,0,9.82-.91,35.65,35.65,0,0,0,16.61-9.45l-11.15-10.33a50.39,50.39,0,0,0-15.28,20.69Z"/><path class="cls-1" d="M279.07,100.59a39.14,39.14,0,0,1,20.4-12.52,38.19,38.19,0,0,1,14.84-.46,53,53,0,0,1-5.57,12.06A54.14,54.14,0,0,1,294.37,115Z"/><path class="cls-2" d="M294.1,119l-19.38-18.21,2-2.28A42.46,42.46,0,0,1,298.76,85a40.77,40.77,0,0,1,16.07-.5l3.57.59-1.1,3.46a56.64,56.64,0,0,1-21.1,29Zm-10.59-18.57,11.08,10.42A50.33,50.33,0,0,0,310,90.29a34.08,34.08,0,0,0-9.82.84A35.67,35.67,0,0,0,283.51,100.45Z"/><ellipse class="cls-3" cx="268" cy="148.16" rx="16.6" ry="22.13"/><path class="cls-4" d="M268,173.43c-10.88,0-19.73-11.34-19.73-25.27s8.85-25.27,19.73-25.27,19.74,11.34,19.74,25.27S278.89,173.43,268,173.43Zm0-44.26c-7.42,0-13.45,8.52-13.45,19s6,19,13.45,19,13.46-8.52,13.46-19S275.43,129.17,268,129.17Z"/><ellipse class="cls-3" cx="268" cy="103.9" rx="16.6" ry="22.13"/><path class="cls-4" d="M268,129.17c-10.88,0-19.73-11.34-19.73-25.27S257.12,78.63,268,78.63,287.74,90,287.74,103.9,278.89,129.17,268,129.17Zm0-44.26c-7.42,0-13.45,8.52-13.45,19s6,19,13.45,19,13.46-8.52,13.46-19S275.43,84.91,268,84.91Z"/><ellipse class="cls-3" cx="290.13" cy="126.03" rx="22.13" ry="16.6"/><path class="cls-4" d="M290.13,145.77c-13.93,0-25.26-8.86-25.26-19.74s11.33-19.73,25.26-19.73S315.4,115.15,315.4,126,304.07,145.77,290.13,145.77Zm0-33.2c-10.47,0-19,6-19,13.46s8.52,13.46,19,13.46,19-6,19-13.46S300.61,112.57,290.13,112.57Z"/><ellipse class="cls-3" cx="245.88" cy="126.03" rx="22.13" ry="16.6"/><path class="cls-4" d="M245.87,145.77c-13.93,0-25.26-8.86-25.26-19.74s11.33-19.73,25.26-19.73,25.27,8.85,25.27,19.73S259.81,145.77,245.87,145.77Zm0-33.2c-10.47,0-19,6-19,13.46s8.52,13.46,19,13.46,19-6,19-13.46S256.35,112.57,245.87,112.57Z"/><circle class="cls-3" cx="268" cy="126.03" r="11.06"/><path class="cls-4" d="M268,140.23a14.2,14.2,0,1,1,14.2-14.2A14.22,14.22,0,0,1,268,140.23Zm0-22.13a7.93,7.93,0,1,0,7.92,7.93A7.94,7.94,0,0,0,268,118.1Z"/><path class="cls-5" d="M489.61,581.52A44,44,0,0,1,479.53,580a72,72,0,0,1-9.39-3.19,68.56,68.56,0,0,1-8.87-4.43,43.38,43.38,0,0,1-8.18-6.08,43,43,0,0,1,10.08,1.53,72.39,72.39,0,0,1,18.25,7.63A43.76,43.76,0,0,1,489.61,581.52Z"/><path class="cls-3" d="M469.76,651.73,449.07,615.9a22.92,22.92,0,0,1,19.85-34.38H510.3a22.92,22.92,0,0,1,19.85,34.38l-20.69,35.83A22.92,22.92,0,0,1,469.76,651.73Z"/><path class="cls-4" d="M509.87,587.79a16.9,16.9,0,0,1,14.63,25.34l-20.27,35.09a16.88,16.88,0,0,1-29.25,0l-20.26-35.09a16.9,16.9,0,0,1,14.62-25.34h40.53m0-6.27H469.34a23.16,23.16,0,0,0-20.06,34.74l20.27,35.1a23.16,23.16,0,0,0,40.12,0l20.26-35.1a23.16,23.16,0,0,0-20.06-34.74Z"/><path class="cls-5" d="M489.61,581.52a43.38,43.38,0,0,1,8.18-6.08,72.66,72.66,0,0,1,18.26-7.63,43,43,0,0,1,10.08-1.53,43.38,43.38,0,0,1-8.18,6.08,69.87,69.87,0,0,1-8.87,4.43,72.18,72.18,0,0,1-9.4,3.19A44,44,0,0,1,489.61,581.52Z"/><path class="cls-5" d="M489.61,581.52a35.77,35.77,0,0,1-7.56-5.1,57.05,57.05,0,0,1-6.19-6.25,55.39,55.39,0,0,1-5.17-7.13,35,35,0,0,1-3.8-8.28,34.76,34.76,0,0,1,7.56,5.09,55.43,55.43,0,0,1,6.19,6.26,56.29,56.29,0,0,1,5.16,7.13A35,35,0,0,1,489.61,581.52Z"/><path class="cls-5" d="M489.61,581.52a35.4,35.4,0,0,1,3.8-8.28,56.36,56.36,0,0,1,5.17-7.13,53.79,53.79,0,0,1,6.19-6.26,34.76,34.76,0,0,1,7.56-5.09,35.4,35.4,0,0,1-3.8,8.28,57.23,57.23,0,0,1-11.37,13.38A35.7,35.7,0,0,1,489.61,581.52Z"/><path class="cls-5" d="M489.61,581.52a33.41,33.41,0,0,1-2.46-8.52,54,54,0,0,1,0-17,33,33,0,0,1,2.47-8.52,33,33,0,0,1,2.46,8.52,52,52,0,0,1,.67,8.52,53.14,53.14,0,0,1-.67,8.51A33.82,33.82,0,0,1,489.61,581.52Z"/><rect class="cls-6" x="683.68" y="553.56" width="46.64" height="103.51"/><path class="cls-7" d="M733.46,660.22H680.54V550.43h52.92Zm-46.65-6.28h40.37V556.7H686.81Z"/><rect class="cls-7" x="683.68" y="565.21" width="46.64" height="6.28"/><rect class="cls-7" x="683.68" y="580" width="46.64" height="6.28"/><rect class="cls-7" x="683.68" y="594.79" width="46.64" height="6.28"/><rect class="cls-8" x="683.68" y="609.58" width="46.64" height="6.28"/><rect class="cls-8" x="683.68" y="653.94" width="46.64" height="6.28"/><rect class="cls-7" x="703.86" y="553.56" width="6.28" height="59.15"/><rect class="cls-3" x="683.68" y="612.72" width="46.64" height="44.36"/><path class="cls-4" d="M733.46,660.22H680.54V609.58h52.92Zm-46.65-6.28h40.37V615.85H686.81Z"/><path class="cls-4" d="M739.92,635.72,734.83,632a11.26,11.26,0,0,0,1.44-9.74,11.1,11.1,0,0,0-6.88-6.59l1.86-6a17.36,17.36,0,0,1,10.94,10.49C745,628.3,740.45,635,739.92,635.72Z"/><path class="cls-4" d="M669.87,631.45a17.35,17.35,0,0,1,2.45-15c5-6.93,13.16-6.92,14.07-6.91l-.16,6.28a10.54,10.54,0,0,0-10.37,13.72Z"/><circle class="cls-9" cx="683.37" cy="369.54" r="28.83"/><path class="cls-10" d="M683.35,401.52a32,32,0,0,1-30.13-21.34h0a31.91,31.91,0,1,1,30.13,21.34Zm0-57.69a25.71,25.71,0,0,0-24.25,34.26h0a25.67,25.67,0,1,0,24.25-34.26Z"/><line class="cls-9" x1="681.18" y1="329.13" x2="677.13" y2="341.17"/><polygon class="cls-10" points="681.18 329.13 680.11 342.17 674.16 340.17 681.18 329.13"/><line class="cls-9" x1="656.91" y1="337.7" x2="667.62" y2="344.53"/><polygon class="cls-10" points="656.91 337.7 669.3 341.88 665.93 347.17 656.91 337.7"/><line class="cls-9" x1="667.87" y1="330.09" x2="672.1" y2="342.06"/><polygon class="cls-10" points="667.87 330.09 675.06 341.02 669.14 343.11 667.87 330.09"/><circle class="cls-9" cx="717.94" cy="392.68" r="28.83"/><path class="cls-10" d="M718,424.67a32,32,0,1,1,30.12-21.35h0A32,32,0,0,1,718,424.67ZM718,367a25.74,25.74,0,0,0-24.25,17.14,25.69,25.69,0,1,0,48.45,17.1h0A25.68,25.68,0,0,0,718,367Z"/><line class="cls-9" x1="720.13" y1="352.28" x2="724.18" y2="364.31"/><polygon class="cls-10" points="720.13 352.27 727.16 363.31 721.21 365.31 720.13 352.27"/><line class="cls-9" x1="744.41" y1="360.84" x2="733.7" y2="367.67"/><polygon class="cls-10" points="744.41 360.84 735.38 370.31 732.01 365.02 744.41 360.84"/><line class="cls-9" x1="733.44" y1="353.23" x2="729.22" y2="365.21"/><polygon class="cls-10" points="733.44 353.23 732.18 366.25 726.26 364.16 733.44 353.23"/><polygon class="cls-5" points="53.17 101.32 55.19 81.83 61.25 83.47 53.17 101.32"/><path class="cls-5" d="M55.21,91.71a19.12,19.12,0,0,1-8.83.78A19.33,19.33,0,0,1,39.44,90a19,19,0,0,1-9.13-13,19.2,19.2,0,0,1,24.9,14.63Z"/><circle class="cls-11" cx="51.08" cy="136.46" r="36.54"/><path class="cls-12" d="M51.08,176a39.51,39.51,0,1,1,39.51-39.51A39.56,39.56,0,0,1,51.08,176Zm0-73.08a33.57,33.57,0,1,0,33.57,33.57A33.61,33.61,0,0,0,51.08,102.89Z"/><path class="cls-5" d="M957.15,393.56l-4.55-4.32c.88-.93,19.88-21.65,8.85-53.31-4.34,11.9-15.27,32.24-40.4,38.43l-1.5-6.1c31.5-7.76,38.21-42,38.27-42.31l1.74-9.34,4.17,8.53c10.22,20.94,7.93,38.39,4.21,49.33A55.11,55.11,0,0,1,957.15,393.56Z"/><circle class="cls-3" cx="905.62" cy="389.35" r="26.54"/><path class="cls-4" d="M905.62,369.08a20.27,20.27,0,1,1-6.74,1.16,20.3,20.3,0,0,1,6.74-1.16m0-6.28a26.54,26.54,0,1,0,25,17.71,26.5,26.5,0,0,0-25-17.71Z"/><circle class="cls-3" cx="937.45" cy="410.65" r="26.54"/><path class="cls-4" d="M937.45,384.1v6.28a20.26,20.26,0,1,1-19.11,13.52,20.24,20.24,0,0,1,19.11-13.52V384.1m0,0a26.55,26.55,0,1,0,8.83,1.52,26.57,26.57,0,0,0-8.83-1.52Z"/><path class="cls-6" d="M488.75,331.74a7,7,0,0,1,9.38-2.91,33.73,33.73,0,0,1,6.43,4.29c8.06,6.9,8.35,14.35,8.37,15.39l-36.26,68.18c0-1-.31-8.49-8.37-15.39a34.46,34.46,0,0,0-10.3-6,2.39,2.39,0,0,1-1.26-3.37Z"/><path class="cls-7" d="M473.74,428.88l-.21-12.14c0-1.16-.46-7.23-7.27-13.05a31.62,31.62,0,0,0-9.36-5.45,5.53,5.53,0,0,1-2.93-7.78l32-60.19A10.17,10.17,0,0,1,499.56,326a36.3,36.3,0,0,1,7,4.7c8.63,7.38,9.42,15.42,9.46,17.71l0,.81ZM459.9,392.67a37.68,37.68,0,0,1,10.44,6.25,28.4,28.4,0,0,1,7.29,9.26l32.11-60.37c-.21-2.08-1.35-7.28-7.22-12.3a30.21,30.21,0,0,0-5.83-3.89,3.87,3.87,0,0,0-5.17,1.6Z"/><path class="cls-6" d="M468.07,412.11a15.19,15.19,0,0,1-12.73-14.56,9.58,9.58,0,0,1,1.11-5.07l32-60.2a2.24,2.24,0,0,1,4.14.44,14.9,14.9,0,0,0,3.44,6,15.73,15.73,0,0,0,8.6,4.58Z"/><path class="cls-7" d="M469.77,415.6l-2.25-.4a18.33,18.33,0,0,1-15.31-17.47,12.7,12.7,0,0,1,1.47-6.73l32-60.19A5.32,5.32,0,0,1,491,328a5.38,5.38,0,0,1,4.64,3.85,11.85,11.85,0,0,0,2.72,4.77,12.67,12.67,0,0,0,6.87,3.64l4.25.75Zm20.52-80.06L459.22,394a6.44,6.44,0,0,0-.75,3.41,12.65,12.65,0,0,0,3.28,8,12.16,12.16,0,0,0,4.72,3.05l33.61-63.21a18.33,18.33,0,0,1-6.31-4.32A17.66,17.66,0,0,1,490.29,335.54Z"/><path class="cls-13" d="M682.27,102.18H719a6.72,6.72,0,0,1,6.72,6.72v0a18.39,18.39,0,0,1-18.39,18.39H693.94a18.39,18.39,0,0,1-18.39-18.39v0a6.72,6.72,0,0,1,6.72-6.72Z"/><rect class="cls-14" x="697.52" y="127.29" width="6.28" height="50.2"/><path class="cls-14" d="M675.56,177.18a44.41,44.41,0,0,1,12.55-4.2,67.34,67.34,0,0,1,12.55-1.13A68.3,68.3,0,0,1,713.21,173a44.45,44.45,0,0,1,12.55,4.18v.63l-6.28.15-6.27,0-12.55.11L688.11,178l-6.28,0-6.27-.15Z"/><path class="cls-14" d="M700.66,130.42a28.27,28.27,0,0,1-28.24-28.24V73.94H728.9v28.24A28.27,28.27,0,0,1,700.66,130.42Zm-22-50.2v22a22,22,0,1,0,43.93,0v-22Z"/><path class="cls-7" d="M898.68,72.67c1.86,5.11,3.3,10.19,5,15.16.89,2.48,1.72,5,2.67,7.38.43,1.23,1,2.42,1.42,3.63s1,2.42,1.42,3.63c1.9,4.82,3.85,9.8,7.08,14a36.17,36.17,0,0,0,5.45,5.68,39.1,39.1,0,0,0,6.55,4.33c9.36,4.61,19.42,9.09,28.19,15.66a97.44,97.44,0,0,1,12.12,10.92,83.55,83.55,0,0,1,10,12.8l-.4.35c-4.21-3.39-8.28-6.8-12.44-10.06-1-.82-2.08-1.63-3.14-2.41s-2.07-1.63-3.14-2.39c-2.12-1.56-4.22-3.11-6.37-4.61-4.27-3-8.55-6-13-8.81a134.65,134.65,0,0,1-13.39-9c-2.17-1.7-4.19-3.55-6.16-5.42s-3.78-3.9-5.57-5.94a77.06,77.06,0,0,1-9.77-13.18,33.28,33.28,0,0,1-1.81-3.7,39.86,39.86,0,0,1-1.47-3.84,73.41,73.41,0,0,1-2.21-7.89,70.55,70.55,0,0,1-1.54-16.19Z"/><path class="cls-7" d="M951.48,179.4c-1.86-5.11-3.3-10.2-5-15.17-.89-2.47-1.72-4.95-2.66-7.38-.44-1.23-1-2.42-1.43-3.63s-.94-2.42-1.42-3.63c-1.89-4.82-3.84-9.8-7.07-14a37.1,37.1,0,0,0-5.45-5.68,39.24,39.24,0,0,0-6.55-4.32c-9.37-4.61-19.42-9.1-28.19-15.67A98.25,98.25,0,0,1,881.56,99a83.08,83.08,0,0,1-10-12.81l.4-.35c4.21,3.39,8.27,6.81,12.44,10.06,1,.82,2.08,1.63,3.14,2.42s2.06,1.63,3.13,2.39c2.12,1.55,4.23,3.1,6.37,4.6,4.28,3,8.56,6,13.05,8.81a134.2,134.2,0,0,1,13.39,9c2.16,1.69,4.19,3.55,6.16,5.41s3.78,3.9,5.57,5.94A77.06,77.06,0,0,1,945,147.69a37.36,37.36,0,0,1,1.81,3.71,40.49,40.49,0,0,1,1.47,3.84,74.89,74.89,0,0,1,2.2,7.88,70.09,70.09,0,0,1,1.55,16.2Z"/><ellipse class="cls-15" cx="922.43" cy="149.36" rx="12.5" ry="16.66"/><path class="cls-16" d="M922.43,168.69c-8.36,0-15.16-8.67-15.16-19.33S914.07,130,922.43,130s15.16,8.67,15.16,19.33S930.79,168.69,922.43,168.69Zm0-33.33c-5.42,0-9.83,6.28-9.83,14s4.41,14,9.83,14,9.83-6.28,9.83-14S927.85,135.36,922.43,135.36Z"/><ellipse class="cls-15" cx="922.43" cy="116.03" rx="12.5" ry="16.66"/><path class="cls-16" d="M922.43,135.36c-8.36,0-15.16-8.67-15.16-19.33s6.8-19.33,15.16-19.33,15.16,8.67,15.16,19.33S930.79,135.36,922.43,135.36Zm0-33.33c-5.42,0-9.83,6.28-9.83,14s4.41,14,9.83,14,9.83-6.28,9.83-14S927.85,102,922.43,102Z"/><ellipse class="cls-15" cx="939.1" cy="132.7" rx="16.66" ry="12.5"/><path class="cls-16" d="M939.09,147.86c-10.65,0-19.33-6.8-19.33-15.16s8.68-15.17,19.33-15.17,19.34,6.81,19.34,15.17S949.75,147.86,939.09,147.86Zm0-25c-7.71,0-14,4.41-14,9.83s6.28,9.83,14,9.83,14-4.41,14-9.83S946.81,122.87,939.09,122.87Z"/><ellipse class="cls-15" cx="905.77" cy="132.7" rx="16.66" ry="12.5"/><path class="cls-16" d="M905.77,147.86c-10.66,0-19.33-6.8-19.33-15.16s8.67-15.17,19.33-15.17,19.33,6.81,19.33,15.17S916.43,147.86,905.77,147.86Zm0-25c-7.72,0-14,4.41-14,9.83s6.28,9.83,14,9.83,14-4.41,14-9.83S913.48,122.87,905.77,122.87Z"/><circle class="cls-15" cx="922.43" cy="132.7" r="8.33"/><path class="cls-16" d="M922.43,143.7a11,11,0,1,1,11-11A11,11,0,0,1,922.43,143.7Zm0-16.67a5.67,5.67,0,1,0,5.67,5.67A5.68,5.68,0,0,0,922.43,127Z"/><ellipse class="cls-1" cx="922.84" cy="856.56" rx="12.61" ry="31.52"/><path class="cls-2" d="M922.84,891.21c-10.23,0-15.75-17.85-15.75-34.65s5.52-34.66,15.75-34.66,15.74,17.86,15.74,34.66S933.07,891.21,922.84,891.21Zm0-63c-3.86,0-9.47,11.05-9.47,28.38s5.61,28.38,9.47,28.38,9.47-11.06,9.47-28.38S926.7,828.18,922.84,828.18Z"/><path class="cls-15" d="M909.1,813.6h8.26a0,0,0,0,1,0,0v88.25a0,0,0,0,1,0,0H909.1A15.85,15.85,0,0,1,893.25,886V829.45A15.85,15.85,0,0,1,909.1,813.6Z" transform="translate(-94.71 112.58) rotate(-6.76)"/><path class="cls-16" d="M919.58,903.43a27.25,27.25,0,0,1-27-24l-4.72-39.75a27.28,27.28,0,0,1,23.85-30.27l3.12-.36L926,902.87l-3.12.37A27.54,27.54,0,0,1,919.58,903.43Zm-10.22-87.22a21,21,0,0,0-15.27,22.69l4.72,39.75A21,21,0,0,0,919,897.14Z"/><path class="cls-15" d="M943.8,813.55h8.26a0,0,0,0,1,0,0v88.25a0,0,0,0,1,0,0H943.8A15.85,15.85,0,0,1,928,885.94V829.4A15.85,15.85,0,0,1,943.8,813.55Z" transform="translate(1772.47 1820.07) rotate(-173.24)"/><path class="cls-16" d="M925.73,903.38a27.56,27.56,0,0,1-3.26-.2l-3.12-.37L930.48,809l3.12.37a27.25,27.25,0,0,1,23.85,30.27l-4.71,39.74a27.27,27.27,0,0,1-27,24ZM936,816.15l-9.6,80.94a21,21,0,0,0,20.15-18.5l4.72-39.74A21,21,0,0,0,936,816.15Z"/><path class="cls-17" d="M494.43,105.77v-20H473.84v20a9.55,9.55,0,0,1-5.37,8.28c-8.91,4.76-14.87,13.44-14.87,23.37v37.87h61.07V137.42c0-9.93-6-18.61-14.87-23.37A9.53,9.53,0,0,1,494.43,105.77Z"/><path class="cls-7" d="M518.15,178.78h-68V137.42c0-10.81,6.4-20.94,16.71-26.44a6.08,6.08,0,0,0,3.53-5.21V82.31h27.57v23.46a6.06,6.06,0,0,0,3.52,5.21c10.31,5.5,16.71,15.63,16.71,26.44Zm-61.07-7h54.1V137.42c0-8.35-4.87-15.94-13-20.29a13.09,13.09,0,0,1-7.22-11.36V89.28H477.32v16.49a13.08,13.08,0,0,1-7.21,11.36c-8.16,4.35-13,11.94-13,20.29Z"/><path class="cls-7" d="M503.73,117.78a11.63,11.63,0,1,1,11.63-11.63A11.64,11.64,0,0,1,503.73,117.78Zm0-16.28a4.66,4.66,0,1,0,4.66,4.65A4.66,4.66,0,0,0,503.73,101.5Z"/><rect class="cls-6" x="466.86" y="76.77" width="34.55" height="9.02" rx="2.97"/><path class="cls-7" d="M496.89,89.28H471.37a8,8,0,0,1,0-16h25.52a8,8,0,0,1,0,16Zm-25.52-9a1,1,0,0,0,0,2.06h25.52a1,1,0,1,0,0-2.06Z"/><path class="cls-18" d="M514.67,161H453.6V142.05a5.33,5.33,0,0,1,4.11-5.2,115.16,115.16,0,0,1,52.84,0,5.34,5.34,0,0,1,4.12,5.2Z"/><path class="cls-7" d="M518.15,164.46h-68V142.05a8.79,8.79,0,0,1,6.8-8.59,118.39,118.39,0,0,1,54.44,0,8.78,8.78,0,0,1,6.8,8.59Zm-61.07-7h54.1V142.05a1.85,1.85,0,0,0-1.43-1.81,111.38,111.38,0,0,0-51.24,0,1.83,1.83,0,0,0-1.43,1.8Z"/><circle class="cls-6" cx="477.43" cy="856.19" r="36.48"/><path class="cls-7" d="M477.43,895.8A39.61,39.61,0,1,1,517,856.19,39.66,39.66,0,0,1,477.43,895.8Zm0-72.95a33.34,33.34,0,1,0,33.34,33.34A33.38,33.38,0,0,0,477.43,822.85Z"/><path class="cls-6" d="M502.49,858.86c18.44,10,34.41,16.21,35.65,13.91a38,38,0,0,1-51.47,15.31h0a38,38,0,0,1-15.31-51.48C470.11,838.91,484.05,848.87,502.49,858.86Z"/><path class="cls-7" d="M504.68,895.79a41.11,41.11,0,0,1-36.08-60.68l5.52,3a2.22,2.22,0,0,0,.16-1.88c1,1.84,10.63,9.55,29.71,19.88h0c19.07,10.33,30.85,14.21,32.88,14a2.23,2.23,0,0,0-1.49,1.16l5.52,3h0A41.16,41.16,0,0,1,504.68,895.79ZM472,842.9a34.84,34.84,0,0,0,60.58,32.8,66.92,66.92,0,0,1-6.91-2.35A232.25,232.25,0,0,1,501,861.62h0a230.68,230.68,0,0,1-23.28-14.22A66.53,66.53,0,0,1,472,842.9Z"/><ellipse class="cls-19" cx="504.75" cy="854.69" rx="4.75" ry="37.97" transform="translate(-487.17 891.58) rotate(-61.57)"/><path class="cls-7" d="M536.84,876.38c-2.44,0-6-1-11.21-3a262.74,262.74,0,0,1-47.91-26c-8.4-6-10.79-9.21-9.12-12.29s5.66-2.84,15.28.92a231.85,231.85,0,0,1,24.63,11.72h0A231.82,231.82,0,0,1,531.79,862c8.39,6,10.78,9.22,9.11,12.29C540.14,875.67,538.89,876.38,536.84,876.38ZM480,841.26a249.09,249.09,0,0,0,49.6,26.86,206.17,206.17,0,0,0-24-14.85h0A207.47,207.47,0,0,0,480,841.26Z"/><polygon class="cls-7" points="706.13 819.84 702.99 804.42 709.27 804.42 706.13 819.84"/><path class="cls-1" d="M722.49,835.16v-.76c0-8.81-6.77-16.39-15.57-16.8a16.36,16.36,0,0,0-17.15,16.34v.38a37.71,37.71,0,0,1-7.78,22.5,30.08,30.08,0,1,0,48-.33A35.15,35.15,0,0,1,722.49,835.16Z"/><path class="cls-2" d="M706.16,908q-1.06,0-2.16-.06A33.21,33.21,0,0,1,679.48,855a34.52,34.52,0,0,0,7.16-20.63v-.38a19.49,19.49,0,0,1,20.43-19.48,19.71,19.71,0,0,1,18.56,19.94v.76a31.88,31.88,0,0,0,6.87,19.42,32.83,32.83,0,0,1,6.84,20.17A33.36,33.36,0,0,1,728.87,899,32.89,32.89,0,0,1,706.16,908Zm0-87.24a13.22,13.22,0,0,0-13.22,13.22v.38a40.65,40.65,0,0,1-8.4,24.37,26.93,26.93,0,0,0,19.89,42.94,26.92,26.92,0,0,0,23.12-43.23,38.11,38.11,0,0,1-8.17-23.24v-.76c0-7.21-5.64-13.34-12.57-13.67Z"/><polygon class="cls-20" points="922.66 638.22 922.66 611.87 899.84 598.7 877.02 611.87 877.02 638.22 899.84 651.4 922.66 638.22"/><path class="cls-21" d="M899.84,655l-26-15v-30l26-15,26,15v30Zm-19.68-18.61,19.68,11.37,19.68-11.37V613.68l-19.68-11.36-19.68,11.36Z"/><polygon class="cls-20" points="968.3 638.22 968.3 611.87 945.48 598.7 922.66 611.87 922.66 638.22 945.48 651.4 968.3 638.22"/><path class="cls-21" d="M945.48,655l-26-15v-30l26-15,25.95,15v30ZM925.8,636.41l19.68,11.37,19.68-11.37V613.68l-19.68-11.36L925.8,613.68Z"/><polygon class="cls-20" points="945.48 598.77 945.48 572.42 922.66 559.25 899.84 572.42 899.84 598.77 922.66 611.95 945.48 598.77"/><path class="cls-21" d="M922.66,615.57l-26-15v-30l26-15,26,15v30ZM903,597l19.68,11.36L942.34,597V574.23l-19.68-11.36L903,574.23Z"/><circle class="cls-22" cx="267.61" cy="376.9" r="37.65"/><path class="cls-21" d="M267.61,417.69A40.79,40.79,0,1,1,308.4,376.9,40.83,40.83,0,0,1,267.61,417.69Zm0-75.31a34.52,34.52,0,1,0,34.51,34.52A34.56,34.56,0,0,0,267.61,342.38Z"/><rect class="cls-21" x="266.41" y="338.86" width="2.39" height="76.07" transform="translate(-188.13 299.62) rotate(-45)"/><rect class="cls-21" x="229.57" y="375.7" width="76.07" height="2.39" transform="translate(-188.16 299.8) rotate(-45.02)"/><rect class="cls-21" x="266.41" y="339.25" width="2.39" height="75.31"/><rect class="cls-21" x="229.95" y="375.7" width="75.31" height="2.39"/><path class="cls-5" d="M45.19,384.09A36.55,36.55,0,0,1,56,351.58l4.33,4.54a30.28,30.28,0,0,0-9,26.94Z"/><path class="cls-17" d="M48.29,384.57h0A32.08,32.08,0,0,0,19.6,402.3l-7.82,13.55a4.33,4.33,0,0,0,3.87,6.27H80.92a4.34,4.34,0,0,0,3.88-6.27L77,402.3A32.08,32.08,0,0,0,48.29,384.57Z"/><path class="cls-7" d="M80.92,425.26H15.65A7.47,7.47,0,0,1,9,414.45l.09-.17,7.78-13.47a35.21,35.21,0,0,1,62.9,0l7.86,13.64a7.46,7.46,0,0,1-6.68,10.81Zm-66.36-7.95A1.19,1.19,0,0,0,15.65,419H80.92a1.19,1.19,0,0,0,1.1-1.66L74.17,403.7a28.94,28.94,0,0,0-51.76,0l-.09.17Z"/><path class="cls-5" d="M60.49,353.85A24.55,24.55,0,0,1,50.68,351,30.45,30.45,0,0,1,38,338.36a24.28,24.28,0,0,1-2.84-9.82A24,24,0,0,1,45,331.38a29.27,29.27,0,0,1,7.27,5.38A29.73,29.73,0,0,1,57.64,344,24.55,24.55,0,0,1,60.49,353.85Z"/><path class="cls-5" d="M94,353.85a26.37,26.37,0,0,1-9.5,4.91,33.52,33.52,0,0,1-9.5,1.36,32.72,32.72,0,0,1-9.49-1.34,26.2,26.2,0,0,1-9.5-4.93,26.07,26.07,0,0,1,9.5-4.94A32.72,32.72,0,0,1,75,347.57a33.52,33.52,0,0,1,9.5,1.36A26.24,26.24,0,0,1,94,353.85Z"/><path class="cls-17" d="M114.55,898.8l-12.74-31.86a1.36,1.36,0,0,0-2.23-.45l-3.83,3.83a1.36,1.36,0,0,1-2.23-.46l-11.62-29a1.36,1.36,0,0,0-2.48-.1l-3.93,7.85A1.36,1.36,0,0,1,73,848.4L61.69,814.51a1.37,1.37,0,0,0-2.56-.08L47.77,842.84a1.36,1.36,0,0,1-2.23.46l-3.49-3.5a1.36,1.36,0,0,0-2.3.7L34,869.29a1.36,1.36,0,0,1-2.3.69L21.54,859.83a1.36,1.36,0,0,0-2.26.53L6.47,898.8Z"/><path class="cls-7" d="M119.36,902.05H2L16.2,859.33a4.61,4.61,0,0,1,7.64-1.8l7.65,7.66,5.07-25.33a4.61,4.61,0,0,1,7.78-2.35L45.81,839l10.3-25.74a4.61,4.61,0,0,1,8.66.25L74.63,843l1.88-3.78a4.62,4.62,0,0,1,8.41.35L95.47,866l1.82-1.81a4.61,4.61,0,0,1,7.54,1.54ZM11,895.55h98.77l-9.89-24.74-1.81,1.81a4.63,4.63,0,0,1-7.55-1.55l-10-25.14-2,4.1a4.61,4.61,0,0,1-8.5-.61l-9.67-29-9.44,23.62a4.63,4.63,0,0,1-7.55,1.55l-1-1-5.06,25.32a4.62,4.62,0,0,1-7.79,2.36l-8-8Z"/><path class="cls-23" d="M238.4,884.69c-4.58-13.6,1.77-25.72,3-28,5.25-10,11.28-10.23,15.83-19.46,4.34-8.77,3.53-18,2.28-24.18a106.42,106.42,0,0,1,24.94,47.5l9.17-12.4a42.3,42.3,0,0,1,4.18,27c-.39,2-4.59,22.56-22.09,28.73a29.14,29.14,0,0,1-19.65,0C244,899.42,239.5,888,238.4,884.69Z"/><path class="cls-12" d="M265.58,908.33a29.66,29.66,0,0,1-10.49-1.88c-12.6-4.72-17.64-16.19-19.23-20.9h0c-4.3-12.78.11-24.35,3.13-30.11a35.52,35.52,0,0,1,8.84-10.85c2.65-2.39,4.94-4.44,7-8.55,3.1-6.29,3.79-13.85,2.05-22.47l-1.92-9.52,6.54,7.19a109.08,109.08,0,0,1,24.13,43.19L294,843.08l2,3.83a45,45,0,0,1,4.43,28.77,50.5,50.5,0,0,1-4.9,13.58c-4.51,8.46-11.06,14.41-18.93,17.18A33.52,33.52,0,0,1,265.58,908.33Zm-24.64-24.49c1.35,4,5.59,13.68,16,17.59a26.37,26.37,0,0,0,17.82,0c15.87-5.6,19.93-24.56,20.34-26.7A38.68,38.68,0,0,0,293,853.42l-9.89,13.39-1.32-5.66a103.9,103.9,0,0,0-18.66-39.54,36,36,0,0,1-3.54,16.8,31.11,31.11,0,0,1-8.2,10.17,30.33,30.33,0,0,0-7.67,9.35c-2.62,5-6.46,15-2.8,25.91Z"/><path class="cls-24" d="M253.91,890.41c-2.27-6.72.87-12.71,1.46-13.85,2.6-5,5.58-5.06,7.83-9.62,2.15-4.34,1.75-8.9,1.13-12a52.65,52.65,0,0,1,12.33,23.49c1.51-2,3-4.09,4.54-6.13a21,21,0,0,1,2.06,13.37c-.19,1-2.27,11.16-10.92,14.21a14.46,14.46,0,0,1-9.72,0C256.67,897.7,254.45,892,253.91,890.41Z"/><rect class="cls-6" x="248.73" y="559.81" width="48.72" height="9.71"/><path class="cls-7" d="M300.69,572.77H245.47V556.56h55.22ZM252,566.27h42.21v-3.21H252Z"/><polygon class="cls-6" points="295.67 569.52 250.5 569.52 244.04 604.37 244.04 650.83 302.12 650.83 302.12 604.37 295.67 569.52"/><path class="cls-7" d="M305.37,654.08H240.79l.06-50.3,6.94-37.51h50.58l7,38.1Zm-58.08-6.5h51.58V604.67L293,572.77H253.2l-5.91,31.9Z"/><rect class="cls-19" x="255.74" y="618.95" width="35.53" height="21.82"/><path class="cls-7" d="M294.52,644h-42V615.7h42ZM259,637.52h29V622.2H259Z"/><path class="cls-6" d="M59.84,601.34H14.22L7.11,630.23c-1.12,5,2.26,9.83,6.88,9.83H60c5.39-.09,8.39-3.64,6.88-9.83Z"/><path class="cls-7" d="M55.41,607l6,24.6a4,4,0,0,1,.09,2.51,2.63,2.63,0,0,1-1.55.34H14a1.22,1.22,0,0,1-.89-.53,2.85,2.85,0,0,1-.5-2.38l6-24.54H55.41m4.43-5.63H14.22L7.11,630.23c-1.12,5,2.26,9.83,6.88,9.83H60c5.39-.09,8.39-3.64,6.88-9.83l-7-28.89Z"/><path class="cls-25" d="M62,644.48H12.15a10.52,10.52,0,0,1-8.23-4.05,11.77,11.77,0,0,1-2.21-10L11.77,587a10.87,10.87,0,0,1,10.45-8.66H51.93A10.86,10.86,0,0,1,62.38,587l10.07,43.44a11.78,11.78,0,0,1-2.22,10A10.52,10.52,0,0,1,62,644.48ZM22.22,584a5.16,5.16,0,0,0-4.86,4.23L7.29,631.68a6.17,6.17,0,0,0,1.12,5.18,4.74,4.74,0,0,0,3.74,1.89H62a4.75,4.75,0,0,0,3.75-1.89,6.13,6.13,0,0,0,1.11-5.18L56.8,588.25A5.18,5.18,0,0,0,51.93,584Z"/><path class="cls-26" d="M57.93,581.15h-43A3.82,3.82,0,0,1,12.17,580l-7.26-7.26A2.19,2.19,0,0,1,6.45,569H57.93a3.84,3.84,0,0,1,3.84,3.84v4.44A3.84,3.84,0,0,1,57.93,581.15Z"/><path class="cls-27" d="M57.93,584h-43a6.66,6.66,0,0,1-4.74-2l-7.26-7.26a5,5,0,0,1,3.57-8.62H57.93a6.7,6.7,0,0,1,6.7,6.7v4.44A6.71,6.71,0,0,1,57.93,584ZM8.09,571.9l6.1,6.1a1,1,0,0,0,.69.29H57.93a1,1,0,0,0,1-1v-4.44a1,1,0,0,0-1-1Z"/><path class="cls-27" d="M83.79,609.06l-4.65-3.35a21.16,21.16,0,0,0,4-12.44c0-9.95-3.11-21.37-27.36-21.37v-5.73c22,0,33.09,9.12,33.09,27.1A26.83,26.83,0,0,1,83.79,609.06Z"/></svg>