<svg id="Layer_1" data-name="Layer 1" xmlns="http://www.w3.org/2000/svg" viewBox="0 0 1377 671"><defs><style>.cls-1{fill:#8ba568;}.cls-2{fill:#67873a;}.cls-3{fill:#de917e;}.cls-4{fill:#c3352f;}.cls-5{fill:#65863a;}.cls-17,.cls-6{fill:#b69d88;}.cls-7{fill:#56493a;}.cls-8{fill:#736458;}.cls-9{fill:#969bc6;}.cls-10{fill:#2d368e;}.cls-11,.cls-23{fill:#f8aa83;}.cls-12{fill:#f17443;}.cls-13,.cls-24{fill:#d05d4a;}.cls-14{fill:#b2a9a7;}.cls-15{fill:#fdd1a9;}.cls-16{fill:#ac8e78;}.cls-17,.cls-18,.cls-20,.cls-23,.cls-24{fill-rule:evenodd;}.cls-18,.cls-19{fill:#fff;}.cls-20,.cls-22{fill:#ffd67b;}.cls-21{fill:#fbad18;}.cls-25{fill:#d2cfd1;}.cls-26{fill:#807877;}.cls-27{fill:#3e3b3a;}</style></defs><title>coffee-icons</title><path class="cls-1" d="M248.41,151.94a39.14,39.14,0,0,1-20.32,12.67,37.73,37.73,0,0,1-14.83.56A53.57,53.57,0,0,1,233,137.68Z"/><path class="cls-2" d="M219.3,168.79a41.16,41.16,0,0,1-6.53-.52l-3.58-.56,1.07-3.47a56.65,56.65,0,0,1,20.9-29.1l2.08-1.52,19.51,18.07-2,2.29a42.54,42.54,0,0,1-22,13.68A40.78,40.78,0,0,1,219.3,168.79Zm-1.76-6.32a34.48,34.48,0,0,0,9.82-.91A35.71,35.71,0,0,0,244,152.11l-11.16-10.33a50.19,50.19,0,0,0-15.27,20.69Z"/><path class="cls-1" d="M271.45,100.59a39.14,39.14,0,0,1,20.4-12.52,38.19,38.19,0,0,1,14.84-.46,53.4,53.4,0,0,1-5.57,12.06A54,54,0,0,1,286.74,115Z"/><path class="cls-2" d="M286.48,119,267.1,100.81l2-2.28A42.55,42.55,0,0,1,291.13,85a40.78,40.78,0,0,1,16.07-.5l3.58.59-1.1,3.46a56.76,56.76,0,0,1-21.11,29Zm-10.6-18.57L287,110.87A50.47,50.47,0,0,0,298.46,98a51.4,51.4,0,0,0,3.93-7.72,34.05,34.05,0,0,0-9.82.84A35.71,35.71,0,0,0,275.88,100.45Z"/><ellipse class="cls-3" cx="260.38" cy="148.16" rx="16.6" ry="22.13"/><path class="cls-4" d="M260.38,173.43c-10.88,0-19.73-11.34-19.73-25.27s8.85-25.27,19.73-25.27,19.74,11.34,19.74,25.27S271.26,173.43,260.38,173.43Zm0-44.26c-7.42,0-13.46,8.52-13.46,19s6,19,13.46,19,13.46-8.52,13.46-19S267.8,129.17,260.38,129.17Z"/><ellipse class="cls-3" cx="260.38" cy="103.9" rx="16.6" ry="22.13"/><path class="cls-4" d="M260.38,129.17c-10.88,0-19.73-11.34-19.73-25.27s8.85-25.27,19.73-25.27S280.12,90,280.12,103.9,271.26,129.17,260.38,129.17Zm0-44.26c-7.42,0-13.46,8.52-13.46,19s6,19,13.46,19,13.46-8.52,13.46-19S267.8,84.91,260.38,84.91Z"/><ellipse class="cls-3" cx="282.51" cy="126.03" rx="22.13" ry="16.6"/><path class="cls-4" d="M282.51,145.77c-13.93,0-25.27-8.86-25.27-19.74s11.34-19.73,25.27-19.73,25.27,8.85,25.27,19.73S296.44,145.77,282.51,145.77Zm0-33.2c-10.47,0-19,6-19,13.46s8.52,13.46,19,13.46,19-6,19-13.46S293,112.57,282.51,112.57Z"/><ellipse class="cls-3" cx="238.25" cy="126.03" rx="22.13" ry="16.6"/><path class="cls-4" d="M238.25,145.77c-13.93,0-25.27-8.86-25.27-19.74s11.34-19.73,25.27-19.73,25.27,8.85,25.27,19.73S252.18,145.77,238.25,145.77Zm0-33.2c-10.47,0-19,6-19,13.46s8.52,13.46,19,13.46,19-6,19-13.46S248.72,112.57,238.25,112.57Z"/><circle class="cls-3" cx="260.38" cy="126.03" r="11.06"/><path class="cls-4" d="M260.38,140.23a14.2,14.2,0,1,1,14.2-14.2A14.22,14.22,0,0,1,260.38,140.23Zm0-22.13a7.93,7.93,0,1,0,7.93,7.93A7.94,7.94,0,0,0,260.38,118.1Z"/><path class="cls-5" d="M489.61,581.52A44,44,0,0,1,479.53,580a72,72,0,0,1-9.39-3.19,68.56,68.56,0,0,1-8.87-4.43,43.38,43.38,0,0,1-8.18-6.08,43,43,0,0,1,10.08,1.53,72.39,72.39,0,0,1,18.25,7.63A43.76,43.76,0,0,1,489.61,581.52Z"/><path class="cls-3" d="M469.76,651.73,449.07,615.9a22.92,22.92,0,0,1,19.85-34.38H510.3a22.92,22.92,0,0,1,19.85,34.38l-20.69,35.83A22.92,22.92,0,0,1,469.76,651.73Z"/><path class="cls-4" d="M509.87,587.79a16.9,16.9,0,0,1,14.63,25.34l-20.27,35.09a16.88,16.88,0,0,1-29.25,0l-20.26-35.09a16.9,16.9,0,0,1,14.62-25.34h40.53m0-6.27H469.34a23.16,23.16,0,0,0-20.06,34.74l20.27,35.1a23.16,23.16,0,0,0,40.12,0l20.26-35.1a23.16,23.16,0,0,0-20.06-34.74Z"/><path class="cls-5" d="M489.61,581.52a43.38,43.38,0,0,1,8.18-6.08,72.66,72.66,0,0,1,18.26-7.63,43,43,0,0,1,10.08-1.53,43.38,43.38,0,0,1-8.18,6.08,69.87,69.87,0,0,1-8.87,4.43,72.18,72.18,0,0,1-9.4,3.19A44,44,0,0,1,489.61,581.52Z"/><path class="cls-5" d="M489.61,581.52a35.77,35.77,0,0,1-7.56-5.1,57.05,57.05,0,0,1-6.19-6.25,55.39,55.39,0,0,1-5.17-7.13,35,35,0,0,1-3.8-8.28,34.76,34.76,0,0,1,7.56,5.09,55.43,55.43,0,0,1,6.19,6.26,56.29,56.29,0,0,1,5.16,7.13A35,35,0,0,1,489.61,581.52Z"/><path class="cls-5" d="M489.61,581.52a35.4,35.4,0,0,1,3.8-8.28,56.36,56.36,0,0,1,5.17-7.13,53.79,53.79,0,0,1,6.19-6.26,34.76,34.76,0,0,1,7.56-5.09,35.4,35.4,0,0,1-3.8,8.28,57.23,57.23,0,0,1-11.37,13.38A35.7,35.7,0,0,1,489.61,581.52Z"/><path class="cls-5" d="M489.61,581.52a33.41,33.41,0,0,1-2.46-8.52,54,54,0,0,1,0-17,33,33,0,0,1,2.47-8.52,33,33,0,0,1,2.46,8.52,52,52,0,0,1,.67,8.52,53.14,53.14,0,0,1-.67,8.51A33.82,33.82,0,0,1,489.61,581.52Z"/><rect class="cls-6" x="683.68" y="553.56" width="46.64" height="103.51"/><path class="cls-7" d="M733.46,660.22H680.54V550.43h52.92Zm-46.65-6.28h40.37V556.7H686.81Z"/><rect class="cls-7" x="683.68" y="565.21" width="46.64" height="6.28"/><rect class="cls-7" x="683.68" y="580" width="46.64" height="6.28"/><rect class="cls-7" x="683.68" y="594.79" width="46.64" height="6.28"/><rect class="cls-8" x="683.68" y="609.58" width="46.64" height="6.28"/><rect class="cls-8" x="683.68" y="653.94" width="46.64" height="6.28"/><rect class="cls-7" x="703.86" y="553.56" width="6.28" height="59.15"/><rect class="cls-3" x="683.68" y="612.72" width="46.64" height="44.36"/><path class="cls-4" d="M733.46,660.22H680.54V609.58h52.92Zm-46.65-6.28h40.37V615.85H686.81Z"/><path class="cls-4" d="M739.92,635.72,734.83,632a11.26,11.26,0,0,0,1.44-9.74,11.1,11.1,0,0,0-6.88-6.59l1.86-6a17.36,17.36,0,0,1,10.94,10.49C745,628.3,740.45,635,739.92,635.72Z"/><path class="cls-4" d="M669.87,631.45a17.35,17.35,0,0,1,2.45-15c5-6.93,13.16-6.92,14.07-6.91l-.16,6.28a10.54,10.54,0,0,0-10.37,13.72Z"/><circle class="cls-9" cx="672.32" cy="369.54" r="28.83"/><path class="cls-10" d="M672.3,401.52a32,32,0,0,1-30.12-21.34h0a31.91,31.91,0,1,1,30.12,21.34Zm0-57.69a25.7,25.7,0,0,0-24.24,34.26h0a25.67,25.67,0,1,0,24.24-34.26Z"/><line class="cls-9" x1="670.13" y1="329.13" x2="666.08" y2="341.17"/><polygon class="cls-10" points="670.13 329.13 669.06 342.17 663.11 340.17 670.13 329.13"/><line class="cls-9" x1="645.86" y1="337.7" x2="656.57" y2="344.53"/><polygon class="cls-10" points="645.86 337.7 658.26 341.88 654.88 347.17 645.86 337.7"/><line class="cls-9" x1="656.82" y1="330.09" x2="661.05" y2="342.06"/><polygon class="cls-10" points="656.82 330.09 664.01 341.02 658.09 343.11 656.82 330.09"/><circle class="cls-9" cx="706.9" cy="392.68" r="28.83"/><path class="cls-10" d="M706.92,424.67A32,32,0,1,1,737,403.32h0a32,32,0,0,1-30.12,21.35Zm0-57.68a25.69,25.69,0,1,0,24.2,34.24h0A25.68,25.68,0,0,0,706.92,367Z"/><line class="cls-9" x1="709.09" y1="352.28" x2="713.14" y2="364.31"/><polygon class="cls-10" points="709.09 352.27 716.11 363.31 710.16 365.31 709.09 352.27"/><line class="cls-9" x1="733.36" y1="360.84" x2="722.65" y2="367.67"/><polygon class="cls-10" points="733.36 360.84 724.34 370.31 720.96 365.02 733.36 360.84"/><line class="cls-9" x1="722.4" y1="353.23" x2="718.17" y2="365.21"/><polygon class="cls-10" points="722.4 353.23 721.13 366.25 715.21 364.16 722.4 353.23"/><polygon class="cls-5" points="41.6 101.32 43.62 81.83 49.68 83.47 41.6 101.32"/><path class="cls-5" d="M43.64,91.71A19.13,19.13,0,0,1,27.87,90a18.88,18.88,0,0,1-5.52-4.85,19.12,19.12,0,0,1-3.61-8.11,19.2,19.2,0,0,1,24.9,14.63Z"/><circle class="cls-11" cx="39.51" cy="136.46" r="36.54"/><path class="cls-12" d="M39.51,176A39.51,39.51,0,1,1,79,136.46,39.55,39.55,0,0,1,39.51,176Zm0-73.08a33.57,33.57,0,1,0,33.56,33.57A33.6,33.6,0,0,0,39.51,102.89Z"/><path class="cls-5" d="M953.31,393.56l-4.55-4.32c.88-.93,19.88-21.65,8.85-53.31-4.34,11.9-15.27,32.24-40.4,38.43l-1.51-6.1c31.51-7.76,38.22-42,38.28-42.31l1.74-9.34,4.17,8.53c10.22,20.94,7.93,38.39,4.21,49.33A55.29,55.29,0,0,1,953.31,393.56Z"/><circle class="cls-3" cx="901.78" cy="389.35" r="26.54"/><path class="cls-4" d="M901.78,369.08a20.26,20.26,0,0,1,18.28,29,20.35,20.35,0,0,1-18.28,11.53,20.27,20.27,0,0,1,0-40.54m0-6.28a26.54,26.54,0,1,0,25,17.71,26.5,26.5,0,0,0-25-17.71Z"/><circle class="cls-3" cx="933.6" cy="410.65" r="26.54"/><path class="cls-4" d="M933.61,384.1v6.28a20.27,20.27,0,0,1,0,40.54,20.26,20.26,0,0,1-19.1-27,20.28,20.28,0,0,1,19.1-13.52V384.1m0,0a26.55,26.55,0,1,0,8.84,1.52,26.56,26.56,0,0,0-8.84-1.52Z"/><path class="cls-6" d="M476.66,331.74a7,7,0,0,1,9.37-2.91,33.47,33.47,0,0,1,6.44,4.29c8.06,6.9,8.35,14.35,8.37,15.39l-36.26,68.18c0-1-.31-8.49-8.37-15.39a34.46,34.46,0,0,0-10.3-6,2.39,2.39,0,0,1-1.26-3.37Z"/><path class="cls-7" d="M461.65,428.88l-.21-12.14c0-1.16-.47-7.23-7.27-13.05a31.62,31.62,0,0,0-9.36-5.45,5.53,5.53,0,0,1-2.93-7.78l32-60.19A10.16,10.16,0,0,1,487.47,326a36.3,36.3,0,0,1,7,4.7c8.63,7.38,9.42,15.42,9.46,17.71l0,.81Zm-13.84-36.21a37.68,37.68,0,0,1,10.44,6.25,28.4,28.4,0,0,1,7.29,9.26l32.11-60.37c-.22-2.08-1.36-7.28-7.22-12.3a30.21,30.21,0,0,0-5.83-3.89,3.87,3.87,0,0,0-5.17,1.6Z"/><path class="cls-6" d="M456,412.11a15.57,15.57,0,0,1-8.6-4.57,15.76,15.76,0,0,1-4.13-10,9.58,9.58,0,0,1,1.11-5.07l32-60.2a2.25,2.25,0,0,1,4.15.44,14.9,14.9,0,0,0,3.44,6,15.73,15.73,0,0,0,8.6,4.58Z"/><path class="cls-7" d="M457.68,415.6l-2.25-.4a18.33,18.33,0,0,1-15.31-17.47,12.7,12.7,0,0,1,1.47-6.73l32-60.19a5.33,5.33,0,0,1,5.28-2.83,5.39,5.39,0,0,1,4.64,3.85,11.85,11.85,0,0,0,2.72,4.77,12.67,12.67,0,0,0,6.87,3.64l4.25.75Zm20.51-80.06L447.13,394a6.44,6.44,0,0,0-.75,3.41,12.65,12.65,0,0,0,3.28,8,12.13,12.13,0,0,0,4.71,3.05L488,345.23a18.33,18.33,0,0,1-6.31-4.32A17.88,17.88,0,0,1,478.19,335.54Z"/><path class="cls-13" d="M649,102.18h36.77a6.72,6.72,0,0,1,6.72,6.72v0a18.39,18.39,0,0,1-18.39,18.39H660.68a18.39,18.39,0,0,1-18.39-18.39v0A6.72,6.72,0,0,1,649,102.18Z"/><rect class="cls-14" x="664.26" y="127.29" width="6.28" height="50.2"/><path class="cls-14" d="M642.29,177.18a44.62,44.62,0,0,1,12.55-4.2,67.52,67.52,0,0,1,12.56-1.13A68.38,68.38,0,0,1,680,173a44.55,44.55,0,0,1,12.55,4.18v.63l-6.28.15L680,178l-12.55.11L654.84,178l-6.27,0-6.28-.15Z"/><path class="cls-14" d="M667.4,130.42a28.26,28.26,0,0,1-28.24-28.24V73.94h56.48v28.24A28.27,28.27,0,0,1,667.4,130.42Zm-22-50.2v22a22,22,0,1,0,43.93,0v-22Z"/><path class="cls-7" d="M852.93,72.67c1.85,5.11,3.29,10.19,5,15.16.89,2.48,1.72,5,2.66,7.38.44,1.23,1,2.42,1.43,3.63s.94,2.42,1.42,3.63c1.89,4.82,3.84,9.8,7.07,14a37.1,37.1,0,0,0,5.45,5.68,39.93,39.93,0,0,0,6.55,4.33c9.37,4.61,19.42,9.09,28.19,15.66a97.53,97.53,0,0,1,12.13,10.92,83.48,83.48,0,0,1,10,12.8l-.4.35c-4.21-3.39-8.27-6.8-12.44-10.06-1-.82-2.08-1.63-3.14-2.41s-2.06-1.63-3.14-2.39c-2.11-1.56-4.22-3.11-6.36-4.61-4.28-3-8.56-6-13-8.81a135.82,135.82,0,0,1-13.39-9c-2.16-1.7-4.19-3.55-6.16-5.42s-3.78-3.9-5.57-5.94a77.06,77.06,0,0,1-9.77-13.18,35.13,35.13,0,0,1-1.81-3.7c-.54-1.27-1.06-2.54-1.47-3.84a75.8,75.8,0,0,1-2.21-7.89,70.55,70.55,0,0,1-1.54-16.19Z"/><path class="cls-7" d="M905.73,179.4c-1.86-5.11-3.3-10.2-5-15.17-.89-2.47-1.72-4.95-2.67-7.38-.43-1.23-1-2.42-1.42-3.63s-1-2.42-1.42-3.63c-1.9-4.82-3.85-9.8-7.08-14a36.17,36.17,0,0,0-5.45-5.68,38.44,38.44,0,0,0-6.55-4.32c-9.36-4.61-19.42-9.1-28.19-15.67A98.16,98.16,0,0,1,835.81,99a83.15,83.15,0,0,1-10-12.81l.4-.35c4.21,3.39,8.28,6.81,12.44,10.06,1,.82,2.08,1.63,3.14,2.42s2.07,1.63,3.14,2.39c2.12,1.55,4.22,3.1,6.37,4.6,4.27,3,8.55,6,13,8.81a133.05,133.05,0,0,1,13.39,9c2.16,1.69,4.19,3.55,6.16,5.41s3.78,3.9,5.57,5.94a77.06,77.06,0,0,1,9.77,13.18A33.42,33.42,0,0,1,901,151.4a38,38,0,0,1,1.47,3.84,72.6,72.6,0,0,1,2.21,7.88,70.63,70.63,0,0,1,1.54,16.2Z"/><ellipse class="cls-15" cx="876.68" cy="149.36" rx="12.5" ry="16.66"/><path class="cls-16" d="M876.67,168.69c-8.36,0-15.16-8.67-15.16-19.33S868.31,130,876.67,130s15.17,8.67,15.17,19.33S885,168.69,876.67,168.69Zm0-33.33c-5.42,0-9.83,6.28-9.83,14s4.41,14,9.83,14,9.84-6.28,9.84-14S882.1,135.36,876.67,135.36Z"/><ellipse class="cls-15" cx="876.68" cy="116.03" rx="12.5" ry="16.66"/><path class="cls-16" d="M876.67,135.36c-8.36,0-15.16-8.67-15.16-19.33s6.8-19.33,15.16-19.33,15.17,8.67,15.17,19.33S885,135.36,876.67,135.36Zm0-33.33c-5.42,0-9.83,6.28-9.83,14s4.41,14,9.83,14,9.84-6.28,9.84-14S882.1,102,876.67,102Z"/><ellipse class="cls-15" cx="893.34" cy="132.7" rx="16.66" ry="12.5"/><path class="cls-16" d="M893.34,147.86c-10.66,0-19.33-6.8-19.33-15.16s8.67-15.17,19.33-15.17,19.33,6.81,19.33,15.17S904,147.86,893.34,147.86Zm0-25c-7.72,0-14,4.41-14,9.83s6.28,9.83,14,9.83,14-4.41,14-9.83S901.06,122.87,893.34,122.87Z"/><ellipse class="cls-15" cx="860.01" cy="132.7" rx="16.66" ry="12.5"/><path class="cls-16" d="M860,147.86c-10.66,0-19.33-6.8-19.33-15.16s8.67-15.17,19.33-15.17,19.33,6.81,19.33,15.17S870.67,147.86,860,147.86Zm0-25c-7.72,0-14,4.41-14,9.83s6.28,9.83,14,9.83,14-4.41,14-9.83S867.73,122.87,860,122.87Z"/><circle class="cls-15" cx="876.68" cy="132.7" r="8.33"/><path class="cls-16" d="M876.67,143.7a11,11,0,1,1,11-11A11,11,0,0,1,876.67,143.7Zm0-16.67a5.67,5.67,0,1,0,5.67,5.67A5.67,5.67,0,0,0,876.67,127Z"/><ellipse class="cls-1" cx="1342.19" cy="387.56" rx="12.61" ry="31.52"/><path class="cls-2" d="M1342.2,422.21c-10.23,0-15.75-17.85-15.75-34.65s5.52-34.66,15.75-34.66,15.74,17.86,15.74,34.66S1352.42,422.21,1342.2,422.21Zm0-63c-3.87,0-9.47,11.05-9.47,28.38s5.6,28.38,9.47,28.38,9.46-11.06,9.46-28.38S1346.06,359.18,1342.2,359.18Z"/><path class="cls-15" d="M1328.46,344.6h8.26a0,0,0,0,1,0,0v88.25a0,0,0,0,1,0,0h-8.26A15.85,15.85,0,0,1,1312.61,417V360.45a15.85,15.85,0,0,1,15.85-15.85Z" transform="translate(-36.56 158.71) rotate(-6.76)"/><path class="cls-16" d="M1338.94,434.43a27.27,27.27,0,0,1-27-24l-4.71-39.75a27.28,27.28,0,0,1,23.85-30.27l3.12-.36,11.13,93.86-3.12.37A27.54,27.54,0,0,1,1338.94,434.43Zm-10.22-87.22a21,21,0,0,0-15.27,22.69l4.71,39.75a21,21,0,0,0,20.16,18.49Z"/><path class="cls-15" d="M1363.16,344.55h8.26a0,0,0,0,1,0,0v88.25a0,0,0,0,1,0,0h-8.26a15.85,15.85,0,0,1-15.85-15.85V360.4A15.85,15.85,0,0,1,1363.16,344.55Z" transform="translate(2663.49 934.72) rotate(-173.24)"/><path class="cls-16" d="M1345.09,434.38a27.56,27.56,0,0,1-3.26-.2l-3.12-.37L1349.84,340l3.12.37a27.25,27.25,0,0,1,23.85,30.27l-4.72,39.74a27.25,27.25,0,0,1-27,24.05Zm10.22-87.23-9.6,80.94a21,21,0,0,0,20.15-18.5l4.71-39.74a21,21,0,0,0-15.26-22.7Z"/><path class="cls-17" d="M485.26,105.77v-20H464.67v20a9.53,9.53,0,0,1-5.37,8.28c-8.9,4.76-14.87,13.44-14.87,23.37v37.87H505.5V137.42c0-9.93-6-18.61-14.86-23.37A9.54,9.54,0,0,1,485.26,105.77Z"/><path class="cls-7" d="M509,178.78H441V137.42c0-10.81,6.4-20.94,16.71-26.44a6.06,6.06,0,0,0,3.52-5.21V82.31h27.57v23.46a6.08,6.08,0,0,0,3.53,5.21c10.31,5.5,16.71,15.63,16.71,26.44Zm-61.07-7H502V137.42c0-8.35-4.87-15.94-13-20.29a13.08,13.08,0,0,1-7.21-11.36V89.28H468.16v16.49a13.09,13.09,0,0,1-7.22,11.36c-8.15,4.35-13,11.94-13,20.29Z"/><path class="cls-7" d="M494.57,117.78a11.63,11.63,0,1,1,11.62-11.63A11.63,11.63,0,0,1,494.57,117.78Zm0-16.28a4.66,4.66,0,1,0,4.65,4.65A4.66,4.66,0,0,0,494.57,101.5Z"/><rect class="cls-6" x="457.69" y="76.77" width="34.55" height="9.02" rx="2.97"/><path class="cls-7" d="M487.73,89.28H462.21a8,8,0,0,1,0-16h25.52a8,8,0,0,1,0,16Zm-25.52-9a1,1,0,1,0,0,2.06h25.52a1,1,0,0,0,0-2.06Z"/><path class="cls-18" d="M505.5,161H444.43V142.05a5.34,5.34,0,0,1,4.11-5.2,115.2,115.2,0,0,1,52.85,0,5.34,5.34,0,0,1,4.11,5.2Z"/><path class="cls-7" d="M509,164.46H441V142.05a8.78,8.78,0,0,1,6.79-8.59,118.43,118.43,0,0,1,54.45,0,8.79,8.79,0,0,1,6.8,8.59Zm-61.07-7H502V142.05a1.85,1.85,0,0,0-1.43-1.81,111.42,111.42,0,0,0-51.25,0,1.82,1.82,0,0,0-1.42,1.8Z"/><circle class="cls-6" cx="1124.96" cy="605.32" r="36.48"/><path class="cls-7" d="M1125,644.94a39.62,39.62,0,1,1,39.61-39.62A39.66,39.66,0,0,1,1125,644.94Zm0-73a33.34,33.34,0,1,0,33.34,33.34A33.38,33.38,0,0,0,1125,572Z"/><path class="cls-6" d="M1150,608c18.44,10,34.4,16.21,35.65,13.91a38,38,0,0,1-51.47,15.31h0a38,38,0,0,1-15.31-51.47C1117.64,588,1131.58,598,1150,608Z"/><path class="cls-7" d="M1152.21,644.92a41.11,41.11,0,0,1-36.08-60.68l5.52,3a2.22,2.22,0,0,0,.16-1.88c1,1.84,10.63,9.56,29.7,19.88h0c19.08,10.33,30.86,14.21,32.88,14a2.24,2.24,0,0,0-1.48,1.16l5.52,3h0A41.16,41.16,0,0,1,1152.21,644.92ZM1119.49,592a34.84,34.84,0,0,0,60.58,32.8,66.92,66.92,0,0,1-6.91-2.35,232.25,232.25,0,0,1-24.63-11.73h0a232.64,232.64,0,0,1-23.28-14.21A66.38,66.38,0,0,1,1119.49,592Z"/><ellipse class="cls-19" cx="1152.28" cy="603.82" rx="4.75" ry="37.97" transform="translate(72.65 1329.58) rotate(-61.57)"/><path class="cls-7" d="M1184.36,625.51c-2.43,0-6-1-11.2-3a263.51,263.51,0,0,1-47.91-25.94c-8.4-6-10.79-9.22-9.12-12.3s5.66-2.83,15.28.92A230.87,230.87,0,0,1,1156,596.88h0a231,231,0,0,1,23.29,14.22c8.39,6,10.78,9.22,9.11,12.29C1187.67,624.8,1186.42,625.51,1184.36,625.51Zm-56.88-35.12a248.36,248.36,0,0,0,49.6,26.86,206.17,206.17,0,0,0-24-14.85h0A207.47,207.47,0,0,0,1127.48,590.39Z"/><polygon class="cls-7" points="1343.79 97.84 1340.65 82.42 1346.93 82.42 1343.79 97.84"/><path class="cls-1" d="M1360.15,113.16v-.76c0-8.81-6.77-16.39-15.57-16.8a16.36,16.36,0,0,0-17.15,16.34v.38a37.71,37.71,0,0,1-7.78,22.5,30.08,30.08,0,1,0,48-.33A35.15,35.15,0,0,1,1360.15,113.16Z"/><path class="cls-2" d="M1343.82,186q-1.08,0-2.16-.06a33.2,33.2,0,0,1-24.52-53,34.51,34.51,0,0,0,7.15-20.63v-.38a19.5,19.5,0,0,1,20.44-19.48,19.72,19.72,0,0,1,18.56,19.94v.76a31.82,31.82,0,0,0,6.87,19.42,32.83,32.83,0,0,1,6.84,20.17A33.33,33.33,0,0,1,1366.52,177,32.87,32.87,0,0,1,1343.82,186Zm0-87.24a13.2,13.2,0,0,0-13.22,13.22v.38a40.72,40.72,0,0,1-8.4,24.37,26.93,26.93,0,0,0,19.89,42.94,26.93,26.93,0,0,0,23.12-43.23,38.11,38.11,0,0,1-8.17-23.24v-.76c0-7.21-5.64-13.34-12.58-13.67Z"/><polygon class="cls-20" points="922.66 638.22 922.66 611.87 899.84 598.7 877.02 611.87 877.02 638.22 899.84 651.4 922.66 638.22"/><path class="cls-21" d="M899.84,655l-26-15v-30l26-15,26,15v30Zm-19.68-18.61,19.68,11.37,19.68-11.37V613.68l-19.68-11.36-19.68,11.36Z"/><polygon class="cls-20" points="968.3 638.22 968.3 611.87 945.48 598.7 922.66 611.87 922.66 638.22 945.48 651.4 968.3 638.22"/><path class="cls-21" d="M945.48,655l-26-15v-30l26-15,25.95,15v30ZM925.8,636.41l19.68,11.37,19.68-11.37V613.68l-19.68-11.36L925.8,613.68Z"/><polygon class="cls-20" points="945.48 598.77 945.48 572.42 922.66 559.25 899.84 572.42 899.84 598.77 922.66 611.95 945.48 598.77"/><path class="cls-21" d="M922.66,615.57l-26-15v-30l26-15,26,15v30ZM903,597l19.68,11.36L942.34,597V574.23l-19.68-11.36L903,574.23Z"/><circle class="cls-22" cx="262.95" cy="376.9" r="37.65"/><path class="cls-21" d="M263,417.69a40.79,40.79,0,1,1,40.79-40.79A40.84,40.84,0,0,1,263,417.69Zm0-75.31a34.52,34.52,0,1,0,34.52,34.52A34.56,34.56,0,0,0,263,342.38Z"/><rect class="cls-21" x="261.76" y="338.86" width="2.39" height="76.07" transform="translate(-189.49 296.33) rotate(-45)"/><rect class="cls-21" x="224.92" y="375.7" width="76.07" height="2.39" transform="translate(-189.52 296.51) rotate(-45.02)"/><rect class="cls-21" x="261.76" y="339.25" width="2.39" height="75.31"/><rect class="cls-21" x="225.3" y="375.7" width="75.31" height="2.39"/><path class="cls-5" d="M37,384.09a36.48,36.48,0,0,1,10.84-32.51l4.33,4.54a30.28,30.28,0,0,0-9,26.94Z"/><path class="cls-17" d="M40.11,384.57h0A32.08,32.08,0,0,0,11.42,402.3L3.6,415.85a4.34,4.34,0,0,0,3.88,6.27H72.75a4.33,4.33,0,0,0,3.87-6.27L68.8,402.3A32.08,32.08,0,0,0,40.11,384.57Z"/><path class="cls-7" d="M72.75,425.26H7.48A7.47,7.47,0,0,1,.79,414.45l.09-.17,7.78-13.47a35.21,35.21,0,0,1,62.9,0l7.87,13.64a7.47,7.47,0,0,1-6.68,10.81ZM6.38,417.31a1.18,1.18,0,0,0,.08,1.11,1.17,1.17,0,0,0,1,.56H72.75a1.16,1.16,0,0,0,1-.56,1.14,1.14,0,0,0,.08-1.1L66,403.7a28.94,28.94,0,0,0-51.76,0l-.09.17Z"/><path class="cls-5" d="M52.31,353.85a24.5,24.5,0,0,1-9.8-2.85,29.78,29.78,0,0,1-7.29-5.37,29.45,29.45,0,0,1-5.38-7.27A24.28,24.28,0,0,1,27,328.54a24,24,0,0,1,9.82,2.84,29.27,29.27,0,0,1,7.27,5.38A29.73,29.73,0,0,1,49.46,344,24.55,24.55,0,0,1,52.31,353.85Z"/><path class="cls-5" d="M85.81,353.85a26.37,26.37,0,0,1-9.5,4.91,33.47,33.47,0,0,1-9.5,1.36,32.72,32.72,0,0,1-9.49-1.34,26.28,26.28,0,0,1-9.5-4.93,26.15,26.15,0,0,1,9.5-4.94,32.72,32.72,0,0,1,9.49-1.34,33.47,33.47,0,0,1,9.5,1.36A26.24,26.24,0,0,1,85.81,353.85Z"/><path class="cls-17" d="M1175.61,174.8l-12.74-31.86a1.36,1.36,0,0,0-2.23-.45l-3.83,3.83a1.36,1.36,0,0,1-2.23-.46l-11.62-29a1.36,1.36,0,0,0-2.48-.1l-3.93,7.85a1.36,1.36,0,0,1-2.51-.17l-11.29-33.89a1.37,1.37,0,0,0-2.56-.08l-11.36,28.41a1.37,1.37,0,0,1-2.23.46l-3.5-3.5a1.36,1.36,0,0,0-2.29.7l-5.76,28.79a1.36,1.36,0,0,1-2.3.69l-10.15-10.15a1.36,1.36,0,0,0-2.26.53l-12.81,38.44Z"/><path class="cls-7" d="M1180.42,178.05H1063l14.24-42.72a4.61,4.61,0,0,1,7.64-1.8l7.65,7.66,5.07-25.33a4.61,4.61,0,0,1,7.78-2.35l1.47,1.46,10.3-25.74a4.61,4.61,0,0,1,8.66.25l9.85,29.56,1.89-3.78a4.62,4.62,0,0,1,8.41.35L1156.53,142l1.81-1.81a4.62,4.62,0,0,1,7.55,1.54ZM1072,171.55h98.77l-9.89-24.74-1.81,1.81a4.63,4.63,0,0,1-7.55-1.55l-10-25.14-2,4.1a4.61,4.61,0,0,1-8.5-.61l-9.67-29-9.44,23.62a4.63,4.63,0,0,1-7.55,1.55l-1-1-5.06,25.32a4.62,4.62,0,0,1-7.79,2.36l-8-8Z"/><path class="cls-23" d="M1107.93,409.69c-4.58-13.6,1.77-25.72,3-28,5.26-10,11.29-10.23,15.84-19.46,4.34-8.77,3.53-18,2.28-24.18a106.42,106.42,0,0,1,24.94,47.5l9.17-12.4a42.3,42.3,0,0,1,4.18,27c-.39,2-4.6,22.56-22.09,28.73a29.14,29.14,0,0,1-19.65,0C1113.51,424.42,1109,413,1107.93,409.69Z"/><path class="cls-12" d="M1135.11,433.33a29.66,29.66,0,0,1-10.49-1.88c-12.6-4.72-17.65-16.19-19.23-20.9h0c-4.3-12.78.11-24.35,3.13-30.11a35.66,35.66,0,0,1,8.83-10.85c2.66-2.39,5-4.44,7-8.55,3.1-6.29,3.79-13.85,2.05-22.47l-1.92-9.52,6.54,7.19a109.08,109.08,0,0,1,24.13,43.19l8.39-11.35,2,3.83a45,45,0,0,1,4.43,28.77,50.5,50.5,0,0,1-4.9,13.58c-4.51,8.46-11.06,14.41-18.93,17.18A33.52,33.52,0,0,1,1135.11,433.33Zm-24.64-24.49c1.35,4,5.59,13.68,16,17.59a26.37,26.37,0,0,0,17.82-.05c15.87-5.6,19.93-24.56,20.34-26.7a38.68,38.68,0,0,0-2.11-21.26l-9.9,13.39-1.31-5.66a103.9,103.9,0,0,0-18.66-39.54,36,36,0,0,1-3.54,16.8,31.11,31.11,0,0,1-8.2,10.17,30.33,30.33,0,0,0-7.67,9.35c-2.62,5-6.46,15-2.8,25.91Z"/><path class="cls-24" d="M1123.44,415.41c-2.27-6.72.87-12.71,1.46-13.85,2.6-5,5.58-5.06,7.83-9.62,2.15-4.34,1.75-8.9,1.13-12a52.65,52.65,0,0,1,12.33,23.49c1.51-2,3-4.09,4.54-6.13a21,21,0,0,1,2.06,13.37c-.19,1-2.27,11.16-10.92,14.21a14.46,14.46,0,0,1-9.72,0C1126.2,422.7,1124,417,1123.44,415.41Z"/><rect class="cls-6" x="248.73" y="559.81" width="48.72" height="9.71"/><path class="cls-7" d="M300.69,572.77H245.47V556.56h55.22ZM252,566.27h42.21v-3.21H252Z"/><polygon class="cls-6" points="295.67 569.52 250.5 569.52 244.04 604.37 244.04 650.83 302.12 650.83 302.12 604.37 295.67 569.52"/><path class="cls-7" d="M305.37,654.08H240.79l.06-50.3,6.94-37.51h50.58l7,38.1Zm-58.08-6.5h51.58V604.67L293,572.77H253.2l-5.91,31.9Z"/><rect class="cls-19" x="255.74" y="618.95" width="35.53" height="21.82"/><path class="cls-7" d="M294.52,644h-42V615.7h42ZM259,637.52h29V622.2H259Z"/><path class="cls-6" d="M57.61,601.34H12L4.88,630.23c-1.12,5,2.27,9.83,6.88,9.83h46c5.4-.09,8.39-3.64,6.88-9.83Z"/><path class="cls-7" d="M53.18,607l6,24.6a4.2,4.2,0,0,1,.09,2.51,2.7,2.7,0,0,1-1.55.34H11.76a1.22,1.22,0,0,1-.89-.53,2.88,2.88,0,0,1-.5-2.38l6-24.54H53.18m4.43-5.63H12L4.88,630.23c-1.12,5,2.27,9.83,6.88,9.83h46c5.4-.09,8.39-3.64,6.88-9.83l-7-28.89Z"/><path class="cls-25" d="M59.77,644.48H9.93a10.49,10.49,0,0,1-8.23-4.05,11.74,11.74,0,0,1-2.22-10L9.55,587A10.86,10.86,0,0,1,20,578.29H49.71A10.86,10.86,0,0,1,60.15,587l10.07,43.44a11.75,11.75,0,0,1-2.22,10A10.49,10.49,0,0,1,59.77,644.48ZM20,584a5.18,5.18,0,0,0-4.86,4.23L5.06,631.68a6.17,6.17,0,0,0,1.12,5.18,4.75,4.75,0,0,0,3.75,1.89H59.77a4.75,4.75,0,0,0,3.75-1.89,6.17,6.17,0,0,0,1.12-5.18L54.57,588.25A5.18,5.18,0,0,0,49.71,584Z"/><path class="cls-26" d="M55.7,581.15H12.65A3.82,3.82,0,0,1,9.94,580l-7.26-7.26A2.19,2.19,0,0,1,4.23,569H55.7a3.84,3.84,0,0,1,3.84,3.84v4.44A3.84,3.84,0,0,1,55.7,581.15Z"/><path class="cls-27" d="M55.7,584H12.65a6.66,6.66,0,0,1-4.74-2L.65,574.79a5.05,5.05,0,0,1,3.58-8.62H55.7a6.71,6.71,0,0,1,6.71,6.7v4.44A6.72,6.72,0,0,1,55.7,584ZM5.86,571.9,12,578a1,1,0,0,0,.69.29H55.7a1,1,0,0,0,1-1v-4.44a1,1,0,0,0-1-1Z"/><path class="cls-27" d="M81.56,609.06l-4.65-3.35a21.17,21.17,0,0,0,4-12.44c0-9.95-3.11-21.37-27.37-21.37v-5.73c22,0,33.1,9.12,33.1,27.1A26.84,26.84,0,0,1,81.56,609.06Z"/></svg>