<svg id="Layer_1" data-name="Layer 1" xmlns="http://www.w3.org/2000/svg" viewBox="0 0 1000 1200"><defs><style>.cls-1{fill:#8ba568;}.cls-2{fill:#67873a;}.cls-3{fill:#de917e;}.cls-4{fill:#c3352f;}.cls-5{fill:#65863a;}.cls-17,.cls-6{fill:#b69d88;}.cls-7{fill:#56493a;}.cls-8{fill:#736458;}.cls-9{fill:#969bc6;}.cls-10{fill:#2d368e;}.cls-11,.cls-23{fill:#f8aa83;}.cls-12{fill:#f17443;}.cls-13,.cls-24{fill:#d05d4a;}.cls-14{fill:#b2a9a7;}.cls-15{fill:#fdd1a9;}.cls-16{fill:#ac8e78;}.cls-17,.cls-18,.cls-20,.cls-23,.cls-24{fill-rule:evenodd;}.cls-18,.cls-19{fill:#fff;}.cls-20,.cls-22{fill:#ffd67b;}.cls-21{fill:#fbad18;}.cls-25{fill:#d2cfd1;}.cls-26{fill:#807877;}.cls-27{fill:#3e3b3a;}</style></defs><title>coffee-icons</title><path class="cls-1" d="M377.57,146.06a39.14,39.14,0,0,1-20.31,12.67,38,38,0,0,1-14.83.57,53.21,53.21,0,0,1,5.48-12.1,54,54,0,0,1,14.26-15.4Z"/><path class="cls-2" d="M348.47,162.91a42.35,42.35,0,0,1-6.53-.51l-3.59-.57,1.08-3.46a56.66,56.66,0,0,1,20.89-29.11l2.09-1.52,19.51,18.07-2,2.29a42.52,42.52,0,0,1-22,13.68A40.78,40.78,0,0,1,348.47,162.91Zm-1.76-6.32a34,34,0,0,0,9.81-.91,35.69,35.69,0,0,0,16.62-9.45L362,135.9a50.19,50.19,0,0,0-15.27,20.69Z"/><path class="cls-1" d="M400.61,94.71A39.17,39.17,0,0,1,421,82.2a37.8,37.8,0,0,1,14.84-.46,53.58,53.58,0,0,1-19.95,27.35Z"/><path class="cls-2" d="M415.64,113.14,396.27,94.93l2-2.27A42.55,42.55,0,0,1,420.3,79.14a40.78,40.78,0,0,1,16.07-.5l3.58.59-1.11,3.46a56.64,56.64,0,0,1-21.1,29ZM405.05,94.57,416.13,105a50.26,50.26,0,0,0,15.43-20.58,34.48,34.48,0,0,0-9.83.84A35.72,35.72,0,0,0,405.05,94.57Z"/><ellipse class="cls-3" cx="389.55" cy="142.28" rx="16.6" ry="22.13"/><path class="cls-4" d="M389.55,167.55c-10.88,0-19.74-11.34-19.74-25.27S378.67,117,389.55,117s19.73,11.34,19.73,25.27S400.43,167.55,389.55,167.55Zm0-44.26c-7.42,0-13.46,8.52-13.46,19s6,19,13.46,19,13.46-8.52,13.46-19S397,123.29,389.55,123.29Z"/><ellipse class="cls-3" cx="389.55" cy="98.02" rx="16.6" ry="22.13"/><path class="cls-4" d="M389.55,123.29c-10.88,0-19.74-11.33-19.74-25.27s8.86-25.26,19.74-25.26S409.28,84.09,409.28,98,400.43,123.29,389.55,123.29Zm0-44.26c-7.42,0-13.46,8.52-13.46,19s6,19,13.46,19S403,108.5,403,98,397,79,389.55,79Z"/><ellipse class="cls-3" cx="411.68" cy="120.15" rx="22.13" ry="16.6"/><path class="cls-4" d="M411.68,139.89c-13.94,0-25.27-8.86-25.27-19.74s11.33-19.73,25.27-19.73S437,109.27,437,120.15,425.61,139.89,411.68,139.89Zm0-33.2c-10.47,0-19,6-19,13.46s8.52,13.46,19,13.46,19-6,19-13.46S422.15,106.69,411.68,106.69Z"/><ellipse class="cls-3" cx="367.42" cy="120.15" rx="22.13" ry="16.6"/><path class="cls-4" d="M367.42,139.89c-13.93,0-25.27-8.86-25.27-19.74s11.34-19.73,25.27-19.73,25.27,8.85,25.27,19.73S381.35,139.89,367.42,139.89Zm0-33.2c-10.47,0-19,6-19,13.46s8.52,13.46,19,13.46,19-6,19-13.46S377.89,106.69,367.42,106.69Z"/><circle class="cls-3" cx="389.55" cy="120.15" r="11.06"/><path class="cls-4" d="M389.55,134.36a14.21,14.21,0,1,1,14.2-14.21A14.22,14.22,0,0,1,389.55,134.36Zm0-22.13a7.93,7.93,0,1,0,7.92,7.92A7.93,7.93,0,0,0,389.55,112.23Z"/><path class="cls-5" d="M389.15,575.64a44.11,44.11,0,0,1-10.08-1.54,72.55,72.55,0,0,1-9.39-3.19,69.87,69.87,0,0,1-8.87-4.43,43.38,43.38,0,0,1-8.18-6.08,43.48,43.48,0,0,1,10.08,1.53A72.66,72.66,0,0,1,381,569.56,44.14,44.14,0,0,1,389.15,575.64Z"/><path class="cls-3" d="M369.3,645.85,348.61,610a22.92,22.92,0,0,1,19.85-34.38h41.38A22.92,22.92,0,0,1,429.69,610L409,645.85A22.92,22.92,0,0,1,369.3,645.85Z"/><path class="cls-4" d="M409.42,581.91A16.9,16.9,0,0,1,424,607.25l-20.26,35.1a16.9,16.9,0,0,1-29.26,0l-20.26-35.1a16.9,16.9,0,0,1,14.63-25.34h40.53m0-6.27H368.89a23.16,23.16,0,0,0-20.06,34.75l20.26,35.09a23.15,23.15,0,0,0,40.12,0l20.27-35.09a23.17,23.17,0,0,0-20.06-34.75Z"/><path class="cls-5" d="M389.15,575.64a44.14,44.14,0,0,1,8.18-6.08,72.66,72.66,0,0,1,18.26-7.63,43.48,43.48,0,0,1,10.08-1.53,43.38,43.38,0,0,1-8.18,6.08,68.56,68.56,0,0,1-8.87,4.43,72.55,72.55,0,0,1-9.39,3.19A44.11,44.11,0,0,1,389.15,575.64Z"/><path class="cls-5" d="M389.15,575.64a35.33,35.33,0,0,1-7.55-5.1,57.45,57.45,0,0,1-11.37-13.37,35.47,35.47,0,0,1-3.8-8.29A34.76,34.76,0,0,1,374,554a54.6,54.6,0,0,1,6.19,6.26,57.37,57.37,0,0,1,5.17,7.13A35.4,35.4,0,0,1,389.15,575.64Z"/><path class="cls-5" d="M389.15,575.64a35,35,0,0,1,3.81-8.28,56.29,56.29,0,0,1,5.16-7.13,55.43,55.43,0,0,1,6.19-6.26,34.76,34.76,0,0,1,7.56-5.09,35.07,35.07,0,0,1-3.8,8.29,56,56,0,0,1-5.17,7.12,55.42,55.42,0,0,1-6.2,6.25A35.33,35.33,0,0,1,389.15,575.64Z"/><path class="cls-5" d="M389.15,575.64a33.82,33.82,0,0,1-2.46-8.52,54.24,54.24,0,0,1-.68-8.51,53.18,53.18,0,0,1,.67-8.52,33.26,33.26,0,0,1,2.47-8.51,32.86,32.86,0,0,1,2.47,8.51,53.18,53.18,0,0,1,.67,8.52,54.24,54.24,0,0,1-.68,8.51A33.41,33.41,0,0,1,389.15,575.64Z"/><rect class="cls-6" x="583.22" y="547.69" width="46.64" height="103.51"/><path class="cls-7" d="M633,654.34H580.08V544.55H633Zm-46.64-6.28h40.37V550.82H586.36Z"/><rect class="cls-7" x="583.22" y="559.34" width="46.64" height="6.28"/><rect class="cls-7" x="583.22" y="574.12" width="46.64" height="6.28"/><rect class="cls-7" x="583.22" y="588.91" width="46.64" height="6.28"/><rect class="cls-8" x="583.22" y="603.7" width="46.64" height="6.28"/><rect class="cls-8" x="583.22" y="648.06" width="46.64" height="6.28"/><rect class="cls-7" x="603.4" y="547.69" width="6.28" height="59.15"/><rect class="cls-3" x="583.22" y="606.84" width="46.64" height="44.36"/><path class="cls-4" d="M633,654.34H580.08V603.7H633Zm-46.64-6.28h40.37V610H586.36Z"/><path class="cls-4" d="M639.46,629.84l-5.08-3.68a11.3,11.3,0,0,0,1.43-9.74,11.09,11.09,0,0,0-6.87-6.58l1.85-6a17.32,17.32,0,0,1,10.94,10.49C644.58,622.42,640,629.1,639.46,629.84Z"/><path class="cls-4" d="M569.41,625.57a17.38,17.38,0,0,1,2.45-15c5-6.93,13.16-6.92,14.07-6.91l-.16,6.28a10.55,10.55,0,0,0-10.37,13.73Z"/><circle class="cls-9" cx="804.91" cy="363.66" r="28.83"/><path class="cls-10" d="M804.89,395.65a32,32,0,0,1-30.12-21.35h0a32,32,0,1,1,40.79,19.51A32.28,32.28,0,0,1,804.89,395.65Zm0-57.7a25.93,25.93,0,0,0-8.57,1.48,25.68,25.68,0,0,0-15.67,32.78h0A25.67,25.67,0,1,0,804.93,338Z"/><line class="cls-9" x1="802.72" y1="323.25" x2="798.67" y2="335.29"/><polygon class="cls-10" points="802.73 323.25 801.65 336.29 795.7 334.29 802.73 323.25"/><line class="cls-9" x1="778.45" y1="331.82" x2="789.16" y2="338.65"/><polygon class="cls-10" points="778.45 331.82 790.85 336 787.47 341.29 778.45 331.82"/><line class="cls-9" x1="789.41" y1="324.21" x2="793.64" y2="336.18"/><polygon class="cls-10" points="789.41 324.21 796.6 335.14 790.68 337.23 789.41 324.21"/><circle class="cls-9" cx="839.49" cy="386.8" r="28.83"/><path class="cls-10" d="M839.51,418.79a32,32,0,1,1,30.12-21.34h0a32,32,0,0,1-30.12,21.34Zm0-57.68a25.69,25.69,0,1,0,24.2,34.25h0a25.7,25.7,0,0,0-24.2-34.25Z"/><line class="cls-9" x1="841.68" y1="346.4" x2="845.73" y2="358.43"/><polygon class="cls-10" points="841.68 346.4 848.7 357.43 842.75 359.43 841.68 346.4"/><line class="cls-9" x1="865.95" y1="354.97" x2="855.24" y2="361.79"/><polygon class="cls-10" points="865.95 354.96 856.93 364.44 853.55 359.14 865.95 354.96"/><line class="cls-9" x1="854.99" y1="347.35" x2="850.76" y2="359.33"/><polygon class="cls-10" points="854.99 347.35 853.72 360.37 847.8 358.28 854.99 347.35"/><polygon class="cls-5" points="174.72 95.44 176.74 75.95 182.79 77.59 174.72 95.44"/><path class="cls-5" d="M176.76,85.84A19.23,19.23,0,0,1,161,84.17a19,19,0,0,1-9.13-13,19.22,19.22,0,0,1,24.9,14.64Z"/><circle class="cls-11" cx="172.63" cy="130.58" r="36.54"/><path class="cls-12" d="M172.63,170.09a39.51,39.51,0,1,1,39.51-39.51A39.55,39.55,0,0,1,172.63,170.09Zm0-73.07a33.57,33.57,0,1,0,33.56,33.56A33.6,33.6,0,0,0,172.63,97Z"/><path class="cls-5" d="M204.7,867l-4.56-4.32C201,861.72,220,841,209,809.34c-4.34,11.9-15.27,32.24-40.4,38.43l-1.5-6.1c31.5-7.75,38.21-42,38.27-42.31L207.1,790l4.17,8.53c10.22,20.94,7.94,38.39,4.22,49.34A55.73,55.73,0,0,1,204.7,867Z"/><circle class="cls-3" cx="153.17" cy="862.76" r="26.54"/><path class="cls-4" d="M153.17,842.49a20.26,20.26,0,0,1,6.74,39.37,20,20,0,0,1-6.74,1.17,20.27,20.27,0,0,1,0-40.54m0-6.28a26.54,26.54,0,1,0,25,17.71,26.52,26.52,0,0,0-25-17.71Z"/><circle class="cls-3" cx="184.99" cy="884.06" r="26.54"/><path class="cls-4" d="M185,857.52v6.27a20.26,20.26,0,1,1-19.11,13.52A20.2,20.2,0,0,1,185,863.79v-6.27m0,0a26.54,26.54,0,0,0-8.83,51.56A26.25,26.25,0,0,0,185,910.6,26.54,26.54,0,0,0,193.82,859a26,26,0,0,0-8.83-1.52Z"/><path class="cls-6" d="M610.29,325.86a7,7,0,0,1,9.38-2.91,32.75,32.75,0,0,1,6.43,4.3c8.06,6.89,8.35,14.34,8.37,15.38l-36.26,68.18c0-1-.31-8.49-8.36-15.38a34.65,34.65,0,0,0-10.3-6,2.4,2.4,0,0,1-1.27-3.37Z"/><path class="cls-7" d="M595.28,423l-.21-12.14c0-1.16-.46-7.23-7.27-13.05a31.59,31.59,0,0,0-9.35-5.45,5.5,5.5,0,0,1-3.23-3.21,5.57,5.57,0,0,1,.29-4.57l32-60.19a10.18,10.18,0,0,1,13.58-4.23,36.07,36.07,0,0,1,7,4.7c8.62,7.39,9.42,15.43,9.46,17.71v.81Zm-13.84-36.21A38,38,0,0,1,591.89,393a28.43,28.43,0,0,1,7.29,9.27l32.1-60.38c-.21-2.08-1.35-7.28-7.22-12.3a30.14,30.14,0,0,0-5.82-3.89,3.89,3.89,0,0,0-5.18,1.6Z"/><path class="cls-6" d="M589.61,406.23a15.19,15.19,0,0,1-12.73-14.56A9.71,9.71,0,0,1,578,386.6l32-60.2a2.24,2.24,0,0,1,4.14.44,14.75,14.75,0,0,0,3.45,6,15.69,15.69,0,0,0,8.59,4.58Z"/><path class="cls-7" d="M591.31,409.72l-2.25-.4a18.31,18.31,0,0,1-15.31-17.47,12.82,12.82,0,0,1,1.47-6.73l32-60.19a5.38,5.38,0,0,1,9.92,1,11.67,11.67,0,0,0,2.72,4.77,12.54,12.54,0,0,0,6.87,3.64l4.24.75Zm20.52-80.06-31.07,58.41a6.54,6.54,0,0,0-.74,3.42,12.63,12.63,0,0,0,3.27,8,12.39,12.39,0,0,0,4.72,3.06l33.62-63.22a18.1,18.1,0,0,1-6.31-4.32A17.69,17.69,0,0,1,611.83,329.66Z"/><path class="cls-13" d="M803.82,96.31h36.77A6.72,6.72,0,0,1,847.3,103v0a18.39,18.39,0,0,1-18.39,18.39H815.48A18.39,18.39,0,0,1,797.1,103v0A6.72,6.72,0,0,1,803.82,96.31Z"/><rect class="cls-14" x="819.06" y="121.41" width="6.28" height="50.2"/><path class="cls-14" d="M797.1,171.3a44.51,44.51,0,0,1,12.55-4.2A67.41,67.41,0,0,1,822.2,166a68.22,68.22,0,0,1,12.55,1.15,44.66,44.66,0,0,1,12.55,4.18v.63l-6.27.15-6.28,0-12.55.11-12.55-.1-6.28-.06-6.27-.15Z"/><path class="cls-14" d="M822.2,124.55A28.27,28.27,0,0,1,794,96.31V68.07h56.48V96.31A28.27,28.27,0,0,1,822.2,124.55Zm-22-50.21v22a22,22,0,0,0,43.93,0v-22Z"/><path class="cls-7" d="M146.23,546.08c1.85,5.11,3.29,10.19,5,15.17.88,2.47,1.72,5,2.66,7.37.44,1.23,1,2.42,1.42,3.63s.95,2.42,1.42,3.63c1.9,4.82,3.85,9.81,7.08,14a37.15,37.15,0,0,0,5.45,5.69,39.45,39.45,0,0,0,6.55,4.32c9.37,4.61,19.42,9.09,28.19,15.66a98.33,98.33,0,0,1,12.13,10.92,83.48,83.48,0,0,1,10,12.8l-.4.35c-4.21-3.39-8.27-6.8-12.44-10.06-1-.82-2.08-1.63-3.14-2.41s-2.06-1.63-3.14-2.39c-2.11-1.56-4.22-3.11-6.36-4.61-4.28-3-8.56-6-13-8.8a137.72,137.72,0,0,1-13.39-9c-2.16-1.69-4.19-3.55-6.16-5.42S164.29,593,162.5,591a77.06,77.06,0,0,1-9.77-13.18,34.2,34.2,0,0,1-1.81-3.7,40.49,40.49,0,0,1-1.47-3.84,75.8,75.8,0,0,1-2.21-7.89,70.55,70.55,0,0,1-1.54-16.19Z"/><path class="cls-7" d="M199,652.81c-1.86-5.11-3.3-10.2-5-15.17-.88-2.47-1.71-4.95-2.66-7.38-.43-1.23-1-2.41-1.42-3.63s-.95-2.42-1.42-3.63c-1.9-4.81-3.85-9.8-7.08-14a36.61,36.61,0,0,0-5.45-5.68,39,39,0,0,0-6.55-4.32c-9.37-4.61-19.42-9.09-28.19-15.67a98.17,98.17,0,0,1-12.13-10.91,84.11,84.11,0,0,1-10-12.8l.4-.36c4.21,3.39,8.28,6.81,12.44,10.06,1,.82,2.08,1.63,3.14,2.42s2.07,1.63,3.14,2.39c2.12,1.55,4.22,3.1,6.37,4.6,4.27,3,8.55,6,13,8.81a134.76,134.76,0,0,1,13.39,9c2.16,1.69,4.19,3.55,6.16,5.42s3.78,3.89,5.57,5.93a77.14,77.14,0,0,1,9.77,13.19,32.44,32.44,0,0,1,1.81,3.7,38,38,0,0,1,1.47,3.84,72.14,72.14,0,0,1,2.21,7.89,70.55,70.55,0,0,1,1.54,16.19Z"/><ellipse class="cls-15" cx="169.97" cy="622.77" rx="12.5" ry="16.66"/><path class="cls-16" d="M170,642.1c-8.36,0-15.16-8.67-15.16-19.33s6.8-19.33,15.16-19.33,15.17,8.67,15.17,19.33S178.34,642.1,170,642.1Zm0-33.32c-5.42,0-9.83,6.27-9.83,14s4.41,14,9.83,14,9.84-6.28,9.84-14S175.4,608.78,170,608.78Z"/><ellipse class="cls-15" cx="169.97" cy="589.44" rx="12.5" ry="16.66"/><path class="cls-16" d="M170,608.78c-8.36,0-15.16-8.68-15.16-19.34s6.8-19.33,15.16-19.33,15.17,8.68,15.17,19.33S178.34,608.78,170,608.78Zm0-33.33c-5.42,0-9.83,6.28-9.83,14s4.41,14,9.83,14,9.84-6.28,9.84-14S175.4,575.45,170,575.45Z"/><ellipse class="cls-15" cx="186.64" cy="606.11" rx="16.66" ry="12.5"/><path class="cls-16" d="M186.64,621.27c-10.66,0-19.33-6.8-19.33-15.16s8.67-15.17,19.33-15.17S206,597.75,206,606.11,197.3,621.27,186.64,621.27Zm0-25c-7.72,0-14,4.41-14,9.83s6.28,9.83,14,9.83,14-4.41,14-9.83S194.36,596.28,186.64,596.28Z"/><ellipse class="cls-15" cx="153.31" cy="606.11" rx="16.66" ry="12.5"/><path class="cls-16" d="M153.31,621.27c-10.66,0-19.33-6.8-19.33-15.16s8.67-15.17,19.33-15.17,19.33,6.81,19.33,15.17S164,621.27,153.31,621.27Zm0-25c-7.72,0-14,4.41-14,9.83s6.28,9.83,14,9.83,14-4.41,14-9.83S161,596.28,153.31,596.28Z"/><circle class="cls-15" cx="169.97" cy="606.11" r="8.33"/><path class="cls-16" d="M170,617.11a11,11,0,1,1,11-11A11,11,0,0,1,170,617.11Zm0-16.67a5.67,5.67,0,1,0,5.67,5.67A5.68,5.68,0,0,0,170,600.44Z"/><ellipse class="cls-1" cx="822.38" cy="850.68" rx="12.61" ry="31.52"/><path class="cls-2" d="M822.38,885.33c-10.22,0-15.74-17.85-15.74-34.65S812.16,816,822.38,816s15.75,17.86,15.75,34.66S832.61,885.33,822.38,885.33Zm0-63c-3.86,0-9.47,11.06-9.47,28.38s5.61,28.38,9.47,28.38,9.47-11.06,9.47-28.38S826.24,822.3,822.38,822.3Z"/><path class="cls-15" d="M808.65,807.73h8.26a0,0,0,0,1,0,0V896a0,0,0,0,1,0,0h-8.26a15.85,15.85,0,0,1-15.85-15.85V823.58A15.85,15.85,0,0,1,808.65,807.73Z" transform="translate(-94.72 100.71) rotate(-6.76)"/><path class="cls-16" d="M819.12,897.55a27.25,27.25,0,0,1-27-24l-4.71-39.75a27.27,27.27,0,0,1,23.85-30.26l3.11-.37L825.5,897l-3.11.37A27.58,27.58,0,0,1,819.12,897.55Zm-10.21-87.22A21,21,0,0,0,793.64,833l4.71,39.74a21,21,0,0,0,20.15,18.49Z"/><path class="cls-15" d="M843.34,807.67h8.26a0,0,0,0,1,0,0v88.25a0,0,0,0,1,0,0h-8.26a15.85,15.85,0,0,1-15.85-15.85V823.52A15.85,15.85,0,0,1,843.34,807.67Z" transform="translate(1572.94 1796.53) rotate(-173.24)"/><path class="cls-16" d="M825.27,897.5a27.56,27.56,0,0,1-3.26-.2l-3.11-.37L830,803.07l3.11.37A27.23,27.23,0,0,1,857,833.71l-4.71,39.74a27.25,27.25,0,0,1-27,24Zm10.22-87.23-9.6,80.94a21,21,0,0,0,20.16-18.5L850.76,833a21,21,0,0,0-15.27-22.7Z"/><path class="cls-17" d="M616,99.89v-20H595.38v20a9.53,9.53,0,0,1-5.37,8.28c-8.91,4.76-14.87,13.44-14.87,23.37v37.88h61.07V131.54c0-9.93-6-18.61-14.87-23.37A9.53,9.53,0,0,1,616,99.89Z"/><path class="cls-7" d="M639.7,172.9H571.65V131.54c0-10.8,6.41-20.94,16.72-26.44a6.08,6.08,0,0,0,3.52-5.21V76.43h27.57V99.89A6.08,6.08,0,0,0,623,105.1c10.31,5.5,16.72,15.64,16.72,26.44Zm-61.07-7h54.09V131.54c0-8.35-4.86-15.94-13-20.29a13.08,13.08,0,0,1-7.21-11.36V83.4H598.87V99.89a13.09,13.09,0,0,1-7.22,11.36c-8.15,4.35-13,11.94-13,20.29Z"/><path class="cls-7" d="M625.27,111.9a11.63,11.63,0,1,1,11.63-11.62A11.64,11.64,0,0,1,625.27,111.9Zm0-16.28a4.66,4.66,0,1,0,4.66,4.66A4.66,4.66,0,0,0,625.27,95.62Z"/><rect class="cls-6" x="588.4" y="70.89" width="34.55" height="9.02" rx="2.97"/><path class="cls-7" d="M618.44,83.4H592.91a8,8,0,0,1,0-16h25.53a8,8,0,0,1,0,16Zm-25.53-9a1,1,0,0,0,0,2.05h25.53a1,1,0,0,0,0-2.05Z"/><path class="cls-18" d="M636.21,155.1H575.14V136.17a5.34,5.34,0,0,1,4.11-5.2,115.2,115.2,0,0,1,52.85,0,5.34,5.34,0,0,1,4.11,5.2Z"/><path class="cls-7" d="M639.7,158.58H571.65V136.17a8.79,8.79,0,0,1,6.8-8.59,118.43,118.43,0,0,1,54.45,0,8.8,8.8,0,0,1,6.8,8.59Zm-61.07-7h54.09V136.17a1.83,1.83,0,0,0-1.42-1.8,111.61,111.61,0,0,0-51.25,0,1.84,1.84,0,0,0-1.42,1.8Z"/><circle class="cls-6" cx="376.97" cy="850.31" r="36.48"/><path class="cls-7" d="M377,889.92a39.61,39.61,0,1,1,39.61-39.61A39.66,39.66,0,0,1,377,889.92ZM377,817a33.34,33.34,0,1,0,33.34,33.34A33.38,33.38,0,0,0,377,817Z"/><path class="cls-6" d="M402,853c18.45,10,34.41,16.21,35.66,13.91a38,38,0,0,1-51.48,15.31h0a38,38,0,0,1-15.31-51.47C369.65,833,383.59,843,402,853Z"/><path class="cls-7" d="M404.23,889.91a41.11,41.11,0,0,1-36.09-60.68l5.52,3a2.27,2.27,0,0,0,.17-1.88c.94,1.84,10.63,9.56,29.7,19.88h0c19.07,10.33,30.85,14.21,32.88,14a2.24,2.24,0,0,0-1.48,1.16l5.52,3h0A41.14,41.14,0,0,1,404.23,889.91ZM371.51,837a34.84,34.84,0,0,0,60.57,32.8,66.92,66.92,0,0,1-6.91-2.35,233.18,233.18,0,0,1-24.63-11.73h0a232.64,232.64,0,0,1-23.28-14.21A68,68,0,0,1,371.51,837Z"/><ellipse class="cls-19" cx="404.29" cy="848.81" rx="4.75" ry="37.97" transform="translate(-534.62 800.17) rotate(-61.57)"/><path class="cls-7" d="M436.38,870.5c-2.44,0-6-1-11.21-3a263.51,263.51,0,0,1-47.91-25.94c-8.4-6-10.78-9.22-9.12-12.3s5.66-2.83,15.28.92a230.93,230.93,0,0,1,24.63,11.72h0a230.68,230.68,0,0,1,23.28,14.22c8.39,6,10.78,9.22,9.12,12.29C439.68,869.79,438.43,870.5,436.38,870.5Zm-56.89-35.12a248.8,248.8,0,0,0,49.61,26.86,207.39,207.39,0,0,0-24-14.85h0A206.78,206.78,0,0,0,379.49,835.38Z"/><polygon class="cls-7" points="605.67 813.96 602.54 798.54 608.81 798.54 605.67 813.96"/><path class="cls-1" d="M622,829.28v-.76c0-8.81-6.77-16.39-15.56-16.8a16.36,16.36,0,0,0-17.15,16.34v.38a37.78,37.78,0,0,1-7.78,22.5,30.08,30.08,0,1,0,48-.33A35.16,35.16,0,0,1,622,829.28Z"/><path class="cls-2" d="M605.7,902.09c-.71,0-1.43,0-2.15-.07A33.21,33.21,0,0,1,579,849.07a34.52,34.52,0,0,0,7.16-20.63v-.38a19.49,19.49,0,0,1,20.43-19.47,19.7,19.7,0,0,1,18.56,19.93v.76a31.83,31.83,0,0,0,6.88,19.42,32.89,32.89,0,0,1,6.84,20.17,33.33,33.33,0,0,1-10.48,24.21A32.9,32.9,0,0,1,605.7,902.09Zm0-87.25a13.22,13.22,0,0,0-13.22,13.22v.38a40.75,40.75,0,0,1-8.39,24.38,26.92,26.92,0,0,0,19.88,42.93,26.93,26.93,0,0,0,23.13-43.23,38,38,0,0,1-8.17-23.24v-.76c0-7.21-5.65-13.34-12.58-13.67Z"/><polygon class="cls-20" points="822.2 632.35 822.2 606 799.38 592.82 776.56 606 776.56 632.35 799.38 645.52 822.2 632.35"/><path class="cls-21" d="M799.38,649.14l-26-15v-30l26-15,26,15v30ZM779.7,630.53l19.68,11.37,19.68-11.37V607.81l-19.68-11.37L779.7,607.81Z"/><polygon class="cls-20" points="867.84 632.35 867.84 606 845.02 592.82 822.2 606 822.2 632.35 845.02 645.52 867.84 632.35"/><path class="cls-21" d="M845,649.14l-26-15v-30l26-15,26,15v30Zm-19.68-18.61L845,641.9l19.68-11.37V607.81L845,596.44l-19.68,11.37Z"/><polygon class="cls-20" points="845.02 592.89 845.02 566.54 822.2 553.37 799.38 566.54 799.38 592.89 822.2 606.07 845.02 592.89"/><path class="cls-21" d="M822.2,609.69l-26-15v-30l26-15,26,15v30Zm-19.68-18.61,19.68,11.36,19.68-11.36V568.35L822.2,557l-19.68,11.36Z"/><circle class="cls-22" cx="389.15" cy="371.02" r="37.65"/><path class="cls-21" d="M389.15,411.81A40.79,40.79,0,1,1,429.94,371,40.84,40.84,0,0,1,389.15,411.81Zm0-75.3A34.52,34.52,0,1,0,423.67,371,34.55,34.55,0,0,0,389.15,336.51Z"/><rect class="cls-21" x="387.96" y="332.98" width="2.39" height="76.07" transform="translate(-148.37 383.84) rotate(-45)"/><rect class="cls-21" x="351.11" y="369.82" width="76.07" height="2.39" transform="translate(-148.37 384.06) rotate(-45.02)"/><rect class="cls-21" x="387.96" y="333.37" width="2.39" height="75.31"/><rect class="cls-21" x="351.5" y="369.83" width="75.31" height="2.39"/><path class="cls-5" d="M166.74,378.21a36.5,36.5,0,0,1,10.84-32.51l4.33,4.54a30.28,30.28,0,0,0-9,26.94Z"/><path class="cls-17" d="M169.83,378.69h0a32.05,32.05,0,0,0-28.68,17.73L133.32,410a4.34,4.34,0,0,0,3.88,6.27h65.27a4.33,4.33,0,0,0,3.87-6.27l-7.82-13.55A32.07,32.07,0,0,0,169.83,378.69Z"/><path class="cls-7" d="M202.47,419.38H137.2a7.46,7.46,0,0,1-6.68-10.81l.09-.17,7.77-13.47a35.21,35.21,0,0,1,62.9,0l7.87,13.64a7.47,7.47,0,0,1-6.68,10.81Zm-66.37-7.94a1.19,1.19,0,0,0,1.1,1.66h65.27a1.19,1.19,0,0,0,1.09-1.66l-7.85-13.62a28.94,28.94,0,0,0-51.76,0l-.09.17Z"/><path class="cls-5" d="M182,348a24.5,24.5,0,0,1-9.8-2.85,29.78,29.78,0,0,1-7.29-5.37,29.27,29.27,0,0,1-5.38-7.27,24.18,24.18,0,0,1-2.83-9.82,24.18,24.18,0,0,1,9.81,2.84,29.08,29.08,0,0,1,7.27,5.38,29.73,29.73,0,0,1,5.37,7.28A24.39,24.39,0,0,1,182,348Z"/><path class="cls-5" d="M215.53,348a26.29,26.29,0,0,1-9.5,4.91,33.1,33.1,0,0,1-9.49,1.36,32.74,32.74,0,0,1-9.5-1.34,26.28,26.28,0,0,1-9.5-4.93A26.15,26.15,0,0,1,187,343a33.09,33.09,0,0,1,9.5-1.34,33.45,33.45,0,0,1,9.49,1.36A26.32,26.32,0,0,1,215.53,348Z"/><path class="cls-17" d="M876.1,1123.06l-12.75-31.86a1.36,1.36,0,0,0-2.22-.45l-3.84,3.83a1.37,1.37,0,0,1-2.23-.45l-11.61-29.05a1.36,1.36,0,0,0-2.48-.1l-3.93,7.86a1.36,1.36,0,0,1-2.51-.18l-11.3-33.89a1.36,1.36,0,0,0-2.56-.07l-11.36,28.4a1.36,1.36,0,0,1-2.23.46l-3.49-3.49a1.36,1.36,0,0,0-2.3.69l-5.76,28.79a1.36,1.36,0,0,1-2.3.69l-10.15-10.15a1.36,1.36,0,0,0-2.25.53L768,1123.06Z"/><path class="cls-7" d="M880.9,1126.31H763.5l14.24-42.72a4.61,4.61,0,0,1,7.64-1.8l7.66,7.66,5.06-25.33a4.61,4.61,0,0,1,7.79-2.35l1.47,1.47,10.3-25.75a4.61,4.61,0,0,1,8.66.26l9.85,29.55,1.89-3.77a4.61,4.61,0,0,1,8.4.34L857,1090.26l1.81-1.81a4.6,4.6,0,0,1,7.54,1.55Zm-108.38-6.5H871.3l-9.9-24.74-1.81,1.81a4.6,4.6,0,0,1-7.54-1.55L842,1070.2l-2,4.09a4.61,4.61,0,0,1-8.5-.6l-9.66-29-9.45,23.62a4.63,4.63,0,0,1-3.36,2.81,4.58,4.58,0,0,1-4.18-1.26l-1-1-5.07,25.33a4.61,4.61,0,0,1-7.78,2.35l-8-8Z"/><path class="cls-23" d="M360,1109c-4.58-13.6,1.76-25.71,3-28,5.26-10,11.28-10.23,15.84-19.45,4.33-8.78,3.52-18,2.28-24.19A106.25,106.25,0,0,1,406,1084.8q4.59-6.19,9.17-12.4a42.24,42.24,0,0,1,4.18,27c-.39,2-4.59,22.56-22.09,28.73a29,29,0,0,1-19.64,0C365.52,1123.69,361.05,1112.23,360,1109Z"/><path class="cls-12" d="M387.13,1132.6a29.74,29.74,0,0,1-10.5-1.89C364,1126,359,1114.52,357.4,1109.81h0c-4.3-12.78.12-24.35,3.13-30.11a35.79,35.79,0,0,1,8.84-10.85c2.65-2.38,4.94-4.44,7-8.55,3.11-6.29,3.8-13.85,2.06-22.46l-1.93-9.53,6.54,7.19a108.72,108.72,0,0,1,24.13,43.19l8.4-11.35,2,3.83A45.13,45.13,0,0,1,422,1100a51,51,0,0,1-4.9,13.57c-4.52,8.47-11.07,14.41-18.94,17.18A33.47,33.47,0,0,1,387.13,1132.6Zm-24.64-24.5c1.34,4,5.59,13.68,16,17.59a26.35,26.35,0,0,0,17.81,0c15.88-5.6,19.94-24.56,20.35-26.7a38.79,38.79,0,0,0-2.11-21.26l-9.9,13.39-1.32-5.66a103.37,103.37,0,0,0-18.66-39.53,35.76,35.76,0,0,1-3.54,16.79,31.22,31.22,0,0,1-8.19,10.17,30.2,30.2,0,0,0-7.68,9.35c-2.61,5-6.46,15-2.79,25.91Z"/><path class="cls-24" d="M375.45,1114.68c-2.26-6.73.87-12.72,1.47-13.85,2.6-5,5.57-5.06,7.83-9.63a18.61,18.61,0,0,0,1.12-12,52.42,52.42,0,0,1,8.36,12.29,53.22,53.22,0,0,1,4,11.19l4.53-6.13a20.89,20.89,0,0,1,2.07,13.37c-.2,1-2.28,11.16-10.93,14.21a14.37,14.37,0,0,1-9.71,0C378.21,1122,376,1116.3,375.45,1114.68Z"/><rect class="cls-6" x="148.27" y="1034.94" width="48.72" height="9.71"/><path class="cls-7" d="M200.23,1047.9H145v-16.21h55.21Zm-48.71-6.5h42.21v-3.21H151.52Z"/><polygon class="cls-6" points="195.21 1044.65 150.04 1044.65 143.59 1079.5 143.59 1125.96 201.67 1125.96 201.67 1079.5 195.21 1044.65"/><path class="cls-7" d="M204.92,1129.21H140.34l0-50.3,7-37.51h50.58l7,38.1Zm-58.08-6.5h51.57V1079.8l-5.9-31.9H152.74l-5.9,31.9Z"/><rect class="cls-19" x="155.29" y="1094.08" width="35.53" height="21.82"/><path class="cls-7" d="M194.06,1119.15H152v-28.32h42Zm-35.52-6.5h29v-15.32h-29Z"/><path class="cls-6" d="M620.38,1076.47H574.76l-7.11,28.89c-1.12,5,2.27,9.83,6.88,9.83h46c5.4-.09,8.39-3.64,6.88-9.83Z"/><path class="cls-7" d="M616,1082.1l6,24.6a4,4,0,0,1,.09,2.51,2.67,2.67,0,0,1-1.55.34H574.53a1.22,1.22,0,0,1-.89-.53,2.88,2.88,0,0,1-.5-2.38l6-24.54H616m4.43-5.63H574.76l-7.11,28.89c-1.12,5,2.27,9.83,6.88,9.83h46c5.4-.09,8.39-3.64,6.89-9.83l-7-28.89Z"/><path class="cls-25" d="M622.54,1119.61H572.7a10.49,10.49,0,0,1-8.23-4,11.77,11.77,0,0,1-2.22-10l10.07-43.44a10.86,10.86,0,0,1,10.45-8.66h29.71a10.85,10.85,0,0,1,10.44,8.66L633,1105.52a11.75,11.75,0,0,1-2.22,10A10.49,10.49,0,0,1,622.54,1119.61Zm-39.77-60.46a5.18,5.18,0,0,0-4.87,4.23l-10.07,43.43A6.17,6.17,0,0,0,569,1112a4.75,4.75,0,0,0,3.75,1.89h49.84a4.75,4.75,0,0,0,3.75-1.89,6.17,6.17,0,0,0,1.12-5.18l-10.07-43.43a5.18,5.18,0,0,0-4.86-4.23Z"/><path class="cls-26" d="M618.47,1056.28H575.42a3.84,3.84,0,0,1-2.71-1.12l-7.26-7.26a2.19,2.19,0,0,1,1.55-3.74h51.47a3.84,3.84,0,0,1,3.84,3.84v4.44A3.84,3.84,0,0,1,618.47,1056.28Z"/><path class="cls-27" d="M618.47,1059.15H575.42a6.66,6.66,0,0,1-4.74-2l-7.26-7.26a5.05,5.05,0,0,1,3.58-8.62h51.47a6.71,6.71,0,0,1,6.71,6.7v4.44A6.72,6.72,0,0,1,618.47,1059.15ZM568.63,1047l6.1,6.1a1,1,0,0,0,.69.29h43.05a1,1,0,0,0,1-1V1048a1,1,0,0,0-1-1Z"/><path class="cls-27" d="M644.33,1084.19l-4.65-3.35a21.17,21.17,0,0,0,4-12.44c0-10-3.11-21.37-27.37-21.37v-5.73c22,0,33.1,9.12,33.1,27.1A26.84,26.84,0,0,1,644.33,1084.19Z"/></svg>