<svg id="Layer_1" data-name="Layer 1" xmlns="http://www.w3.org/2000/svg" viewBox="0 0 1200 1200"><defs><style>.cls-1,.cls-8{fill:#f2f2f2;}.cls-2{font-size:55.24px;}.cls-2,.cls-3,.cls-5,.cls-6,.cls-7{fill:#29783b;}.cls-2,.cls-3{font-family:GillSans-Bold, Gill Sans;font-weight:700;}.cls-3{font-size:57.64px;}.cls-4{fill:none;}.cls-6{stroke:#55a3a5;}.cls-6,.cls-7{stroke-miterlimit:10;stroke-width:2.4px;}.cls-7{stroke:#29783b;}.cls-8{font-size:43.23px;font-family:GillSans-SemiBold, Gill Sans;font-weight:600;}</style></defs><title>mon-river-1</title><rect class="cls-1" x="-0.8" y="-0.5" width="1200" height="1200"/><text class="cls-2" transform="translate(366.86 853.06) rotate(-133.37)">D</text><text class="cls-2" transform="translate(329.81 812.28) rotate(-124.97)">E</text><text class="cls-2" transform="translate(304.11 774.67) rotate(-116.94)">C</text><text class="cls-2" transform="matrix(-0.31, -0.95, 0.95, -0.31, 281.67, 729.16)">K</text><text class="cls-2" transform="translate(265.8 677.59) rotate(-99.82)">E</text><text class="cls-2" transform="translate(258.52 632.66) rotate(-91.66)">R</text><text class="cls-2" transform="matrix(0.11, -0.99, 0.99, 0.11, 257.99, 581.56)">S</text><text class="cls-2" transform="translate(263.65 538.02) rotate(-77.08)"> </text><text class="cls-2" transform="matrix(0.32, -0.95, 0.95, 0.32, 269.2, 512.12)">C</text><text class="cls-2" transform="translate(286.03 464.24) rotate(-62.87)">R</text><text class="cls-2" transform="matrix(0.58, -0.82, 0.82, 0.58, 310.12, 419.2)">E</text><text class="cls-2" transform="translate(337 382.37) rotate(-47.04)">E</text><text class="cls-2" transform="matrix(0.78, -0.63, 0.63, 0.78, 368.3, 349.34)">K</text><text class="cls-2" transform="translate(411.43 316.55) rotate(-32.01)"> </text><text class="cls-2" transform="translate(433.75 302.4) rotate(-25.43)">T</text><text class="cls-2" transform="translate(481.18 280.7) rotate(-16.79)">R</text><text class="cls-2" transform="translate(530.15 266.52) rotate(-7.81)">A</text><text class="cls-2" transform="translate(585.67 260.35) rotate(-0.5)">I</text><text class="cls-2" transform="matrix(0.99, 0.1, -0.1, 0.99, 616.51, 260.25)">L</text><text class="cls-3" transform="matrix(1, 0.09, -0.09, 1, 539.06, 974.53)">H</text><text class="cls-3" transform="translate(599.49 979.4) rotate(-3.58)">A</text><text class="cls-3" transform="translate(656.42 974.82) rotate(-11.39)">L</text><text class="cls-3" transform="translate(700.55 965.38) rotate(-18.13)">F</text><text class="cls-3" transform="translate(741.92 951.02) rotate(-23.26)"> </text><text class="cls-3" transform="matrix(0.87, -0.5, 0.5, 0.87, 765.88, 941.4)">M</text><text class="cls-3" transform="matrix(0.77, -0.63, 0.63, 0.77, 821.61, 907.94)">A</text><text class="cls-3" transform="matrix(0.67, -0.74, 0.74, 0.67, 865.41, 870.88)">R</text><text class="cls-3" transform="matrix(0.56, -0.83, 0.83, 0.56, 900.33, 831.73)">A</text><text class="cls-3" transform="matrix(0.45, -0.89, 0.89, 0.45, 928.67, 789.08)">T</text><text class="cls-3" transform="matrix(0.31, -0.95, 0.95, 0.31, 952.29, 740.8)">H</text><text class="cls-3" transform="translate(970.2 682.88) rotate(-81.04)">O</text><text class="cls-3" transform="translate(978.66 625.59) rotate(-90.07)">N</text><circle class="cls-4" cx="600" cy="600" r="389.06"/><path class="cls-5" d="M920,503.54A334.26,334.26,0,0,1,934.16,600c0,2,0,4-.08,6"/><path class="cls-5" d="M752.55,302.62A332.68,332.68,0,0,0,600,265.84c-175.94,0-320.11,136-333.19,308.56l23.74-96.12a47.57,47.57,0,0,0,9.1-3.87C348.8,357,464.76,274.52,600,274.52a324.13,324.13,0,0,1,143.41,33.22"/><path class="cls-5" d="M934.08,606,916.2,708.32A333.54,333.54,0,0,0,934.08,606Z"/><path class="cls-5" d="M273.09,669.44,266,609.2A334.57,334.57,0,0,0,273.09,669.44Z"/><path class="cls-5" d="M320.13,782.6q1.81,2.77,3.67,5.51l2.92-7.44Z"/><path class="cls-5" d="M321.64,768.77q-6.11-10.07-11.51-20.6Q315.52,758.7,321.64,768.77Z"/><path class="cls-5" d="M306.62,741.11q-3.44-7.12-6.52-14.42Q303.19,734,306.62,741.11Z"/><path class="cls-5" d="M353.89,813q-7.67-8.85-14.71-18.26Q346.22,804.13,353.89,813Z"/><path class="cls-5" d="M526.5,917.14q-7.87-1.82-15.6-4Q518.63,915.32,526.5,917.14Z"/><path class="cls-5" d="M353.89,813A327.5,327.5,0,0,0,387,846.11,327.5,327.5,0,0,1,353.89,813Z"/><path class="cls-5" d="M451.83,889.87a324.84,324.84,0,0,1-33.81-20A324.84,324.84,0,0,0,451.83,889.87Z"/><path class="cls-5" d="M510.9,913.13q-7.72-2.19-15.29-4.75Q503.17,910.93,510.9,913.13Z"/><path class="cls-5" d="M418,869.89q-9.74-6.58-19-13.83Q408.28,863.31,418,869.89Z"/><path class="cls-5" d="M466.05,896.73q-7.2-3.27-14.22-6.86Q458.84,893.47,466.05,896.73Z"/><path class="cls-5" d="M488.09,905.73q-7.48-2.75-14.78-5.83Q480.62,903,488.09,905.73Z"/><path class="cls-4" d="M947,601.2C947,792.2,792.2,947,601.2,947S255.37,792.2,255.37,601.2,410.2,255.37,601.2,255.37"/><path class="cls-5" d="M548.4,929.88a352.38,352.38,0,0,1-76.9-28.48s-.95-1.19-2.6-3.43l-2.85-1.24q-7.2-3.27-14.22-6.86a324.84,324.84,0,0,1-33.81-20q-9.74-6.58-19-13.83-6.14-4.83-12.05-9.95A327.5,327.5,0,0,1,353.89,813q-7.67-8.85-14.71-18.26-9.36-12.54-17.54-26-6.11-10.07-11.51-20.6-1.8-3.51-3.51-7.06-3.44-7.12-6.52-14.42a326.45,326.45,0,0,1-.45-252.28,47.57,47.57,0,0,1-9.1,3.87L266.81,574.4q-1,12.68-1,25.6c0,3.08.05,6.14.13,9.2l7.12,60.24a332.09,332.09,0,0,0,47,113.16l6.59-1.93-2.92,7.44c60.16,88.16,161.42,146,276.2,146,10.08,0,20.06-.47,29.91-1.34-9.46.81-19,1.24-28.71,1.24A335.4,335.4,0,0,1,548.4,929.88Z"/><path class="cls-5" d="M636,932.23c-.94.1-1.88.21-2.82.3C634.07,932.44,635,932.33,636,932.23Z"/><path class="cls-5" d="M920,503.54l-17.5-23.86a324.55,324.55,0,0,1,23,120.32c0,102.93-47.79,194.68-122.38,254.33l2.24.6s-17.49,20.35-49.79,40.87A335.24,335.24,0,0,0,916.2,708.32L934.08,606c0-2,.08-4,.08-6A334.26,334.26,0,0,0,920,503.54Z"/><path class="cls-5" d="M752.29,897.87c1.12-.69,2.18-1.38,3.26-2.07A331.91,331.91,0,0,1,636,932.23,330.83,330.83,0,0,0,752.29,897.87Z"/><path class="cls-5" d="M707.67,907.22c-1.45.51-2.9,1-4.36,1.51C704.77,908.24,706.22,907.73,707.67,907.22Z"/><path class="cls-5" d="M700.92,909.5c-2.84.93-5.69,1.81-8.56,2.66C695.23,911.31,698.08,910.43,700.92,909.5Z"/><path class="cls-5" d="M721.41,902.06c-1.48.59-3,1.18-4.46,1.75C718.44,903.24,719.93,902.65,721.41,902.06Z"/><path class="cls-5" d="M689.83,912.91c-1.27.37-2.56.71-3.84,1.06C687.27,913.62,688.56,913.28,689.83,912.91Z"/><path class="cls-5" d="M667.77,918.39l-3.48.73Z"/><path class="cls-5" d="M675.24,916.72c-1.21.29-2.41.56-3.62.83C672.83,917.28,674,917,675.24,916.72Z"/><path class="cls-5" d="M682.58,914.9c-1.23.32-2.47.62-3.71.93C680.11,915.52,681.35,915.22,682.58,914.9Z"/><path class="cls-5" d="M764.27,881q-2.53,1.49-5.1,2.92Q761.74,882.5,764.27,881Z"/><path class="cls-5" d="M797.66,858.57q-2.55,2-5.14,3.87Q795.12,860.53,797.66,858.57Z"/><path class="cls-5" d="M792.42,862.51a325.71,325.71,0,0,1-27.48,18.11A325.71,325.71,0,0,0,792.42,862.51Z"/><path class="cls-5" d="M728.18,899.25q-2.34,1-4.7,2Q725.83,900.25,728.18,899.25Z"/><path class="cls-5" d="M803.09,854.33q-2.52,2-5.09,4Q800.57,856.34,803.09,854.33Z"/><path class="cls-5" d="M752.12,887.79Q741,893.67,729.44,898.7,741,893.68,752.12,887.79Z"/><path class="cls-5" d="M758.13,884.52q-2.52,1.41-5.07,2.77Q755.61,885.93,758.13,884.52Z"/><path class="cls-5" d="M660.07,919.92l-3.19.6Z"/><path class="cls-5" d="M714.56,904.72l-4.36,1.61Z"/><path class="cls-5" d="M579.3,589.19l61.83-12c-12.56-11.43-19.88-16.24-36.66-28.37a12.62,12.62,0,0,1,8.56-5c-1.09-1.28.55-3.15,2.15-3.66s3.61-.8,4.24-2.36a4.29,4.29,0,0,0,.18-1.82l-.35-9.33,3.42-.24q-.57-7.3-1.16-14.6a5.45,5.45,0,0,1,.42-3.28c.58-.95,2.1-1.39,2.83-.54a95,95,0,0,1,3.66-23.15,122.25,122.25,0,0,1-19.56,18.55,7.92,7.92,0,0,0-2.63,2.74,2.61,2.61,0,0,0,.85,3.37c-2.28,4.47-9.1,5.31-10.9,10-.34.88-.46,1.83-.85,2.68-1.43,3.11-5.52,3.69-8.93,3.85l6.78,9.27a11,11,0,0,1,2.18,4.09,4.32,4.32,0,0,1-.43,2.93,280.36,280.36,0,0,0-38.06-20.66c.67-1.81,1.33-3.63,2-5.44a15.23,15.23,0,0,0,7.13-1,10.8,10.8,0,0,1-.4-5.62c.53-1.82,2.47-3.39,4.28-2.81,1.14.37,2.1,1.5,3.28,1.29,1.5-.28,1.73-2.31,1.6-3.83q-1-11.22-2-22.46a2.6,2.6,0,0,0,3.09,0,112.91,112.91,0,0,0-.61-26.81c-.67,2.46-2.59,4.34-4.39,6.15a161.24,161.24,0,0,0-13.45,15.39,4.1,4.1,0,0,0-1,1.82c-.21,1.47,1.19,2.81,1,4.29a4,4,0,0,1-1.41,2.27,58.13,58.13,0,0,1-7.87,6.56,5.37,5.37,0,0,0-2.43,2.65,9.76,9.76,0,0,0,0,2.59c0,4.29-4.89,6.63-9,8a23.07,23.07,0,0,0,12.48,6,15.38,15.38,0,0,0-2.37,6.65c-8.63-3.59-18.06-7.16-28.47-10.69l-.28-3.75c2.84-.25,5.68-.5,8.52-.73-2.95-8.2-3.34-17.13-2.52-25.81a97.31,97.31,0,0,1,5.06-23.17c-2.42,6.8-13,10-11.9,17.15a15.33,15.33,0,0,0-9.46,8.12l-4.9-11.8c1.32.38,2.57-1.08,2.58-2.45a7.85,7.85,0,0,0-1.48-3.79,32.47,32.47,0,0,1-4-20.71,26.28,26.28,0,0,1-13.75,16.73c-2.37,1.15-5,2-6.84,3.88s-2.48,5.32-.47,7a16.15,16.15,0,0,0-10.84,15.3,21.32,21.32,0,0,1-15.22-20.41L438.58,477.3l-6.92-12.24c-.87-1.53-.8-4.44.9-4-.15-2.66-2.73-4.39-4.47-6.41s-2.21-6,.36-6.68a19.12,19.12,0,0,1-5.83-15q-5.06,6.15-10.1,12.32c-1,1.18-2,2.5-2,4s1.07,2.84,1,4.32c-.22,4.57-9.75,5.39-8.18,9.69.7,1.91,3.45,2.49,4.07,4.43l-15.09,7.06c-4.38,2.05-9.6,5.9-8,10.46a124.9,124.9,0,0,1-13.08-19.08l-7.05.68a19.23,19.23,0,0,1-6.55-9.73,23.3,23.3,0,0,1-.84-6c-.1-6.12,1.41-13.12-2.65-17.69a46.75,46.75,0,0,1-11.11,16.07c-1.9,1.78-4,3.48-5.09,5.85s-.7,5.67,1.58,6.91c-2.78,1.86-5.67,3.83-7.24,6.79s-1.29,7.18,1.52,9a77.48,77.48,0,0,0-9.26,13.12c3.16,1.21,4,5.57,2.68,8.66s-4.24,5.2-7,7.15l-5.48-8.17c-1.19-1.79-1.51-5.26.63-5.08-5-.78-5.86-7.51-5.49-12.53q.6-8.15,1.19-16.29c-1-1.13-2.76.28-3.57,1.57a20.17,20.17,0,0,1-7.9,8,326.45,326.45,0,0,0,.45,252.28q3.09,7.3,6.52,14.42,1.71,3.55,3.51,7.06,5.39,10.53,11.51,20.6,8.16,13.43,17.54,26,7,9.39,14.71,18.26A327.5,327.5,0,0,0,387,846.11q5.91,5.11,12.05,9.95,9.22,7.25,19,13.83a324.84,324.84,0,0,0,33.81,20q7,3.6,14.22,6.86,3.61,1.62,7.26,3.17c-1.48-.63-2.94-1.28-4.41-1.93C446.75,868,296.86,642.83,579.3,589.19Z"/><path class="cls-5" d="M610.42,925.29l-2.58.09Z"/><path class="cls-5" d="M642,922.78l-2.73.33Z"/><path class="cls-5" d="M626.58,924.39l-3.11.24Z"/><path class="cls-5" d="M634.34,923.68l-3.05.29Z"/><path class="cls-5" d="M651.25,921.45c-.72.11-1.44.24-2.16.34C649.81,921.69,650.53,921.56,651.25,921.45Z"/><path class="cls-5" d="M618.67,924.93l-3,.17Z"/><path class="cls-5" d="M647.47,583.42C578.51,605.53,290,716.89,803.1,854.33,877.69,794.68,925.48,702.93,925.48,600a324.55,324.55,0,0,0-23-120.32l-9.51-13-69.64,60-168,54.76"/><path class="cls-5" d="M615.66,925.1c-1.74.08-3.49.14-5.24.19C612.17,925.24,613.92,925.18,615.66,925.1Z"/><path class="cls-5" d="M753.06,887.29l-.94.5Z"/><path class="cls-5" d="M729.44,898.7l-1.26.55Z"/><path class="cls-5" d="M607.84,925.38c-2.61.06-5.22.1-7.84.1C602.62,925.48,605.23,925.44,607.84,925.38Z"/><path class="cls-5" d="M798,858.32l-.34.25Z"/><polygon class="cls-5" points="803.1 854.33 803.1 854.33 803.1 854.33 803.1 854.33"/><path class="cls-5" d="M792.52,862.44l-.1.07Z"/><path class="cls-5" d="M764.94,880.62l-.67.4Z"/><path class="cls-5" d="M759.17,883.94c-.34.2-.69.39-1,.58C758.48,884.33,758.83,884.14,759.17,883.94Z"/><path class="cls-5" d="M631.29,924l-4.71.42Z"/><path class="cls-5" d="M678.87,915.83l-3.63.89Z"/><path class="cls-5" d="M723.48,901.21l-2.07.85Z"/><path class="cls-5" d="M671.62,917.55c-1.28.29-2.56.57-3.85.84C669.06,918.12,670.34,917.84,671.62,917.55Z"/><path class="cls-5" d="M664.29,919.12c-1.41.28-2.81.54-4.22.8C661.48,919.66,662.88,919.4,664.29,919.12Z"/><path class="cls-5" d="M686,914c-1.14.31-2.27.63-3.41.93C683.72,914.6,684.85,914.28,686,914Z"/><path class="cls-5" d="M649.09,921.79q-3.52.54-7.08,1Q645.57,922.33,649.09,921.79Z"/><path class="cls-5" d="M639.28,923.11c-1.64.2-3.29.39-4.94.57C636,923.5,637.64,923.31,639.28,923.11Z"/><path class="cls-5" d="M692.36,912.16c-.84.25-1.68.51-2.53.75C690.68,912.67,691.52,912.41,692.36,912.16Z"/><path class="cls-5" d="M717,903.81l-2.39.91Z"/><path class="cls-5" d="M710.2,906.33l-2.53.89Z"/><path class="cls-5" d="M623.47,924.63q-2.4.17-4.8.3Q621.07,924.8,623.47,924.63Z"/><path class="cls-5" d="M703.31,908.73l-2.39.77Z"/><path class="cls-5" d="M656.88,920.52c-1.87.33-3.75.63-5.63.93C653.13,921.15,655,920.85,656.88,920.52Z"/><path class="cls-5" d="M633.13,932.53l-3.22.29Z"/><path class="cls-5" d="M805.34,854.93l-2.24-.6a326.09,326.09,0,0,1-276.6,62.81q-7.87-1.82-15.6-4t-15.29-4.75q-3.78-1.29-7.52-2.65-7.48-2.75-14.78-5.83c-1.48-.63-2.94-1.28-4.41-1.93,1.65,2.24,2.6,3.43,2.6,3.43a352.38,352.38,0,0,0,76.9,28.48,335.4,335.4,0,0,0,52.8,4.18c9.68,0,19.25-.43,28.71-1.24l3.22-.29c.94-.09,1.88-.2,2.82-.3a331.91,331.91,0,0,0,119.6-36.43C787.85,875.28,805.34,854.93,805.34,854.93Z"/><path class="cls-4" d="M277,600c0,179.06,145.15,324.21,324.21,324.21S925.42,779.06,925.42,600a322.8,322.8,0,0,0-38.68-153.7L759.07,316.75a322.74,322.74,0,0,0-157.87-41C422.14,275.79,277,420.94,277,600Z"/><path class="cls-5" d="M944.06,400.39A399.83,399.83,0,0,0,830.57,275.92m0,0A395.86,395.86,0,0,0,600,202.3c-219.65,0-397.7,178.05-397.7,397.7S380.35,997.7,600,997.7,997.7,819.65,997.7,600a395.88,395.88,0,0,0-53.64-199.61M826.65,285.82C924,356.18,987.37,470.69,987.37,600c0,213.94-173.43,387.37-387.37,387.37S212.63,813.94,212.63,600,386.06,212.63,600,212.63a385.65,385.65,0,0,1,226.65,73.19"/><path class="cls-6" d="M832.9,346.56l-.18,1.14c0-.07,0-.16.09-.24Z"/><path class="cls-7" d="M902.92,457.48c1.85-3.53,10.84-16.92,12.34-20.65.31-.79.58-1.6.88-2.4a17.88,17.88,0,0,1,4.75,3.79,105.73,105.73,0,0,0,9.57,8.63c2.81,2.23,5.9,4.4,9.46,4.81,4.38.52,8.55-1.67,12.69-3.17,9.21-3.34,7.4-.9,16.61,2.44-1.84-5.69-11.4-14.33-16.6-17.31-6.22-3.56-1.88-3.52-9-4.6-5.91-.89-3.83-1.82-9.59-3.42a47.63,47.63,0,0,0-14.7-1.23,94.34,94.34,0,0,0,2.37-12,87.31,87.31,0,0,0,.68-12.88c-.06-1.09,0-2.17-.16-3.28l-.26-3.09-.48-5.55-.55-5.87-.2-2,3.32,6.28c5.24-.91,10.51,1,15.57,2.67,7.78,2.56,15.82,4.6,24,4.93-3.13-5.67-9.06-9.1-14.62-12.41-6.46-3.86-12.86-8-18.14-13.33a47.65,47.65,0,0,0-5.16-5,20.08,20.08,0,0,0-8.85-3.57c-.22-.73-.45-1.45-.67-2.18-.65-2-1.11-4-2-5.95l-2.39-5.8-1.21-2.89-1.45-2.77c-.28-.55-.59-1.08-.88-1.62,13.64-1.93,27.36-3.26,41.12-3.89,4-.19,8.52-.11,11.26,2.8-3.53-7-7.41-14.36-14.19-18.26a29.15,29.15,0,0,0-9-3.11,22.78,22.78,0,0,0-9.79-.15,40,40,0,0,0-6.5,2.63,53.85,53.85,0,0,1-22.63,4.6A113.4,113.4,0,0,0,884.24,307a92.75,92.75,0,0,0,17.41-7.7q16.83-9.08,32.75-19.7c-7.16-2.8-15.14-5.26-22.4-2.71-4.69,1.65-8.48,5.24-13.07,7.17-6.41,2.7-13.73,1.94-20.49,3.6a29.29,29.29,0,0,0-12,6.2q-4.77-2.83-9.79-5.21c2.63-3.31,4.85-6.94,5-11.09.1-2.59-.61-5.24,0-7.75.56-2.14,2.06-3.89,3.43-5.63A70.08,70.08,0,0,0,878.31,237c-5,5.77-10.35,11.81-17.65,14-2.87.86-6.06,1.13-8.4,3-3,2.39-3.76,6.72-6.56,9.33-2.2,2.05-5.29,2.74-8.18,3.56a2.92,2.92,0,0,0-1.4.71,3,3,0,0,0-.48,2l.09,8.73,6.55,4.73c-3.13-1-6.28-1.87-9.48-2.57l-3-.72-3.09-.44-3.69-.52a6.78,6.78,0,0,0-.25-.88c-.64-1.7-2-3-3.21-4.38a33.16,33.16,0,0,1-3.19-5.06l-7.56-13.72a13.92,13.92,0,0,1-1.75-4.2c-.26-1.49,0-3-.23-4.53s-1-3.1-2.49-3.47q-3.21,5.72-6.41,11.42c-2.25,4-4.56,8.84-2.63,13,1.43,3.09,5,5.43,4.72,8.82l4.75,2.13-3,.15-3.16.19-3.12.47-6.25,1-6.12,1.6a44,44,0,0,0-6,2c-.9.35-1.81.67-2.72,1-.33-3.26-3.58-6.35-6-9.11-5.06-5.87-6.75-13.85-10.22-20.79-1.4-2.81-3.29-5.63-6.21-6.79a15.1,15.1,0,0,0-5.19-.78c-8.33-.27-16.84-.51-24.83,1.86a40.63,40.63,0,0,1,20.58,28.42c.43,2.47.79,5.27,2.8,6.77a8.79,8.79,0,0,0,3.9,1.32l12.11,2.08,6.9-.24-2.71,1.33a63,63,0,0,0-5.45,3.18c-3.68,2.07-6.9,4.81-10.27,7.31-2.3,2.15-4.72,4.18-6.91,6.43-8.06-2.75-17.37,4.06-26.09,2.56-3.55-.61-6.73-2.57-10.21-3.51-5.58-1.51-11.62-.26-16.83,2.25s-9.72,6.23-14.18,9.9c6.13-3,13.38-.39,20.19-.56,5.06-.13,11.05-1.49,14.46,2.26,2.07,2.28,2.7,6.14,5.65,7.08a9.84,9.84,0,0,0,4,0,16.14,16.14,0,0,1,7.82,1.22,92.92,92.92,0,0,0-6.42,15.65c-4.74-.65-9.51-.59-13.46,1.89-1.62,1-3.69,2.42-5.19,1.25a7.59,7.59,0,0,1-1.38-2.06c-1.51-2.3-5-2.48-7.45-1.33s-4.39,3.28-6.54,5c-5,4-11.46,5.86-16.42,9.92a23.53,23.53,0,0,0-8.5,18.67c4.93-6.22,12.37-10.13,20.12-11.85s15.82-1.39,23.68-.31c3.68.51,7.85,1,11.32.08,0,.39-.05.77-.05,1.16,0,2.09-.29,4.14-.12,6.27l.37,5.84a14.18,14.18,0,0,0-6.34,4.16c-2.49,2.7-4.35,5.95-7,8.52-1.77,1.72-3.84,3.09-5.64,4.77-5.66,5.22-8.3,12.86-10.74,20.16,6-4.79,14.34-4.59,22-5.08,5.75-.38,12.14-1.79,16.23-5.47a74.47,74.47,0,0,0,8.05,12,35.1,35.1,0,0,1-5.37,4.27c-5.93,4.36-9.6,11.06-13.69,17.18s-9.26,12.21-16.39,14.07a45.19,45.19,0,0,0,32.84-9.77c5.31-4.32,9.6-9.83,15.16-13.82a72.93,72.93,0,0,0,12.07,7.21c-1.73,4.69-5.52,8.73-8,13.22-5.61,10.07-4.52,22.52-8.29,33.41l9.56-9.52c1.59-1.58,3.18-3.16,4.66-4.83a54.31,54.31,0,0,0,13-28.16,73.31,73.31,0,0,0,9.8,2.18c1.07,9-3.82,18.63-.83,27.31,1,2.95,2.89,5.54,3.9,8.49s.93,6.65-1.43,8.69A23.65,23.65,0,0,0,791,470.32c.44-2.6.45-5.26,1-7.84.86-4.11,3.06-7.9,3.52-12.08.34-3.11-.85-6.7-3.2-8.46a59.71,59.71,0,0,0,12.17-1.73l8.7,11.81c2.11,2.86,4.29,5.92,4.59,9.47a7,7,0,0,0,.41,2.51c.92,1.93,4,1.86,5.47.33s1.84-3.83,1.92-6a54.91,54.91,0,0,0-2.87-18.65,18.85,18.85,0,0,0-2.93-5.73,60,60,0,0,0,7.63-5.3c8.3,1.3,16.07,5.16,23.61,9l7.88,4c1.37.69,3,1.4,4.38.72,2.31-1.14,1.56-4.62.29-6.86a51.36,51.36,0,0,0-23.43-21.29,56.75,56.75,0,0,0,3.84-7.38c8,.9,16.55-2.81,24.34-.37,2.2.69,4.22,1.84,6.43,2.49a30,30,0,0,0,7.14.87l17.22.68L847.86,393.3a60.51,60.51,0,0,0,.71-7l29.25-5a16.28,16.28,0,0,0,6.41-2c1.89-1.24,3.27-3.55,2.71-5.73a61.28,61.28,0,0,1-28-3c-4.18-1.48-8.62-3.43-12.87-2.24a48.43,48.43,0,0,0-5.89-11.5c-.61-.83-1.24-1.65-1.89-2.45l-.31-.32c.6-1.87,2.67-3.1,4.13-4.58,4.37-4.4,3.44-11.88,6.77-17.11a2.75,2.75,0,0,0-2.71,1.18c-.65.82-1,1.82-1.64,2.68-1.72,2.42-4.88,3.29-7.81,3.73a4.81,4.81,0,0,0-2.93,1.12c-1.47,1.61-.09,4.34-.94,6.32l-.12,1.25c-.35-.3-.68-.62-1-.91a45.6,45.6,0,0,0-10.55-6.47,49.66,49.66,0,0,0-5.79-2.15l-.21-.05a8,8,0,0,0,1.41-5.79c-.18-2.2-.78-4.38-.67-6.59C816,323.2,818,320,819.92,317A79,79,0,0,0,809,326.88a8.81,8.81,0,0,0-1.44,1.9c-1.23,2.39-.27,5.29-.6,8l1.61,1.44a16.76,16.76,0,0,0-1.73-.25c-1-.13.4-.29-.62-.37l-3.07-.09a20,20,0,0,0-3.09.08,22.83,22.83,0,0,0-3.08.33,33.81,33.81,0,0,0-7.08,1.83l-.14-.19-.41.4c-.19.07-.36.17-.54.25-5.36-2.75-8.87-10.88-14.73-9.34l4.24,15.76.13,0a35.57,35.57,0,0,0-2.8,2.69,35,35,0,0,0-3.63,4.62l-6.5-2.76a2.39,2.39,0,0,0-1.25-.28,1.68,1.68,0,0,0-1.11,2.15,4.86,4.86,0,0,0,1.66,2.14l4,3.54,1-1a36.62,36.62,0,0,0-3.48,11.74,7.7,7.7,0,0,0-1.78.86c-1.35.89-5.84,2.09-5.53,3.68s4.1,1.54,7,1.66l.12,2.12c.15,2.63.6,2.8,1.48,5.27a28.49,28.49,0,0,0,5.35,9.18c0,.78-2.44,3.24-2.42,4,.69.24,3.93-1.46,4.62-1.73a27.91,27.91,0,0,0,19.65,7.48A27.25,27.25,0,0,1,775.51,393c.43-.93,3.22-2.67,3-3.68-.76,0-4.16.64-4.92.62h0c-4.81-5.75-5.89-8.88-4.85-16.18,0-.43.14,1.59.21,1.17l.6-.16,4.45.32L769.14,369a34.35,34.35,0,0,1,3.1-9l3.47,2.34a21.56,21.56,0,0,0-.1-7.6,30.21,30.21,0,0,1,2.66-3,34.36,34.36,0,0,1,4.27-3.55,11.76,11.76,0,0,1,5.61,2.88c2.14,1.78,4.23,3.88,7,4.49a22.92,22.92,0,0,0-2.66-12.07,29,29,0,0,1,5.15-1,20.29,20.29,0,0,1,2.7-.17,17.7,17.7,0,0,1,2.72.05l1.74.13a44,44,0,0,0-1.1,25.23c5.17-6.9,10.47-14.24,11.88-22.67a21.83,21.83,0,0,1,3.18,1.38,36.1,36.1,0,0,1,7.28,4.61,32.19,32.19,0,0,1-6.82,7.65c-1.53,1.17-3.25,2.17-4.39,3.72-2.23,3-1.84,7.44-4.25,10.31,3.81-3.18,8.78-4.49,13.44-6.2,3.87-1.42,7.82-3.39,10.34-6.55.13.19.27.37.4.55a42.26,42.26,0,0,1,4.68,10.15c-7.62.8-14.58,6.7-22.32,6a3.59,3.59,0,0,0-2.56.34c-1,.79-.69,2.36-.77,3.64a5,5,0,0,1-2.8,4.16,106.17,106.17,0,0,1,29.93,1.42,52.52,52.52,0,0,1-1.17,7.26l-11.21,1.73c-5.78.89-11.77,1.77-17.4.21a103.71,103.71,0,0,0,24.77,8.74,48.49,48.49,0,0,1-6,9.24c-6.42-1.1-13.24-2.53-17.61-7.31-2.18-2.4-3.77-5.62-6.79-6.78,0,2.88,1.42,5.55,2.78,8.09q2.47,4.64,5,9.28c1.39,2.58,3.24,5.42,5.71,6.64a50.79,50.79,0,0,1-6.59,3.71c-3.61-1.8-6.23-5.37-8.23-9-2.33-4.19-4.25-8.76-7.76-12l.93,14.71a23.62,23.62,0,0,0,.69,5,16,16,0,0,0,2.67,5,48.87,48.87,0,0,1-12.34.72c-1.49-2.61-2-5.87-2.83-8.83a32.6,32.6,0,0,0-5.05-10.4A51,51,0,0,0,778.14,430a64.46,64.46,0,0,1-6.68-1.92,103.87,103.87,0,0,0-3.37-17c.49,1.52-.62,3.14-2,4s-3,1.23-4.35,2a8,8,0,0,0-3.52,4.52c-1.69-1.1-3.32-2.27-4.9-3.53a16.65,16.65,0,0,0,5-8.26,47.29,47.29,0,0,0,1.2-11.27c-2.72.93-4,4-6.32,5.74-3,2.32-7.1,2.2-10.86,2l4.26,5.57A61.49,61.49,0,0,1,736,396.05c-.54-1.17-1-2.37-1.48-3.56a53.29,53.29,0,0,0,19.6-24.34c-2.38,2.13-6.12,1-9.26,1.63-2.48.48-4.59,2.05-6.82,3.25s-4.93,2.06-7.24,1l1,9.5a60.67,60.67,0,0,1-1.3-7.7l-.21-5.26c-.12-1.74.17-3.56.22-5.33a69,69,0,0,1,1.26-9.93l.12,5.61,26.54.49c-3-6.94-10.16-11-16.84-14.53l-6.43-3.42a77.37,77.37,0,0,1,6.7-13.79,68.55,68.55,0,0,1,26.38,2.39c-1.13-7.63-7.39-13.31-13.28-18.29l.2-.19,4-3.53c2.89-2,5.6-4.35,8.73-6a48.53,48.53,0,0,1,4.6-2.61l4.58-2.17-1.11,1.25c2.3,2.57.73,6.74,1.89,10,1,2.87,3.92,4.52,6.34,6.37a27,27,0,0,1,6.78,7.59c1.6,2.66,2.85,5.73,5.4,7.5a24.08,24.08,0,0,1,1.59-9c.63-1.64,1.45-3.31,1.28-5.06A9.24,9.24,0,0,0,797.5,314l-2.73-4.47a4.84,4.84,0,0,0-1.79-2,8.6,8.6,0,0,0-2.69-.49c-4.52-.74-6.25-6.33-9.79-9.23.54-.18,1.08-.36,1.6-.56a34.62,34.62,0,0,1,5-1.58l5.13-1.29,5.24-.76,2.61-.38,2.64-.11,5.29-.22,1.06.07.54,0-3.12.26a20.87,20.87,0,0,1,1.9,12.63,31.84,31.84,0,0,0-.68,4.52c0,2.55,1,5,2.09,7.3a11.28,11.28,0,0,1,2.8-6.33c1.19-1.33,2.69-2.36,3.84-3.73,3.14-3.74,3-9,2.53-14l5.11.8,2.66.4,2.61.67a96.05,96.05,0,0,1,10,2.93,5.31,5.31,0,0,0-3.35,3c-.91,2.07-.78,4.41-.83,6.67a40.2,40.2,0,0,1-9,24.49,41.53,41.53,0,0,1,11.27-6.5,31.55,31.55,0,0,0,3.24-1.34c3.56-1.84,5.95-5.44,7.18-9.25s1.46-7.87,1.67-11.87l-5.23-3.28a99.66,99.66,0,0,1,20.08,11.18c-3.76,4.45-4.13,10.92-4.07,16.83.07,6.21.14,13-3.67,17.89-1.82,2.35-4.54,4.35-4.84,7.3l8.6-5.39c2.65-1.66,5.38-3.4,7.15-6,1.1-1.59,1.78-3.42,2.8-5.05,2.42-3.87,6.79-6.76,7.49-11.27L867.62,314l.14.11a100.68,100.68,0,0,1,26.74,33.07l1.25,2.36,1,2.48,2,4.95a23,23,0,0,1,1,3l-7.23-12.32c-2.21.17-3.94,2-5.17,3.81s-2.25,3.91-4,5.24a12.55,12.55,0,0,1-3.85,1.75A73.46,73.46,0,0,1,866,361.37a43.32,43.32,0,0,0,14.46,1.21,27.77,27.77,0,0,1,5.88-.46c2.63.26,5,1.63,7.67,1.95s5.63-1,6-3.45c.13.47.27.94.43,1.41.49,1.71,1.06,3.41,1.51,5.13l1,5.25a40.78,40.78,0,0,1,.87,5.27l.53,5.32.27,2.69.14,1.73-2.33-7.09a36.05,36.05,0,0,1-26.53,10.05,12.15,12.15,0,0,0-3.76.14,3.39,3.39,0,0,0-2.57,2.48c3-.53,6.13.06,9.16.65l9.66,1.89a55.91,55.91,0,0,1,9.81,2.55,21.55,21.55,0,0,0,5.19,1.73,6.08,6.08,0,0,0,2.28-.2c0,.11,0,.21,0,.32a70.13,70.13,0,0,1-.6,10.29,84.08,84.08,0,0,1-5.49,20.32c-.86,2.11.62,1.76-.38,3.82-.2-.38-2.82,1.67-3,1.28-.13.27-.25.54-.37.81L892.3,425.3a175.16,175.16,0,0,0-20.11-5.71,35.19,35.19,0,0,0,11.59,9.68c1.3.68,2.65,1.28,3.91,2,2.93,1.8.29,6.83,2.18,9.73-2.34,4.59-.08,6.63-3,10.92a14.53,14.53,0,0,0-6.61-.55c-2.45.39-4.77,1.4-7.21,1.86-5.67,1.06-11.56-.92-17.25,0,3,3.47,8.39,2.94,12.68,4.52,3.47,1.27,6.3,4,9.55,5.66-1,1.13-2,2.26-2.91,3.4-2.28,2.54-4.7,5-7.11,7.4a38.36,38.36,0,0,0-10.05-9.38,38.66,38.66,0,0,1-5.16-3.5,37,37,0,0,1-3.69-4.3,44.89,44.89,0,0,0-10.38-9.4,44.38,44.38,0,0,1,5.24,8.89c1.4,3.22,2.44,6.72,2,10.22a65.78,65.78,0,0,1-1.59,6.7A22.28,22.28,0,0,0,848,490.73q-3.53,2.53-7.15,4.94a13,13,0,0,0-4.83-3.95c-2.55-1.19-5.4-1.52-8.07-2.38-9-2.93-14.82-11.43-22.17-17.42-.63-.51-1.55-1-2.2-.53s-.49,1.26-.34,1.94a45.19,45.19,0,0,0,8,17.73c1.46,2,3.12,3.88,3.76,6.24a15.73,15.73,0,0,1,.37,4.28c0,3,0,6.07,0,9.1q-6.37,3.34-12.86,6.46l-6,2.75"/><path class="cls-5" d="M796.46,519.89c-2.1-3.54-5.67-6.52-9-9.05l-16.26-12.25c-3.7-2.78-7.5-5.62-11.93-7s-9.69-.93-13.06,2.25a18.63,18.63,0,0,1,7.37,7.81c1.05,2.09,1.69,4.36,2.63,6.5a24.56,24.56,0,0,0,10.7,11.54,10.93,10.93,0,0,1,3.35,2.26c1.87,2.24,1.07,5.39,1,8.41l-.21.08-10.71,4c-3.16,1.06-6.32,2.14-9.48,3.21a17.39,17.39,0,0,0-4.26-7.89c-3-3.36-6.76-6.17-9-10.09-.75-1.32-1.39-2.82-2.7-3.6a9.36,9.36,0,0,0-2.87-.86c-9.44-2.15-13.67-13.34-21.86-18.5-1.2-.76-2.8-1.37-4-.55,2.75,6.36,10.6,10.35,11,17.27.09,1.72-.29,3.58.6,5,1.15,1.89,3.78,2.14,5.55,3.47,2.59,1.94,2.84,5.73,2.34,8.93s-1.51,6.5-.59,9.6a22.37,22.37,0,0,0,2.28,4.53c-3.56,1.13-7.16,2.14-10.78,3.1s-7.45,2-11.19,3l-1.46.35a35.42,35.42,0,0,0,.16-4q0-6.27-.07-12.55a11.15,11.15,0,0,0-.68-4.6c-.8-1.79-2.46-3-3.88-4.37a42.11,42.11,0,0,1-5.79-7.53l-6.51-10c.81,6.53,1.63,13.1,1.26,19.67s-2,13.21-5.66,18.66c-1.34,2-3,3.85-3.71,6.13a12.29,12.29,0,0,0-.51,4.1c-5.22,1-15.34,2-20.58,3l1.74-2.87a44.48,44.48,0,0,0,5.15-10.44c.48-1.64.78-3.34,1.32-5,.47-1.43,1.13-2.79,1.72-4.17,3.71-8.81-3.06-21.35-5.79-30.5.93,3.23-.42,6.7-2.28,9.5s.61,5.25-1,8.23c-1,1.91-6.51,4-7.62,5.84-4.26,7.14-7,11.52-11.28,18.67-2.71,4.58,2.47,10.26,2.85,15.57l.36.08c-5.51,1.06-23.23,2.09-28.78,3.09-30.77,5.54-61.34,13.13-90.87,24.24a299.89,299.89,0,0,0-43,20c-13.76,7.94-26.93,17.23-38.36,28.59s-21.13,24.63-27.45,39.58a119.5,119.5,0,0,0-9.5,47c0,16,2.68,31.74,6.95,46.86a271.33,271.33,0,0,0,16.87,43.75c6.75,14.06,14.34,27.65,22.38,40.92s14.61,23.09,23.14,36c-15.61-26.76-29.14-50.54-41.2-78.89a282.59,282.59,0,0,1-14.79-43.5c-3.58-14.81-5.58-30-5-45a111.27,111.27,0,0,1,10.07-43.18C429.74,671,439,659.14,449.84,649c21.91-20.33,49.63-34,78.19-44.1A442.58,442.58,0,0,1,571.92,592q22.27-5.4,45-9.18c19.39-3.22,51.06-6.81,70.41-11,5.19,2.53,10.57.57,15.51,2.22,1.58.53,3.1,1.42,4.76,1.34s3.34-1.88,2.51-3.32c-.52-.9-1.69-1.14-2.65-1.54-.65-.27-1.29-.89-1.49-3q5.6-1.35,11.17-2.81c6.79-1.65,13.55-3.37,20.28-5.25,2.53,2.62,4.94,4.35,7.59,4.73,1.61.22,3.25,0,4.87,0,5.59.21,10.61,4.33,16.19,3.93a1.46,1.46,0,0,0,1.06-.41c.45-.56,0-1.37-.52-1.91A37.63,37.63,0,0,1,758.68,553q11.75-3.79,23.33-8.18c2.33,3.06,6.37,4.33,10.2,5s8.11,1,11.5,3.18c2.07,1.32,4.34,3.36,6.62,2.43q-4.12-9.4-7.38-19.14l-2.43.95c8.32-3.64,16.53-7.55,24.58-11.83a14.05,14.05,0,0,0,9,6c2.45.46,5,.26,7.45.66a30.47,30.47,0,0,1,7.52,2.65l15,6.79c-1-4.74-2.13-9.72-5.42-13.28a24.41,24.41,0,0,1-2.62-2.86,12,12,0,0,1-1.44-3.6,104.92,104.92,0,0,1-2.43-11.26h0c8.65-5.23,3-3.33,11-9.6,2.41,1.52,4.46,4,6.48,6.09,14.5,15.23,38.46,17.63,54.12,31.68-2.46-6.63-5-13.38-9.34-18.94-4.52-5.78-10.85-10-14.81-16.23-3-4.61-4.93-10.56-10-12.65-3.48-1.44-8-.81-10.53-3.59q4.79-4.41,9.28-9.19c3-3.22,5.93-6.61,8.67-10.13.78,3.37,3.36,6.27,6.29,8.25,3.47,2.34,7.49,3.76,11.12,5.85,5.45,3.14,10,7.77,15.49,10.78,6.69,3.64,14.44,4.68,22,5.65l13.53,1.75a72.06,72.06,0,0,0-24-15.73c-7.42-3-15.79-5-20.93-11.1-2.77-3.29-4.29-7.48-7-10.85-2.25-2.85-5.91-5.07-9.34-4.62q3.27-5,6.06-10.25"/><path class="cls-1" d="M917.27,448.85c-1.27,2.43-7.51,4.82-8.95,7.16a15.07,15.07,0,0,1,7.12,5.07,41.75,41.75,0,0,1,3.52,5.53,34.55,34.55,0,0,0,3.4,5.27c3.71,4.42,9.42,6.5,15.46,8.7,1.52.55,3,1.11,4.51,1.69a75,75,0,0,1,24.81,16.27l5.12,5.08-20.67-2.68c-7.35-.95-15.68-2-22.86-5.93a64.78,64.78,0,0,1-8.41-5.79,66.11,66.11,0,0,0-7.13-5c-1.45-.83-3-1.55-4.55-2.31a49.83,49.83,0,0,1-6.71-3.63,19.07,19.07,0,0,1-5.56-5.59c-2.07,2.53-4.18,4.91-6.27,7.13s-4.56,4.73-7,7.1a26.88,26.88,0,0,0,2.74.56,22,22,0,0,1,4.71,1.19c4.6,1.9,7,6.27,9.11,10.12.65,1.18,1.29,2.36,2,3.46a50.39,50.39,0,0,0,7.85,8.81,70.27,70.27,0,0,1,6.83,7.24c4.64,5.91,7.22,12.86,9.71,19.59l3.43,9.25-7.35-6.59c-7.12-6.39-16.36-10.41-25.3-14.3-10.32-4.49-21-9.14-29-17.51l-1.13-1.2a37.46,37.46,0,0,0-3.52-3.5,14.34,14.34,0,0,0-3.18,3.27c-.88,1.3-1.61,2.2-5.23,4.48.56,3.15,1.27,6.3,2.11,9.4a10,10,0,0,0,1.12,2.89,11.68,11.68,0,0,0,1.42,1.58c.32.32.65.64,1,1,3.83,4.15,5,9.85,6,14.44l1,4.72L848.05,537a28.59,28.59,0,0,0-6.91-2.46,30,30,0,0,0-3.27-.28,28.61,28.61,0,0,1-4.23-.4,16.31,16.31,0,0,1-9.22-5.29c-5.84,3.06-11.93,6-18.49,9,2,5.73,4.21,11.42,6.63,17l1,2.29-2.31.94c-3.1,1.28-5.86-.59-7.86-2l-1-.66c-2.4-1.52-5.42-2-8.62-2.51l-2-.33c-3.12-.55-7.41-1.61-10.47-4.53-6.24,2.34-12.73,4.62-19.35,6.8a35.23,35.23,0,0,0,6.47,9.64c1.8,2,1.48,4,.58,5.06a3.78,3.78,0,0,1-2.78,1.3c-3.52.25-6.65-.94-9.68-2.1a22.15,22.15,0,0,0-6.77-1.82,17,17,0,0,0-1.75,0,17.43,17.43,0,0,1-3.37-.07c-2.68-.38-5.17-1.75-8-4.41-5.63,1.56-11.71,3.12-19,4.89-2.5.65-5,1.29-7.54,1.92a4.7,4.7,0,0,1,2,1.85,4.17,4.17,0,0,1,0,4.13,5.64,5.64,0,0,1-4.49,2.84,10.37,10.37,0,0,1-4.51-1c-.38-.15-.77-.31-1.15-.44a20,20,0,0,0-6.06-.64,23,23,0,0,1-9-1.33c-12.33,2.64-29.6,5.06-44.87,7.21-9.17,1.29-17.82,2.51-24.87,3.68-14.84,2.45-29.92,5.53-44.82,9.14a438,438,0,0,0-43.64,12.77c-33.08,11.72-58.38,26-77.35,43.59-11.42,10.75-20.08,22.45-25.72,34.75a108.5,108.5,0,0,0-9.85,42.26c-.55,13.67,1.1,28.58,4.91,44.33A280.8,280.8,0,0,0,435.5,815.2c12,28.12,25.12,51.27,41.06,78.61l-4.14,2.57-1.21-1.84c-8-12.07-14.25-21.6-22-34.25-8.9-14.69-16.25-28.14-22.5-41.14a272.23,272.23,0,0,1-17-44.15c-4.78-16.91-7.09-32.46-7.05-47.52a122.53,122.53,0,0,1,9.7-48c6-14.25,15.44-27.83,28-40.34,10.57-10.51,23.28-20,38.86-29a301.79,301.79,0,0,1,43.37-20.14c27.15-10.22,57-18.19,91.31-24.36,2.8-.5,8.29-1,14.1-1.5,4.34-.39,8.78-.78,11.9-1.17-.32-1.08-.78-2.21-1.25-3.38-1.47-3.59-3.14-7.67-.84-11.54s4.12-6.86,6-9.94c1.64-2.69,3.3-5.41,5.28-8.73.85-1.42,2.65-2.51,4.56-3.66a16,16,0,0,0,3-2.1,4,4,0,0,0,.1-2.53,7.74,7.74,0,0,1,1-5.88c1.07-1.61,2.76-4.73,2-7.47l4.68-1.38c.62,2.07,1.46,4.34,2.35,6.74,3.08,8.33,6.57,17.77,3.36,25.4l-.54,1.24c-.4.91-.81,1.82-1.12,2.76s-.49,1.74-.7,2.62-.37,1.52-.59,2.27a40.23,40.23,0,0,1-4.43,9.41l4.71-.62c3.06-.39,6.21-.8,8.7-1.21a12.62,12.62,0,0,1,.56-2.8,19.75,19.75,0,0,1,3.05-5.38c.33-.45.65-.9,1-1.36,3.1-4.58,4.86-10.45,5.25-17.42.35-6.37-.46-12.91-1.25-19.23l-1.3-10.46,12.27,18.78a39.94,39.94,0,0,0,5.44,7.11c.28.27.57.53.86.79a13.53,13.53,0,0,1,3.56,4.33,13.29,13.29,0,0,1,.88,5.6l.08,12.55v.81c3.11-.82,6.26-1.68,9.4-2.55,2.85-.76,5.42-1.48,7.8-2.19a13.46,13.46,0,0,1-1-2.39c-.9-3-.32-6.08.18-8.76.12-.64.24-1.28.34-1.92.23-1.49.57-5.13-1.39-6.6A9.59,9.59,0,0,0,720,523a8.6,8.6,0,0,1-4.35-3.23,8.71,8.71,0,0,1-1-4.95c0-.41,0-.82,0-1.23-.17-3.17-2.48-5.71-5.15-8.66a29.1,29.1,0,0,1-5.62-7.77l-.79-1.83,1.63-1.14c1.8-1.27,4.17-1.09,6.66.49,3.7,2.32,6.56,5.67,9.33,8.9,3.61,4.21,7,8.2,11.77,9.28l.55.12a9.11,9.11,0,0,1,3,1,9.34,9.34,0,0,1,3.22,3.86l.34.62a30.79,30.79,0,0,0,5.48,6.38c1.1,1.08,2.2,2.15,3.22,3.29a21.45,21.45,0,0,1,4.06,6.4l7.09-2.41,9.36-3.49,0-.36c.19-2.33.25-3.81-.53-4.75a7.35,7.35,0,0,0-2.09-1.39l-.55-.29A26.9,26.9,0,0,1,754,509.18c-.44-1-.81-2-1.18-3a36,36,0,0,0-1.41-3.43A16.4,16.4,0,0,0,745,496l-2.85-1.63,2.39-2.26c3.72-3.5,9.63-4.57,15.44-2.81,4.89,1.49,9,4.6,12.69,7.35l16.26,12.25c3.47,2.61,7.32,5.81,9.67,9.76l-4.2,2.48c-1.91-3.21-5.32-6-8.4-8.35l-16.27-12.24c-3.49-2.63-7.1-5.34-11.17-6.58a12.7,12.7,0,0,0-8,.05,21,21,0,0,1,5.16,6.59,40,40,0,0,1,1.62,3.91c.34.9.67,1.81,1.07,2.69A22,22,0,0,0,768,517.59l.51.27a10.85,10.85,0,0,1,3.56,2.57c2.12,2.54,1.87,5.59,1.66,8.27,0,.6-.1,1.19-.12,1.79l-.06,1.62-12.45,4.65L749,540.88l-.55-2.71a15,15,0,0,0-3.68-6.74c-1-1.06-2-2.06-3-3.06a34.83,34.83,0,0,1-6.3-7.45l-.4-.71a5.65,5.65,0,0,0-1.44-2,5.32,5.32,0,0,0-1.5-.43l-.66-.14c-5.88-1.34-9.84-5.58-13.56-9.89a12.74,12.74,0,0,1,1.68,5.61c0,.51,0,1,0,1.58a5.15,5.15,0,0,0,.24,2.32,5,5,0,0,0,2.13,1.28,13.53,13.53,0,0,1,2.8,1.51c2.92,2.18,4.08,6.18,3.29,11.26-.11.68-.24,1.37-.37,2.06-.44,2.35-.86,4.57-.29,6.47a14.84,14.84,0,0,0,1.57,3.18l2,3.46-2.89.91c-3.25,1-6.81,2-10.89,3.12q-5.57,1.56-11.2,3l-4.85,1.16.35-3.42a33.44,33.44,0,0,0,.14-3.7L701.5,535a6.22,6.22,0,0,0-2.84-6.34c-.33-.29-.66-.59-1-.89a43.45,43.45,0,0,1-6.14-8l-.95-1.45a75.15,75.15,0,0,1,.18,10c-.44,7.86-2.48,14.55-6.08,19.88-.33.5-.69,1-1,1.48a16,16,0,0,0-2.38,4,9.93,9.93,0,0,0-.38,3.29l0,2-2,.4c-2.81.55-6.94,1.09-10.93,1.6-3.56.46-7.24.93-9.68,1.39l-5.37,1,4.58-7.54a43.15,43.15,0,0,0,4.89-9.86c.2-.67.36-1.35.52-2,.25-1,.49-2,.82-3s.84-2.17,1.28-3.19l.51-1.16c2.3-5.45-.26-13.16-2.85-20.24-.29.52-.6,1-.94,1.55s-.38,1.13-.19,2.48A8.48,8.48,0,0,1,661,526c-.83,1.58-2.75,2.74-4.79,4a16.94,16.94,0,0,0-2.91,2c-2,3.32-3.64,6-5.28,8.74-1.88,3.08-3.72,6.1-6,9.9-1,1.66-.22,3.83,1.16,7.21a30.71,30.71,0,0,1,1.75,5.1l10.19,2.29-11.53,2.21c-3,.57-8.87,1.09-15.14,1.64-5.45.49-11.08,1-13.67,1.45-34,6.12-63.58,14-90.44,24.12a296.3,296.3,0,0,0-42.67,19.81c-15.2,8.77-27.58,18-37.85,28.2-12.08,12.06-21.14,25.11-26.93,38.8a117.91,117.91,0,0,0-9.31,46.06c0,14.61,2.22,29.71,6.87,46.18a263.85,263.85,0,0,0,15.45,40.71,279.28,279.28,0,0,1-13.77-41.16c-3.91-16.18-5.61-31.55-5-45.66a113.25,113.25,0,0,1,10.3-44.12c5.89-12.86,14.91-25.06,26.81-36.26,19.47-18.08,45.33-32.68,79.05-44.63a442.5,442.5,0,0,1,44.13-12.91c15-3.64,30.2-6.74,45.16-9.21,7.1-1.18,15.79-2.41,25-3.7,15.51-2.18,33.1-4.65,45.3-7.32l.83-.18.76.37c2.38,1.16,4.94,1.18,7.65,1.2a23.64,23.64,0,0,1,7.56.9c.48.16,1,.34,1.43.53a11.58,11.58,0,0,0,1.72.61l-.24-.1c-2.6-1.09-2.89-4-3-5l-.21-2.11,2.06-.5q5.58-1.35,11.14-2.8c7.86-1.91,14.28-3.57,20.23-5.24l1.41-.39,1,1.05c2.38,2.47,4.34,3.74,6.18,4a13.28,13.28,0,0,0,2.46,0c.71,0,1.43-.07,2.15,0a26.15,26.15,0,0,1,8.33,2.15,33.29,33.29,0,0,0,4.79,1.56,39.58,39.58,0,0,1-6.67-11.51l-.95-2.41,2.47-.8c8-2.58,15.78-5.32,23.21-8.14l1.7-.65,1.11,1.45c1.52,2,4.28,3.3,8.68,4.07.63.12,1.28.22,1.92.32,3.54.57,7.21,1.15,10.46,3.21.35.22.7.46,1.06.71q-2.48-6-4.61-12.16l-.05,0L799.55,535c8.86-3.88,16.85-7.72,24.41-11.75l2-1,1.22,1.85a11.6,11.6,0,0,0,7.41,5,24.51,24.51,0,0,0,3.54.32,34.53,34.53,0,0,1,3.84.33,32.67,32.67,0,0,1,8.14,2.84l10.43,4.74a17.87,17.87,0,0,0-3.7-7.35c-.26-.28-.53-.55-.8-.82a15.55,15.55,0,0,1-2.06-2.34,14.42,14.42,0,0,1-1.76-4.31,107,107,0,0,1-2.49-11.52l-.26-1.63,1.4-.85c4.2-2.53,4.59-3.11,5.14-3.91.89-1.31,1.93-2.62,5.65-5.52l1.35-1,1.45.91a30.48,30.48,0,0,1,5.86,5.31l1.08,1.16c7.3,7.65,17,11.9,27.38,16.4,6.63,2.88,13.42,5.84,19.57,9.81a46,46,0,0,0-5.85-10.29,66.76,66.76,0,0,0-6.38-6.73,55.33,55.33,0,0,1-8.57-9.68c-.76-1.2-1.46-2.47-2.17-3.75-1.89-3.46-3.68-6.72-6.69-8a17.41,17.41,0,0,0-3.68-.89c-2.62-.45-5.59-1-7.73-3.32l-1.61-1.79,1.77-1.64c3.26-3,6.33-6.06,9.15-9.07s5.73-6.37,8.53-10l3.15-4,1.15,5c.56,2.42,2.48,4.89,5.28,6.78a46.69,46.69,0,0,0,6.08,3.27c1.61.77,3.27,1.56,4.88,2.49a67.83,67.83,0,0,1,7.68,5.38,60.63,60.63,0,0,0,7.76,5.37c6.38,3.46,13.89,4.44,21.15,5.38l5.65.73a70.07,70.07,0,0,0-17.34-10c-1.43-.57-2.9-1.1-4.37-1.64-6.38-2.32-13-4.73-17.53-10.15a38.24,38.24,0,0,1-3.91-6,38.08,38.08,0,0,0-3.1-4.91c-2-2.48-4.91-4-7.12-3.71l-5.3.68,2.95-4.45"/><text class="cls-8" transform="translate(617.16 687.74)">June 2, 2018</text></svg>