<svg id="Layer_1" data-name="Layer 1" xmlns="http://www.w3.org/2000/svg" viewBox="0 0 1200 1200"><defs><style>.cls-1{fill:#f2f2f2;}.cls-2{fill:none;stroke:#000;stroke-miterlimit:10;stroke-width:0.86px;}.cls-3{font-size:69.05px;font-family:GaramondPremrPro-Bd, Garamond Premier Pro;}.cls-4{fill:#8d7f55;}.cls-5{fill:#fff;}.cls-6{fill:#e6e6e5;}</style></defs><title>champion-1</title><rect class="cls-1" x="-1" y="-1" width="1200" height="1200"/><path d="M600.14,935.88a335.87,335.87,0,1,1,237.5-98.38A333.67,333.67,0,0,1,600.14,935.88Zm0-657a321.07,321.07,0,1,0,227,94A319,319,0,0,0,600.14,278.92Z"/><ellipse class="cls-2" cx="600.14" cy="600" rx="319.6" ry="79.9" transform="translate(-245.27 526.13) rotate(-40)"/><path d="M845.34,394.25c13.74,16.37,1.15,53.17-35.44,103.61S717.07,606.34,651.58,661.3,519.15,761.55,463.12,788.84s-94.45,33.29-108.19,16.91-1.15-53.17,35.45-103.61S483.2,593.66,548.7,538.7,681.12,438.45,737.15,411.17,831.6,377.87,845.34,394.25ZM355.69,805.12c13.7,16.32,52,10.33,107.86-16.87S586.12,715.9,651.42,661.11,772.77,548.46,809.25,498.17s49-87,35.34-103.29-52-10.33-107.86,16.87S614.15,484.1,548.86,538.89,427.51,651.54,391,701.83,342,788.79,355.69,805.12Z"/><ellipse class="cls-2" cx="600.14" cy="600" rx="79.9" ry="319.6" transform="translate(-219.55 819.74) rotate(-60)"/><path d="M322.93,440c10.69-18.51,49.57-19.26,109.48-2.12S566.1,488,640.15,530.7s139.5,90.15,184.3,133.47,63.58,77.37,52.9,95.88-49.57,19.26-109.49,2.12S634.17,712.05,560.13,669.3s-139.5-90.15-184.3-133.47S312.24,458.46,322.93,440Zm553.56,319.6c10.66-18.45-8.07-52.4-52.73-95.58S713.84,573.53,640,530.91s-147.37-75.5-207.1-92.58S334.44,422,323.78,440.45s8.08,52.4,52.74,95.58,109.91,90.44,183.73,133.06,147.36,75.5,207.09,92.58S865.84,778,876.49,759.55Z"/><ellipse class="cls-2" cx="600.14" cy="600" rx="319.6" ry="79.9" transform="translate(-94.96 1086.83) rotate(-80)"/><path d="M544.55,915.23c-21-3.71-35-40-39.44-102.15s1.37-142.78,16.22-227,37-161.91,62.39-218.83,50.95-86.21,72-82.5,35.06,40,39.45,102.15S693.79,529.7,679,613.9s-37,161.91-62.39,218.83S565.6,918.94,544.55,915.23Zm111-629.49c-21-3.7-46.48,25.51-71.78,82.25s-47.4,134.22-62.2,218.16S501,750.45,505.4,812.42s18.34,98.14,39.33,101.84S591.2,888.75,616.51,832,663.9,697.79,678.7,613.85s20.55-164.3,16.17-226.27S676.54,289.44,655.55,285.74Z"/><ellipse class="cls-2" cx="600.14" cy="600" rx="319.6" ry="79.9" transform="translate(-95.07 113.33) rotate(-10)"/><path d="M915.37,544.42c3.71,21.05-25.59,46.62-82.5,72S698.23,664,614,678.81s-164.8,20.61-227,16.22-98.44-18.4-102.15-39.45,25.59-46.62,82.5-72S502,536,586.24,521.19s164.81-20.61,227-16.22S911.66,523.37,915.37,544.42Zm-629.49,111c3.7,21,39.87,35,101.84,39.33S530.05,693.37,614,678.56s161.42-36.88,218.16-62.19,86-50.8,82.25-71.78-39.87-35-101.84-39.33-142.33,1.37-226.28,16.18-161.41,36.88-218.15,62.19S282.18,634.43,285.88,655.41Z"/><ellipse class="cls-2" cx="600.14" cy="600" rx="79.9" ry="319.6" transform="translate(-219.6 380.45) rotate(-30)"/><path d="M440.09,322.79c18.51-10.69,52.56,8.1,95.88,52.9S626.69,485.94,669.44,560s75.73,147.82,92.87,207.73,16.39,98.8-2.13,109.49-52.56-8.1-95.88-52.9S573.59,714.06,530.84,640,455.1,492.19,438,432.28,421.58,333.48,440.09,322.79Zm319.6,553.56c18.46-10.65,19.21-49.41,2.12-109.14s-50-133.28-92.58-207.1S579.35,421,536.17,376.38,459,313,440.58,323.65s-19.2,49.41-2.12,109.14,50,133.28,92.59,207.1S620.92,779,664.11,823.62,741.24,887,759.69,876.35Z"/><ellipse class="cls-2" cx="600.14" cy="600" rx="319.6" ry="79.9" transform="translate(-245.25 674.06) rotate(-50)"/><path d="M394.39,845.21C378,831.47,384,793,411.3,737s72.58-123,127.54-188.45,113-121.72,163.44-158.32,87.24-49.19,103.61-35.45S816.26,407,789,463s-72.57,123-127.53,188.45S548.44,773.16,498,809.76,410.76,859,394.39,845.21ZM805.26,355.55c-16.33-13.7-53-1.15-103.29,35.34S593.81,483.43,539,548.72s-99.95,132-127.15,187.87S378.7,830.75,395,844.45s53,1.15,103.29-35.34,108.15-92.54,162.94-157.83,99.94-132,127.14-187.87S821.58,369.25,805.26,355.55Z"/><ellipse class="cls-2" cx="600.14" cy="600" rx="79.9" ry="319.6" transform="translate(-168.94 958.73) rotate(-70)"/><path d="M900.93,709.48c-7.31,20.08-45.47,27.58-107.46,21.11s-140.36-26.15-220.7-55.39-153-64.56-204.68-99.44-76-65.15-68.74-85.24,45.47-27.58,107.45-21.11,140.36,26.15,220.71,55.39,153,64.56,204.67,99.44S908.24,689.39,900.93,709.48ZM300.28,490.86c-7.29,20,17.05,50.2,68.53,85s124,70,204,99.14,158.24,48.76,220,55.21,99.83-1,107.12-21-17-50.2-68.53-85-124-70-204.05-99.14-158.23-48.76-220-55.21S307.56,470.84,300.28,490.86Z"/><ellipse class="cls-2" cx="600.14" cy="600" rx="79.9" ry="319.6"/><path d="M600.14,279.91c21.37,0,41.47,33.29,56.58,93.75S680.16,514.5,680.16,600s-8.32,165.88-23.44,226.34-35.21,93.75-56.58,93.75-41.47-33.29-56.59-93.75S520.11,685.5,520.11,600s8.33-165.88,23.44-226.34S578.76,279.91,600.14,279.91Zm0,639.2c21.31,0,41.34-33.2,56.41-93.47S679.91,685.24,679.91,600s-8.29-165.37-23.36-225.64-35.1-93.47-56.41-93.47-41.34,33.2-56.41,93.47S520.36,514.76,520.36,600s8.3,165.37,23.37,225.64S578.83,919.11,600.14,919.11Z"/><ellipse class="cls-2" cx="600.14" cy="600" rx="319.6" ry="79.9" transform="translate(-169.02 241.44) rotate(-20)"/><path d="M299.35,709.48c-7.31-20.09,17.1-50.36,68.74-85.24s124.34-70.19,204.68-99.44,158.72-48.91,220.7-55.39,100.15,1,107.46,21.11-17.11,50.36-68.75,85.24S707.85,646,627.51,675.2,468.78,724.11,406.8,730.59,306.66,729.56,299.35,709.48ZM900,490.86c-7.29-20-45.33-27.5-107.12-21S653,495.88,572.85,525s-152.56,64.36-204,99.14-75.82,65-68.53,85,45.33,27.5,107.12,21,139.93-26.06,220-55.21S780,610.61,831.47,575.83,907.29,510.88,900,490.86Z"/><ellipse class="cls-2" cx="600.14" cy="600" rx="79.9" ry="319.6" transform="translate(-245.27 526.13) rotate(-40)"/><path d="M805.89,845.21c-16.37,13.74-53.17,1.15-103.61-35.45S593.79,716.93,538.84,651.44,438.59,519,411.3,463,378,368.53,394.39,354.79s53.17-1.15,103.61,35.45,108.48,92.83,163.44,158.32S761.69,681,789,737,822.26,831.47,805.89,845.21ZM395,355.55c-16.32,13.7-10.33,52,16.86,107.86S484.24,586,539,651.28,651.68,772.63,702,809.11s87,49,103.29,35.34,10.33-52-16.87-107.86S716,614,661.25,548.72,548.59,427.37,498.31,390.89,411.34,341.85,395,355.55Z"/><ellipse class="cls-2" cx="600.14" cy="600" rx="319.6" ry="79.9" transform="translate(-219.55 819.73) rotate(-60)"/><path d="M760.18,322.79c18.52,10.69,19.27,49.57,2.13,109.49S712.19,566,669.44,640,579.29,779.51,536,824.31s-77.37,63.59-95.88,52.9S420.82,827.64,438,767.72,488.09,634,530.84,560,621,420.49,664.3,375.69,741.67,312.1,760.18,322.79ZM440.58,876.35C459,887,493,868.28,536.17,823.62s90.44-109.91,133.06-183.73,75.5-147.37,92.58-207.1,16.34-98.49-2.12-109.14-52.4,8.07-95.58,52.73S573.67,486.29,531.05,560.11s-75.5,147.37-92.59,207.1S422.13,865.7,440.58,876.35Z"/><ellipse class="cls-2" cx="600.14" cy="600" rx="79.9" ry="319.6" transform="translate(-94.96 1086.83) rotate(-80)"/><path d="M284.91,544.42c3.71-21,40-35.06,102.15-39.45s142.77,1.38,227,16.22,161.92,37,218.84,62.39,86.21,50.95,82.5,72-40,35.06-102.16,39.45-142.77-1.38-227-16.22-161.91-37-218.83-62.39S281.2,565.47,284.91,544.42Zm629.49,111c3.7-21-25.51-46.48-82.25-71.78S697.93,536.24,614,521.44s-164.3-20.55-226.27-16.18-98.14,18.34-101.84,39.33,25.51,46.48,82.25,71.78,134.21,47.39,218.15,62.19,164.31,20.55,226.28,16.18S910.7,676.4,914.4,655.41Z"/><ellipse class="cls-2" cx="600.14" cy="600" rx="79.9" ry="319.6" transform="translate(-95.07 113.33) rotate(-10)"/><path d="M655.72,915.23c-21.05,3.71-46.62-25.59-72-82.5S536.18,698.1,521.33,613.9s-20.61-164.81-16.22-227,18.39-98.44,39.44-102.15,46.63,25.59,72,82.5S664.1,501.9,679,586.1s20.6,164.81,16.22,227S676.77,911.52,655.72,915.23Zm-111-629.49c-21,3.7-35,39.87-39.33,101.84s1.37,142.33,16.17,226.27S558.46,775.27,583.77,832s50.79,86,71.78,82.25,35-39.87,39.32-101.84S693.5,670.09,678.7,586.15,641.81,424.73,616.51,368,565.71,282,544.73,285.74Z"/><ellipse class="cls-2" cx="600.14" cy="600" rx="319.6" ry="79.9" transform="translate(-219.6 380.45) rotate(-30)"/><path d="M877.35,440c10.68,18.51-8.1,52.57-52.9,95.88S714.19,626.55,640.15,669.3,492.33,745,432.41,762.17s-98.79,16.39-109.48-2.12,8.1-52.57,52.9-95.88,110.25-90.72,184.3-133.47S708,455,767.86,437.83,866.66,421.44,877.35,440ZM323.78,759.55c10.66,18.46,49.42,19.21,109.15,2.12s133.28-50,207.1-92.58S779.09,579.22,823.76,536s63.39-77.13,52.73-95.58-49.41-19.21-109.15-2.12-133.27,50-207.09,92.58S421.18,620.78,376.52,664,313.13,741.1,323.78,759.55Z"/><ellipse class="cls-2" cx="600.14" cy="600" rx="79.9" ry="319.6" transform="translate(-245.25 674.06) rotate(-50)"/><path d="M354.93,394.25c13.74-16.38,52.17-10.37,108.19,16.91s123,72.58,188.46,127.54S773.3,651.7,809.9,702.14s49.18,87.24,35.44,103.61-52.16,10.37-108.19-16.91S614.2,716.26,548.7,661.3,427,548.3,390.38,497.86,341.19,410.62,354.93,394.25ZM844.59,805.12c13.7-16.33,1.15-53-35.34-103.29S716.71,593.68,651.42,538.89,519.4,439,463.55,411.75s-94.16-33.19-107.86-16.87-1.15,53,35.34,103.29,92.53,108.15,157.83,162.94,132,99.94,187.87,127.14S830.89,821.44,844.59,805.12Z"/><ellipse class="cls-2" cx="600.14" cy="600" rx="319.6" ry="79.9" transform="translate(-168.94 958.73) rotate(-70)"/><path d="M490.66,900.79c-20.09-7.31-27.58-45.47-21.11-107.45S495.7,653,524.94,572.63,589.5,419.6,624.38,368s65.15-76.06,85.24-68.75,27.58,45.47,21.1,107.45S704.58,547,675.34,627.37,610.78,780.4,575.9,832,510.75,908.1,490.66,900.79ZM709.28,300.14c-20-7.29-50.2,17.05-85,68.53s-70,124-99.13,204S476.41,731,470,792.74s1,99.83,21,107.12,50.2-17.05,85-68.53,70-124,99.13-204,48.77-158.24,55.22-220S729.3,307.43,709.28,300.14Z"/><ellipse class="cls-2" cx="600.14" cy="600" rx="319.6" ry="79.9"/><path d="M920.23,600c0,21.38-33.29,41.47-93.75,56.59S685.64,680,600.14,680,434.26,671.7,373.8,656.59,280,621.38,280,600s33.3-41.47,93.76-56.58S514.64,520,600.14,520,766,528.3,826.48,543.42,920.23,578.63,920.23,600ZM281,600c0,21.31,33.19,41.34,93.47,56.41s140.4,23.37,225.64,23.37,165.37-8.3,225.64-23.37,93.46-35.1,93.46-56.41-33.19-41.34-93.46-56.41-140.41-23.37-225.64-23.37-165.37,8.3-225.64,23.37S281,578.69,281,600Z"/><ellipse class="cls-2" cx="600.14" cy="600" rx="79.9" ry="319.6" transform="translate(-169.02 241.44) rotate(-20)"/><path d="M490.66,299.21C510.75,291.9,541,316.31,575.9,368s70.19,124.33,99.44,204.67,48.91,158.73,55.38,220.71-1,100.14-21.1,107.45-50.36-17.1-85.24-68.75-70.2-124.33-99.44-204.67S476,468.64,469.55,406.66,470.57,306.52,490.66,299.21ZM709.28,899.86c20-7.29,27.5-45.33,21-107.12s-26.06-139.93-55.22-220-64.35-152.56-99.13-204-65-75.82-85-68.53-27.5,45.33-21,107.12,26.06,139.93,55.21,220,64.36,152.56,99.13,204S689.25,907.15,709.28,899.86Z"/><ellipse class="cls-2" cx="600.14" cy="600" rx="319.6" ry="79.9" transform="translate(-245.27 526.13) rotate(-40)"/><path d="M354.93,805.75c-13.74-16.37-1.15-53.17,35.45-103.61S483.2,593.66,548.7,538.7,681.12,438.45,737.15,411.16s94.45-33.29,108.19-16.91,1.15,53.17-35.44,103.61S717.07,606.34,651.58,661.3,519.15,761.55,463.12,788.84,368.67,822.13,354.93,805.75ZM844.59,394.88c-13.7-16.32-52-10.33-107.86,16.87S614.15,484.1,548.86,538.89,427.51,651.54,391,701.83s-49,87-35.34,103.29,52,10.33,107.86-16.87S586.12,715.9,651.42,661.11,772.77,548.46,809.25,498.17,858.29,411.21,844.59,394.88Z"/><ellipse class="cls-2" cx="600.14" cy="600" rx="79.9" ry="319.6" transform="translate(-219.55 819.73) rotate(-60)"/><path d="M877.35,760.05c-10.69,18.51-49.57,19.26-109.49,2.12S634.17,712.05,560.13,669.3s-139.5-90.15-184.3-133.47-63.59-77.37-52.9-95.88,49.57-19.26,109.48-2.12S566.1,488,640.15,530.7s139.5,90.15,184.3,133.47S888,741.54,877.35,760.05ZM323.78,440.45c-10.65,18.45,8.08,52.4,52.74,95.58s109.91,90.44,183.73,133.06,147.36,75.5,207.09,92.58,98.5,16.34,109.15-2.12-8.07-52.4-52.73-95.58S713.84,573.53,640,530.91s-147.37-75.5-207.1-92.58S334.44,422,323.78,440.45Z"/><ellipse class="cls-2" cx="600.14" cy="600" rx="319.6" ry="79.9" transform="translate(-94.96 1086.83) rotate(-80)"/><path d="M655.72,284.77c21,3.71,35.06,40,39.45,102.15S693.79,529.7,679,613.9s-37,161.91-62.39,218.83-51,86.21-72,82.5-35-40-39.44-102.15,1.37-142.78,16.22-227,37-161.91,62.39-218.83S634.67,281.06,655.72,284.77Zm-111,629.49c21,3.7,46.47-25.51,71.78-82.25S663.9,697.79,678.7,613.85s20.55-164.3,16.17-226.27-18.33-98.14-39.32-101.84S609.07,311.25,583.77,368s-47.4,134.22-62.2,218.16S501,750.45,505.4,812.42,523.74,910.56,544.73,914.26Z"/><ellipse class="cls-2" cx="600.14" cy="600" rx="319.6" ry="79.9" transform="translate(-95.07 113.33) rotate(-10)"/><path d="M284.91,655.58c-3.71-21.05,25.59-46.62,82.5-72S502,536,586.24,521.19s164.81-20.61,227-16.22,98.45,18.4,102.16,39.45-25.59,46.62-82.5,72S698.23,664,614,678.81s-164.8,20.61-227,16.22S288.62,676.63,284.91,655.58Zm629.49-111c-3.7-21-39.87-35-101.84-39.33s-142.33,1.37-226.28,16.18-161.41,36.88-218.15,62.19-85.95,50.8-82.25,71.78,39.87,35,101.84,39.33S530.05,693.37,614,678.56s161.42-36.88,218.16-62.19S918.1,565.57,914.4,544.59Z"/><ellipse class="cls-2" cx="600.14" cy="600" rx="79.9" ry="319.6" transform="translate(-219.6 380.45) rotate(-30)"/><path d="M760.18,877.21c-18.51,10.69-52.56-8.1-95.88-52.9S573.59,714.06,530.84,640,455.1,492.19,438,432.28s-16.38-98.8,2.13-109.49,52.56,8.1,95.88,52.9S626.69,485.94,669.44,560s75.73,147.82,92.87,207.73S778.7,866.52,760.18,877.21ZM440.58,323.65c-18.45,10.65-19.2,49.41-2.12,109.14s50,133.28,92.59,207.1S620.92,779,664.11,823.62s77.13,63.39,95.58,52.73,19.21-49.41,2.12-109.14-50-133.28-92.58-207.1S579.35,421,536.17,376.38,459,313,440.58,323.65Z"/><ellipse class="cls-2" cx="600.14" cy="600" rx="319.6" ry="79.9" transform="translate(-245.25 674.06) rotate(-50)"/><path d="M805.89,354.79C822.26,368.53,816.26,407,789,463s-72.57,123-127.53,188.45S548.44,773.16,498,809.76,410.76,859,394.39,845.21,384,793,411.3,737s72.58-123,127.54-188.45,113-121.72,163.44-158.32S789.52,341.06,805.89,354.79ZM395,844.45c16.32,13.7,53,1.15,103.29-35.34s108.15-92.54,162.94-157.83,99.94-132,127.14-187.87,33.19-94.16,16.87-107.86-53-1.15-103.29,35.34S593.81,483.43,539,548.72s-99.95,132-127.15,187.87S378.7,830.75,395,844.45Z"/><ellipse class="cls-2" cx="600.14" cy="600" rx="79.9" ry="319.6" transform="translate(-168.94 958.73) rotate(-70)"/><path d="M299.35,490.52c7.31-20.08,45.47-27.58,107.45-21.11s140.36,26.15,220.71,55.39,153,64.56,204.67,99.44,76.06,65.15,68.75,85.24-45.47,27.58-107.46,21.11-140.36-26.15-220.7-55.39-153-64.56-204.68-99.44S292,510.61,299.35,490.52ZM900,709.14c7.29-20-17-50.2-68.53-85s-124-70-204.05-99.14-158.23-48.76-220-55.21-99.84,1-107.12,21,17.05,50.2,68.53,85,124,70,204,99.14,158.24,48.76,220,55.21S892.71,729.17,900,709.14Z"/><ellipse class="cls-2" cx="600.14" cy="600" rx="79.9" ry="319.6"/><path d="M600.14,920.09c-21.38,0-41.47-33.29-56.59-93.75S520.11,685.5,520.11,600s8.33-165.88,23.44-226.34,35.21-93.75,56.59-93.75,41.47,33.29,56.58,93.75S680.16,514.5,680.16,600s-8.32,165.88-23.44,226.34S621.51,920.09,600.14,920.09Zm0-639.2c-21.31,0-41.34,33.2-56.41,93.47S520.36,514.76,520.36,600s8.3,165.37,23.37,225.64,35.1,93.47,56.41,93.47,41.34-33.2,56.41-93.47S679.91,685.24,679.91,600s-8.29-165.37-23.36-225.64S621.45,280.89,600.14,280.89Z"/><circle class="cls-1" cx="600.14" cy="600" r="284.09"/><path d="M600.14,885.57a285.56,285.56,0,1,1,201.93-83.64A283.73,283.73,0,0,1,600.14,885.57Zm0-568.18A282.63,282.63,0,1,0,800,400.17,280.77,280.77,0,0,0,600.14,317.39Z"/><path d="M600.14,921.08a321.07,321.07,0,1,1,227-94A319,319,0,0,1,600.14,921.08Zm0-639.2a318.14,318.14,0,1,0,224.94,93.18A316,316,0,0,0,600.14,281.88Z"/><path d="M599.64,871.27a271.28,271.28,0,1,1,191.82-79.46A269.49,269.49,0,0,1,599.64,871.27Zm0-532.67a261.41,261.41,0,1,0,184.84,76.56A259.68,259.68,0,0,0,599.64,338.6Z"/><text class="cls-3" transform="matrix(0.89, -0.45, 0.45, 0.89, 419.5, 293.23)">C</text><text class="cls-3" transform="translate(461.54 271.73) rotate(-18.34)">H</text><text class="cls-3" transform="translate(514.61 254.46) rotate(-10.07)">A</text><text class="cls-3" transform="translate(560.21 245.8) rotate(-1.49)">M</text><text class="cls-3" transform="translate(620.04 244.83) rotate(6.49)">P</text><text class="cls-3" transform="matrix(0.98, 0.2, -0.2, 0.98, 660.01, 249.67)">I</text><text class="cls-3" transform="translate(685.25 254.08) rotate(18.17)">O</text><text class="cls-3" transform="matrix(0.89, 0.45, -0.45, 0.89, 735.19, 270.38)">N</text><text class="cls-3" transform="matrix(0.62, 0.78, -0.78, 0.62, 273.17, 830.81)">T</text><text class="cls-3" transform="matrix(0.72, 0.7, -0.7, 0.72, 305.11, 870.33)">R</text><text class="cls-3" transform="matrix(0.8, 0.6, -0.6, 0.8, 340.86, 905.14)">O</text><text class="cls-3" transform="translate(387.76 939.07) rotate(29.13)">P</text><text class="cls-3" transform="translate(427.1 961.29) rotate(21.57)">H</text><text class="cls-3" transform="translate(482.98 982.28) rotate(15.11)">I</text><text class="cls-3" transform="translate(511.04 990.08) rotate(9.84)">E</text><text class="cls-3" transform="matrix(1, 0.07, -0.07, 1, 556, 997.48)">S</text><text class="cls-3" transform="matrix(1, 0.02, -0.02, 1, 593.5, 999.39)"> </text><text class="cls-3" transform="translate(608.78 1000.32) rotate(-5.06)">&amp;</text><text class="cls-3" transform="matrix(0.98, -0.18, 0.18, 0.98, 665.4, 994.25)"> </text><text class="cls-3" transform="translate(680.78 992.06) rotate(-14.94)">A</text><text class="cls-3" transform="translate(722.75 981.84) rotate(-22.66)">W</text><text class="cls-3" transform="matrix(0.86, -0.51, 0.51, 0.86, 781.9, 956.62)">A</text><text class="cls-3" transform="matrix(0.79, -0.61, 0.61, 0.79, 825.72, 930.55)">R</text><text class="cls-3" transform="translate(865.49 899.8) rotate(-45.28)">D</text><text class="cls-3" transform="matrix(0.61, -0.79, 0.79, 0.61, 904.94, 858.87)">S</text><path class="cls-4" d="M668.43,596.48c5.85-21.35.33-45.8,15.89-82.82A168.63,168.63,0,0,1,694,494.27V494a677.91,677.91,0,0,0-94.19-6.44h.8A677.91,677.91,0,0,0,506.39,494v.3A170.3,170.3,0,0,1,516,513.66c15.56,37,10,61.47,15.89,82.82.81,3,3.25,6.72,6.75,10.9,31.89,38.06,91.11,38.06,123,0C665.18,603.2,667.62,599.46,668.43,596.48Z"/><path class="cls-4" d="M636.49,635.58c-18.83,38.06-53.79,38.06-72.62,0,9.87,3.23,21.32,9.69,36.94,9.37C614.25,644.66,627.52,638.51,636.49,635.58Z"/><path d="M599.78,446.69l.44.22.44-.22Z"/><polygon class="cls-5" points="600.22 447.46 597.7 446.2 602.73 446.2 600.22 447.46"/><path class="cls-4" d="M598.9,480.17a634.48,634.48,0,0,1,95.16,7.05A115.73,115.73,0,0,0,614.76,452a15.9,15.9,0,0,1-30,0,115.73,115.73,0,0,0-79.31,35.24,634.51,634.51,0,0,1,95.17-7.05"/><path class="cls-4" d="M495.17,495.15c-3.38,0-16.29-.27-26.68-9.69-3.3-3-8.38-7.6-10-14.9-1.06-4.72-1.53-6.07-1.84-8.89-.26-2.45-18.7,0-18.7,0s-.25,1.63-.66,5.46-.81,7.66-1,11.48a160.69,160.69,0,0,0,0,22.7,80.26,80.26,0,0,0,4.18,21.3,49.65,49.65,0,0,0,10.95,15.95c11.71,11.47,23.92,11.12,34.66,15.63,7.47,3.14,16.15,9.44,24,22.83a3.93,3.93,0,0,1-6,4.93l-.14-.12c-2.86-2.46-14.29-11.31-17.27-13.2-5.9-3.92-12.41-6.47-19.78-8.63-3.69-1.11-7.62-2.17-11.73-3.69A47.63,47.63,0,0,1,443,549.84a41.38,41.38,0,0,1-9.67-10.29,53.91,53.91,0,0,1-6.05-12.1,93.67,93.67,0,0,1-5-25,173.37,173.37,0,0,1,0-24.65c.16-4.09.67-8.09,1-12.13s1-8,1.51-12l.75-6h45.36a56.17,56.17,0,0,0,24.31,47.58Z"/><path class="cls-4" d="M705.54,494.27c3.38,0,16.29-.27,26.68-9.69,3.29-3,8.38-7.6,10-14.9,1.07-4.72,1.54-6.07,1.84-8.89.27-2.45,18.71,0,18.71,0s.25,1.62.66,5.46.81,7.66.95,11.48a160.69,160.69,0,0,1,0,22.7,79.79,79.79,0,0,1-4.18,21.29,49.26,49.26,0,0,1-10.94,16c-11.72,11.47-23.92,11.11-34.66,15.63-7.48,3.14-16.16,9.44-24,22.83a3.93,3.93,0,0,0,6,4.93l.14-.12c2.85-2.46,14.29-11.31,17.27-13.2,5.9-3.92,12.4-6.47,19.78-8.63,3.68-1.11,7.61-2.17,11.73-3.69A47.42,47.42,0,0,0,757.72,549a41.38,41.38,0,0,0,9.67-10.29,54.12,54.12,0,0,0,6.05-12.1,93.69,93.69,0,0,0,5-25.05,174.71,174.71,0,0,0,0-24.64c-.15-4.09-.66-8.09-1-12.14s-1-8-1.5-12l-.75-6H729.84a56.13,56.13,0,0,1-24.3,47.58Z"/><path class="cls-4" d="M623.59,668.75a32.61,32.61,0,1,1-44.37,0,49.24,49.24,0,0,0,44.37,0Z"/><path class="cls-4" d="M662.54,743.63a94.58,94.58,0,0,1-2.92-31.72H641.11c-5.65,13.84-21.2,23.79-39.54,23.79s-33.9-10-39.55-23.79H543.51a96.09,96.09,0,0,1-2.18,28.2,113,113,0,0,1-15.52,36.11H677.32A112.13,112.13,0,0,1,662.54,743.63Z"/><path class="cls-1" d="M525,510a128.27,128.27,0,0,1,6.36,13c7.5,17.84,8.53,31.6,9.45,43.74.51,6.89,1,12.84,2.53,18.56.52,1.89,2.12,4.45,4.77,7.61a58,58,0,0,0,15.7,13.15c4.89-57.7-7.52-92.82-10-99.11C544.26,507.68,534.58,508.7,525,510Z"/><path class="cls-4" d="M578.16,423.37A14.24,14.24,0,0,1,587,437a12.78,12.78,0,1,0,25.55,0,16.46,16.46,0,0,1,10-13.63Z"/><path class="cls-4" d="M611.14,398.06a17.78,17.78,0,0,1-8.23-10.62l-3-10.4h-.24l-3.22,11.08a18.2,18.2,0,0,1-7.74,10.45,22.18,22.18,0,0,0-10.52,18.88h44.39A22.16,22.16,0,0,0,611.14,398.06Z"/><path d="M507.28,803.65v42.69a267.17,267.17,0,0,0,188.57,0V803.65a17.76,17.76,0,0,0-17.76-17.75H525A17.76,17.76,0,0,0,507.28,803.65Z"/><path d="M304.73,366.29a5.36,5.36,0,0,0,3.35.23c4.13-1.08,5.95-7,4.23-13.75a3,3,0,0,0-.09-.35c-2.08-5.91-9.32-15.49-9.63-15.89L299.17,332l-1,5.59c-.08.46-1.94,11.37-.62,18.66h0c0,.1.05.24.08.34h0C299,361.52,301.73,365.12,304.73,366.29Zm2.11-4.54c-.65.17-3.17-1.78-4.42-6.44h0a44.34,44.34,0,0,1-.12-10.69,51.38,51.38,0,0,1,5.23,9.32m-5.11,1.37L300,356l2.35-.75A.9.9,0,0,0,302.42,355.32Zm0,.08h0Z"/><path d="M310.51,371.16a16.28,16.28,0,0,0,9.81.1h0l.32-.09h0c7-2.49,15.51-9.54,15.87-9.84l4.37-3.62-5.63-.72c-.5-.06-12.41-1.57-18.57-.43l-.38.1c-6.69,1.87-10.91,6.39-9.79,10.51A6.15,6.15,0,0,0,310.51,371.16Zm8.56-4.67c-4.7,1.23-7.62,0-7.79-.62s1.75-3.18,6.39-4.47h0a51.24,51.24,0,0,1,10.68-.1A44.47,44.47,0,0,1,319.07,366.49Zm-1.48-5.08h0Zm.21-.05h0Z"/><path d="M340.34,329.78l-5.47,5.16c-1.82,1.72-3.67,3.43-5.41,5.23-3.51,3.58-7.06,7.13-10.4,10.88-1.69,1.86-3.41,3.69-5.08,5.57l-4.9,5.72-2.45,2.87c-.81,1-1.58,2-2.37,2.93L299.55,374a359.11,359.11,0,0,0-32.76,50.65L265,428c-.59,1.11-1.14,2.25-1.7,3.37l-3.38,6.76-.84,1.7-.78,1.72L256.73,445l-3.1,6.9-2.87,7c-1,2.33-1.95,4.65-2.8,7-1.72,4.74-3.59,9.43-5.11,14.24l-2.38,7.17c-.76,2.41-1.42,4.84-2.14,7.26s-1.45,4.83-2.07,7.27l-1.81,7.35c-1.19,4.9-2.5,9.77-3.36,14.74l-1.46,7.43c-.46,2.48-1,4.94-1.34,7.44a359.41,359.41,0,0,0,15.94,178.79l2.54,7.1c.4,1.19.89,2.35,1.37,3.51l1.43,3.48,2.87,7c.48,1.16.94,2.33,1.44,3.48l1.59,3.42,3.18,6.82,1.59,3.42.79,1.7.88,1.67,7,13.29-6.37-13.62-.8-1.69-.74-1.73L259.59,752,256.67,745l-1.45-3.46c-.46-1.16-.88-2.34-1.31-3.51l-2.6-7L250,727.5c-.44-1.17-.88-2.34-1.24-3.54l-2.26-7.14a392.58,392.58,0,0,1-13.84-58.19,382.18,382.18,0,0,1-4.39-59.56l0-7.47c0-1.24.05-2.49.11-3.73l.19-3.73.37-7.46.18-3.73c.09-1.24.23-2.48.35-3.72.49-5,.93-9.91,1.48-14.86l2.15-14.78c6.55-39.26,18.75-77.68,37-113.14l3.44-6.64c1.17-2.21,2.43-4.36,3.64-6.54s2.4-4.37,3.71-6.49l3.86-6.41,1.94-3.2,2-3.14,4.08-6.28c1.37-2.09,2.84-4.11,4.26-6.16s2.82-4.12,4.33-6.12l4.46-6c.75-1,1.48-2,2.25-3l2.33-2.93,4.66-5.88c1.59-1.93,3.24-3.81,4.85-5.72C326.49,344.27,333.37,337,340.34,329.78Z"/><circle cx="232.19" cy="531.54" r="8.88"/><circle class="cls-6" cx="232.19" cy="531.54" r="4.44"/><path d="M235.34,493.06a6,6,0,0,0,3.73-.13c4.49-1.71,5.77-8.67,3-16.19a2.7,2.7,0,0,0-.15-.38c-3.16-6.62-12.87-16.95-13.28-17.39l-3.89-4.13-.37,5.67c0,.55-.83,13.58,1.62,21.94,0,.09.08.24.13.35h0C228.23,488.3,231.81,492.11,235.34,493.06Zm2.06-14.65,0,0c2,5.34,1.06,9.42-.11,9.86s-4.56-2-6.62-7.3l0-.05c-1.19-4.13-1.5-9.73-1.53-14C232.07,470.41,235.77,475.05,237.4,478.41Z"/><path d="M246.84,496.17c3.54.95,8.55-.54,13.16-4.22h0l.28-.24h0c6.33-6,12.2-17.65,12.44-18.15l2.54-5.07-5.44,1.61c-.58.17-14.16,4.21-20.25,8.35a2.5,2.5,0,0,0-.33.26c-6.18,5.07-8.57,11.73-5.55,15.46A6,6,0,0,0,246.84,496.17ZM257,488.06l0,0c-4.45,3.56-8.61,3.94-9.39,3s.47-5,4.86-8.57l.05,0c3.12-2.09,8.64-4.24,12.89-5.72C263.16,480.41,260.07,485.1,257,488.06Zm-4.6-5.54,0,0Zm.15-.12Z"/><path d="M253.49,446.59a6,6,0,0,0,3.73.14c4.61-1.37,6.39-8.22,4.15-15.92a2.88,2.88,0,0,0-.12-.4c-2.67-6.83-11.59-17.84-12-18.31l-3.58-4.4-.78,5.62c-.07.54-1.83,13.48,0,22,0,.1.07.25.11.36h0C246.75,441.32,250,445.38,253.49,446.59Zm3.14-14.45v0c1.58,5.48.36,9.48-.83,9.83s-4.4-2.32-6.07-7.76l0-.06c-.88-4.2-.77-9.81-.5-14.05C251.9,423.76,255.24,428.66,256.63,432.14Z"/><path d="M262.47,452c3.31,1.17,8.14.46,13-2.16h0l.32-.19h0c7.27-4.8,15.07-15.27,15.4-15.71l3.38-4.56-5.64.64c-.59.07-14.67,1.69-21.39,4.72a2.58,2.58,0,0,0-.37.19c-7,3.93-10.48,10.07-8.15,14.27A6.14,6.14,0,0,0,262.47,452Zm10.64-6.51,0,0c-5,2.72-9.17,2.39-9.77,1.3s1.32-4.8,6.28-7.6l.05,0c3.42-1.52,9.24-2.67,13.69-3.4C280.54,439,276.68,443.08,273.11,445.46Zm-.09.05h0Zm0,0h0Zm-3.51-6.31h0Zm.18-.09Z"/><path d="M276.53,402.79a5.54,5.54,0,0,0,3.5.21c4.32-1.19,6.14-7.46,4.23-14.59a2.93,2.93,0,0,0-.1-.37c-2.3-6.28-10.17-16.43-10.5-16.86l-3.48-4.48-.9,5.6c-.08.5-1.93,12.19-.43,20v0l.09.33h0C270.41,397.82,273.36,401.61,276.53,402.79Zm-2.86-11.57a49.31,49.31,0,0,1-.22-12c2.26,3.25,4.92,7.42,6,10.39l0,.1c1.32,5,0,8.28-.8,8.5s-3.61-1.93-5-7"/><path d="M285.84,407.44a17.27,17.27,0,0,0,10.42,0h0l.34-.1h0c7.42-2.75,16.46-10.4,16.84-10.72l4.32-3.67-5.63-.66c-.54-.06-13.3-1.52-19.87-.22l-.38.1c-7.07,2.07-11.49,6.88-10.26,11.18A6.4,6.4,0,0,0,285.84,407.44Zm9.1-4.77c-5,1.4-8.34.14-8.58-.69s1.9-3.64,6.93-5.11h0c3.11-.59,8.06-.47,12-.22a49.56,49.56,0,0,1-10.36,6m-1.55-5.83h0Z"/><path d="M197.68,597.21l5.17-2.34c.54-.25,13.44-6.13,18.9-11.08a2.76,2.76,0,0,0,.29-.3c5.41-5.88,6.87-12.8,3.35-16.08s-10.32-1.37-15.84,4.45h0l-.24.27h0c-5.44,6.81-9.63,19.17-9.81,19.69Zm20.67-17c-2.79,2.5-8,5.39-12,7.45,1.64-3.93,4.05-9,6.71-12.36l0,0c3.92-4.13,8-5.1,8.9-4.25s.22,5-3.64,9.16Zm-.06.07Zm.16-.16,0,0Z"/><path d="M249.63,603.74l-.43-5.66c0-.55-1-13.57-4.63-21.51h0a3.69,3.69,0,0,0-.18-.33h0c-3.91-7-10-10.55-14.25-8.24s-4.52,9.34-.75,16.37l0,.08a2.48,2.48,0,0,0,.19.34c4.06,6.13,15.1,15,15.57,15.4Zm-9.51-25c1.74,3.92,2.82,9.43,3.45,13.63-3.38-3-7.68-7.07-9.76-10.17l0-.06c-2.7-5-2.35-9.17-1.26-9.77s4.8,1.34,7.57,6.31Zm-.05-.1Z"/><path d="M200.12,648.35l4.91-2.84c.52-.3,12.78-7.42,17.73-12.88a3.15,3.15,0,0,0,.24-.3c4.83-6.4,5.6-13.44,1.78-16.36s-10.4-.35-15.33,6h0l-.22.3h0c-4.75,7.3-7.71,20-7.84,20.56ZM219,629.41c-2.52,2.75-7.39,6.13-11.18,8.58,1.25-4.07,3.15-9.36,5.47-13l0,0c3.49-4.5,7.44-5.86,8.43-5.1s.71,4.88-2.66,9.39Zm-.05.08h0Zm-5.59-4.57Z"/><path d="M253.46,645.49,251.93,640c-.15-.53-3.72-13.09-8.8-20.16a3.36,3.36,0,0,0-.24-.29h0c-5.21-6.1-11.92-8.36-15.59-5.26s-2.58,10.09,2.55,16.26l.24.28c5.22,5.23,17.8,11.75,18.33,12Zm-14.27-22.66c2.48,3.5,4.63,8.68,6.07,12.68-3.9-2.26-8.92-5.41-11.58-8v0c-3.66-4.4-4.14-8.56-3.19-9.36s5,.37,8.67,4.69Zm-.07-.09Z"/><path d="M210.49,697.61l4.65-3.25c.44-.31,11-7.7,15-13l.2-.31c3.92-6.26,4-12.79.26-15.19s-9.65.45-13.66,6.66h0a3.23,3.23,0,0,0-.18.28v0c-3.72,7-5.4,18.71-5.47,19.2Zm15.65-19.17c-1.94,2.51-5.71,5.7-8.83,8.14a49.18,49.18,0,0,1,3.75-11.38l0,0c2.84-4.4,6.13-5.64,6.87-5.18s1,4-1.76,8.37Zm0,.08h0Z"/><path d="M263.69,686.57l-3.05-4.79c-.27-.42-6.66-10.39-12.94-15.2h0a2.11,2.11,0,0,0-.29-.2h0c-6.22-4-12.75-4.16-15.19-.4s.36,9.65,6.52,13.72h0a3,3,0,0,0,.34.21c5.86,3.16,18.49,5.52,19,5.62Zm-18.9-16a49,49,0,0,1,8.12,8.8c-3.85-.93-8.61-2.27-11.42-3.76l-.11-.07c-4.29-2.83-5.5-6.15-5-6.87s4-.95,8.4,1.87Zm-.1-.08Z"/><path d="M229.77,747.65l4.4-3.58c.4-.32,9.69-7.91,13.11-13.16l.18-.32c3.27-6.16,2.9-12.33-.85-14.36s-9.13,1.06-12.48,7.18h0a2.52,2.52,0,0,0-.15.27v0c-3,6.77-3.78,17.81-3.81,18.27Zm13.31-19.32a51.74,51.74,0,0,1-7.28,7.8,45,45,0,0,1,2.63-10.32l0,0c2.32-4.23,5.22-5.52,5.81-5.21s1.09,3.43-1.13,7.66Zm-.05.09h0Z"/><path d="M276.39,732.56,273,728c-.28-.38-6.91-9.24-13.09-13.32l-.31-.17h0c-6.13-3.33-12.31-3-14.37.71s1,9.13,7,12.55l.3.16c5.74,2.58,17.66,3.93,18.16,4Zm-19.13-13.71a45,45,0,0,1,7.83,7.28,50.57,50.57,0,0,1-10.36-2.64h0c-4.21-2.36-5.48-5.28-5.16-5.86s3.47-1.06,7.71,1.24Zm1.18-2.16-1.05,2.23-.13-.07Z"/><path d="M895.27,366.29a5.36,5.36,0,0,1-3.35.23c-4.13-1.08-5.95-7-4.23-13.75a3,3,0,0,1,.09-.35c2.08-5.91,9.32-15.49,9.63-15.89l3.42-4.52,1,5.59c.08.46,1.94,11.37.62,18.66h0c0,.1,0,.24-.08.34h0C901,361.52,898.27,365.12,895.27,366.29ZM892.45,354c-1.16,4.64.07,7.54.71,7.71s3.17-1.78,4.42-6.44h0a44.34,44.34,0,0,0,.12-10.69,51.38,51.38,0,0,0-5.23,9.32Zm5.13,1.28L900,356l-2.35-.75A.9.9,0,0,1,897.58,355.32Zm0,.08h0Z"/><path d="M889.49,371.16a16.28,16.28,0,0,1-9.81.1h0l-.32-.09h0c-7-2.49-15.51-9.54-15.87-9.84l-4.37-3.62,5.63-.72c.5-.06,12.41-1.57,18.57-.43l.38.1c6.69,1.87,10.91,6.39,9.79,10.51A6.15,6.15,0,0,1,889.49,371.16Zm-8.56-4.67c4.7,1.23,7.62,0,7.79-.62s-1.75-3.18-6.39-4.47h0a51.24,51.24,0,0,0-10.68-.1A44.47,44.47,0,0,0,880.93,366.49Zm1.48-5.08h0Zm-.21-.05h0Z"/><path d="M859.66,329.78l5.47,5.16c1.82,1.72,3.67,3.43,5.41,5.23,3.51,3.58,7.06,7.13,10.4,10.88,1.69,1.86,3.41,3.69,5.08,5.57l4.9,5.72,2.45,2.87c.81,1,1.58,2,2.37,2.93l4.71,5.89a359.11,359.11,0,0,1,32.76,50.65L935,428c.59,1.11,1.14,2.25,1.7,3.37l3.38,6.76.84,1.7.78,1.72,1.56,3.44,3.1,6.9,2.87,7c1,2.33,2,4.65,2.8,7,1.72,4.74,3.59,9.43,5.11,14.24l2.38,7.17c.76,2.41,1.42,4.84,2.14,7.26s1.45,4.83,2.07,7.27l1.81,7.35c1.19,4.9,2.5,9.77,3.36,14.74l1.46,7.43c.46,2.48,1,4.94,1.34,7.44a359.41,359.41,0,0,1-15.94,178.79l-2.54,7.1c-.4,1.19-.89,2.35-1.37,3.51l-1.43,3.48-2.87,7c-.48,1.16-.94,2.33-1.44,3.48l-1.59,3.42-3.18,6.82-1.59,3.42-.79,1.7-.88,1.67-7,13.29,6.37-13.62.8-1.69.74-1.73,1.45-3.46,2.92-6.92,1.45-3.46c.46-1.16.88-2.34,1.31-3.51l2.6-7L950,727.5c.44-1.17.88-2.34,1.24-3.54l2.26-7.14a392.58,392.58,0,0,0,13.84-58.19,382.18,382.18,0,0,0,4.39-59.56l0-7.47c0-1.24,0-2.49-.11-3.73l-.19-3.73-.37-7.46-.18-3.73c-.09-1.24-.23-2.48-.35-3.72-.49-5-.93-9.91-1.48-14.86l-2.15-14.78c-6.55-39.26-18.75-77.68-37-113.14l-3.44-6.64c-1.17-2.21-2.43-4.36-3.64-6.54s-2.4-4.37-3.71-6.49l-3.86-6.41-1.94-3.2-2-3.14-4.08-6.28c-1.37-2.09-2.84-4.11-4.26-6.16s-2.82-4.12-4.33-6.12l-4.46-6c-.75-1-1.48-2-2.25-3l-2.33-2.93-4.66-5.88c-1.59-1.93-3.24-3.81-4.85-5.72C873.51,344.27,866.63,337,859.66,329.78Z"/><circle cx="967.81" cy="531.54" r="8.88"/><circle class="cls-6" cx="967.81" cy="531.54" r="4.44"/><path d="M964.66,493.06a6,6,0,0,1-3.73-.13c-4.49-1.71-5.77-8.67-3-16.19a2.7,2.7,0,0,1,.15-.38c3.16-6.62,12.87-16.95,13.28-17.39l3.89-4.13.37,5.67c0,.55.83,13.58-1.62,21.94,0,.09-.08.24-.13.35h0C971.77,488.3,968.19,492.11,964.66,493.06Zm-2.06-14.65,0,0c-2,5.34-1.06,9.42.11,9.86s4.56-2,6.62-7.3l0-.05c1.19-4.13,1.5-9.73,1.53-14C967.93,470.41,964.23,475.05,962.6,478.41Z"/><path d="M953.16,496.17c-3.54.95-8.55-.54-13.16-4.22h0c-.08-.07-.21-.17-.28-.24h0c-6.33-6-12.2-17.65-12.44-18.15l-2.54-5.07,5.44,1.61c.58.17,14.16,4.21,20.25,8.35a2.5,2.5,0,0,1,.33.26c6.18,5.07,8.57,11.73,5.55,15.46A6,6,0,0,1,953.16,496.17ZM943,488.06l0,0c4.45,3.56,8.61,3.94,9.39,3s-.47-5-4.86-8.57l-.05,0c-3.12-2.09-8.64-4.24-12.89-5.72C936.84,480.41,939.93,485.1,943,488.06Zm4.6-5.54,0,0Zm-.15-.12Z"/><path d="M946.51,446.59a6,6,0,0,1-3.73.14c-4.61-1.37-6.39-8.22-4.15-15.92a2.88,2.88,0,0,1,.12-.4c2.67-6.83,11.59-17.84,12-18.31l3.58-4.4.78,5.62c.07.54,1.83,13.48,0,22,0,.1-.07.25-.11.36h0C953.25,441.32,950,445.38,946.51,446.59Zm-3.14-14.45v0c-1.58,5.48-.36,9.48.83,9.83s4.4-2.32,6.07-7.76l0-.06c.88-4.2.77-9.81.5-14.05C948.1,423.76,944.76,428.66,943.37,432.14Z"/><path d="M937.53,452c-3.31,1.17-8.14.46-13-2.16h0l-.32-.19h0c-7.27-4.8-15.07-15.27-15.4-15.71l-3.38-4.56,5.64.64c.59.07,14.67,1.69,21.39,4.72a2.58,2.58,0,0,1,.37.19c7,3.93,10.48,10.07,8.15,14.27A6.14,6.14,0,0,1,937.53,452Zm-10.64-6.51,0,0c5,2.72,9.17,2.39,9.77,1.3s-1.32-4.8-6.28-7.6l0,0c-3.42-1.52-9.24-2.67-13.69-3.4C919.46,439,923.32,443.08,926.89,445.46Zm.09.05h0Zm0,0h0Zm3.51-6.31h0Zm-.18-.09Z"/><path d="M923.47,402.79a5.54,5.54,0,0,1-3.5.21c-4.32-1.19-6.14-7.46-4.23-14.59a2.93,2.93,0,0,1,.1-.37c2.3-6.28,10.17-16.43,10.5-16.86l3.48-4.48.9,5.6c.08.5,1.93,12.19.43,20v0c0,.08-.06.23-.09.33h0C929.59,397.82,926.64,401.61,923.47,402.79Zm-3-13.05c-1.32,5,0,8.28.8,8.5s3.61-1.93,5-7l0,0a49.31,49.31,0,0,0,.22-12c-2.26,3.25-4.92,7.42-6,10.39Z"/><path d="M914.16,407.44a17.27,17.27,0,0,1-10.42,0h0l-.34-.1h0c-7.42-2.75-16.46-10.4-16.84-10.72l-4.32-3.67,5.63-.66c.54-.06,13.3-1.52,19.87-.22l.38.1c7.07,2.07,11.49,6.88,10.26,11.18A6.4,6.4,0,0,1,914.16,407.44ZM905,402.66h0c5,1.4,8.34.14,8.58-.69s-1.9-3.64-6.93-5.11h0c-3.11-.59-8.06-.47-12-.22A49.56,49.56,0,0,0,905,402.66Zm1.55-5.83h0Z"/><path d="M1002.32,597.21l-5.17-2.34c-.54-.25-13.44-6.13-18.9-11.08a2.76,2.76,0,0,1-.29-.3c-5.41-5.88-6.87-12.8-3.35-16.08s10.32-1.37,15.84,4.45h0l.24.27h0c5.44,6.81,9.63,19.17,9.81,19.69Zm-20.67-17c2.79,2.5,8,5.39,12,7.45-1.64-3.93-4-9-6.71-12.36l0,0c-3.92-4.13-8-5.1-8.9-4.25s-.22,5,3.64,9.16Zm.06.07Zm-.16-.16,0,0Z"/><path d="M950.37,603.74l.43-5.66c0-.55,1.05-13.57,4.63-21.51h0a3.69,3.69,0,0,1,.18-.33h0c3.91-7,10-10.55,14.25-8.24s4.52,9.34.75,16.37l0,.08a2.48,2.48,0,0,1-.19.34c-4.06,6.13-15.1,15-15.57,15.4Zm9.51-25c-1.74,3.92-2.82,9.43-3.45,13.63,3.38-3,7.68-7.07,9.76-10.17l0-.06c2.7-5,2.35-9.17,1.26-9.77s-4.8,1.34-7.57,6.31Zm0-.1Z"/><path d="M999.88,648.35,995,645.51c-.52-.3-12.78-7.42-17.73-12.88a3.15,3.15,0,0,1-.24-.3c-4.83-6.4-5.6-13.44-1.78-16.36s10.4-.35,15.33,6h0l.22.3h0c4.75,7.3,7.71,20,7.84,20.56ZM981,629.41c2.52,2.75,7.39,6.13,11.18,8.58-1.25-4.07-3.15-9.36-5.47-13l0,0c-3.49-4.5-7.44-5.86-8.43-5.1s-.71,4.88,2.66,9.39Zm0,.08h0Zm5.59-4.57Z"/><path d="M946.54,645.49l1.53-5.46c.15-.53,3.72-13.09,8.8-20.16a3.36,3.36,0,0,1,.24-.29h0c5.21-6.1,11.92-8.36,15.59-5.26s2.58,10.09-2.55,16.26l-.24.28c-5.22,5.23-17.8,11.75-18.33,12Zm14.27-22.66c-2.48,3.5-4.63,8.68-6.07,12.68,3.9-2.26,8.92-5.41,11.58-8v0c3.66-4.4,4.14-8.56,3.19-9.36s-5,.37-8.67,4.69Zm.07-.09Z"/><path d="M989.51,697.61l-4.65-3.25c-.44-.31-11-7.7-15-13l-.2-.31c-3.92-6.26-4-12.79-.26-15.19s9.65.45,13.66,6.66h0a3.23,3.23,0,0,1,.18.28v0c3.72,7,5.4,18.71,5.47,19.2Zm-15.65-19.17c1.94,2.51,5.71,5.7,8.83,8.14a49.18,49.18,0,0,0-3.75-11.38l0,0c-2.84-4.4-6.13-5.64-6.87-5.18s-1,4,1.76,8.37Zm0,.08h0Z"/><path d="M936.31,686.57l3.05-4.79c.27-.42,6.66-10.39,12.94-15.2h0a2.11,2.11,0,0,1,.29-.2h0c6.22-4,12.75-4.16,15.19-.4s-.36,9.65-6.52,13.72h0a3,3,0,0,1-.34.21c-5.86,3.16-18.49,5.52-19,5.62Zm18.9-16a49,49,0,0,0-8.12,8.8c3.85-.93,8.61-2.27,11.42-3.76l.11-.07c4.29-2.83,5.5-6.15,5-6.87s-4-.95-8.4,1.87Zm.1-.08Z"/><path d="M970.23,747.65l-4.4-3.58c-.4-.32-9.69-7.91-13.11-13.16l-.18-.32c-3.27-6.16-2.9-12.33.85-14.36s9.13,1.06,12.48,7.18h0a2.52,2.52,0,0,1,.15.27v0c3,6.77,3.78,17.81,3.81,18.27Zm-13.31-19.32a51.74,51.74,0,0,0,7.28,7.8,45,45,0,0,0-2.63-10.32l0,0c-2.32-4.23-5.22-5.52-5.81-5.21s-1.09,3.43,1.13,7.66Zm.05.09h0Z"/><path d="M923.61,732.56,927,728c.28-.38,6.91-9.24,13.09-13.32l.31-.17h0c6.13-3.33,12.31-3,14.37.71s-1,9.13-7,12.55l-.3.16c-5.74,2.58-17.66,3.93-18.16,4Zm19.13-13.71a45,45,0,0,0-7.83,7.28,50.57,50.57,0,0,0,10.36-2.64h0c4.21-2.36,5.48-5.28,5.16-5.86s-3.47-1.06-7.71,1.24Zm-1.18-2.16,1.05,2.23.13-.07Z"/></svg>